<?xml version="1.0" standalone="no"?>
<!DOCTYPE svg PUBLIC "-//W3C//DTD SVG 1.1//EN" "http://www.w3.org/Graphics/SVG/1.1/DTD/svg11.dtd" >
<svg xmlns="http://www.w3.org/2000/svg" xmlns:xlink="http://www.w3.org/1999/xlink" version="1.1">
<metadata>
Created by FontForge 20160407 at Sat May 28 18:46:02 2016
 By Jimmy Wärting
Copyright (c) 2011 by Jonathan Hill. All rights reserved.
</metadata>
<defs>
<font id="Planer-Regular" horiz-adv-x="656" >
  <font-face 
    font-family="Planer"
    font-weight="400"
    font-stretch="normal"
    units-per-em="1000"
    panose-1="0 0 5 0 0 0 0 0 0 0"
    ascent="750"
    descent="-250"
    x-height="508.33"
    cap-height="700.109"
    bbox="-56.5488 -226.008 949.07 999.3"
    underline-thickness="50"
    underline-position="-100"
    stemh="56"
    stemv="62"
    unicode-range="U+0020-FB02"
  />
<missing-glyph horiz-adv-x="300" 
 />
    <glyph glyph-name=".notdef" horiz-adv-x="300" 
 />
    <glyph glyph-name="A" unicode="A" horiz-adv-x="605" 
d="M38.0801 37.9805l181.849 602.398c10.6797 35.1396 43.9199 59.7197 83.29 59.7197c39.5498 0 71.2803 -24.5996 82.3604 -59.6797l182.57 -605.63c0.679688 -2.26953 1.00977 -4.59961 1.00977 -6.91992c0 -13.1797 -10.7402 -26.1992 -29.0898 -27.3691
c-14.5498 -1.51953 -27.7598 8.58008 -31.8398 21.5098l-58.1396 185.17h-294.58l-57.29 -184.39c-4.08008 -13.5303 -17.3203 -23.7998 -32.4404 -22.5098c-18.1299 0.799805 -28.9795 13 -28.9795 28.3701c0 3.00977 0.419922 6.13965 1.28027 9.33008zM433.028 264.999
l-108.4 359.59c-3.58008 11.8701 -10.3799 17.5303 -21.0498 17.5303c-10.6797 0 -17.4893 -5.65039 -21.0996 -17.5l-109.66 -359.62h260.21z" />
    <glyph glyph-name="Aacute" unicode="&#xc1;" horiz-adv-x="605" 
d="M216 830.98l150.688 71.7012c4.4502 2.12012 8.87988 3.08984 13.0898 3.08984c10.7402 0 20.0898 -6.30957 24.8594 -16.0596c1.98047 -4.05957 2.94043 -8.00977 2.94043 -11.7793c0 -10.7002 -7.71973 -19.96 -21.6494 -26.3604l-144.6 -67.1104
c-5.38965 -2.48047 -10.9395 -3.77051 -16.209 -3.77051c-9.7998 0 -18.6396 4.46973 -23.6797 14.0596c-1.96973 3.63965 -2.9502 7.55957 -2.9502 11.4795c0 9.59961 5.87988 19.2197 17.5098 24.75zM38.0781 37.9912l181.839 602.398
c10.6797 35.1396 43.9199 59.7197 83.29 59.7197c39.5498 0 71.29 -24.5996 82.3701 -59.6797l182.57 -605.63c0.679688 -2.26953 1.00977 -4.59961 1.00977 -6.91992c0 -13.1797 -10.7402 -26.1992 -29.0898 -27.3691c-14.5498 -1.51953 -27.7598 8.58008 -31.8398 21.5098
l-58.1396 185.17h-294.58l-57.29 -184.39c-4.08008 -13.5303 -17.3203 -23.7998 -32.4404 -22.5098c-18.1299 0.799805 -28.9795 13 -28.9795 28.3701c0 3.00977 0.419922 6.13965 1.28027 9.33008zM433.017 265.01l-108.4 359.59
c-3.58008 11.8701 -10.3799 17.5303 -21.0498 17.5303c-10.6797 0 -17.4893 -5.65039 -21.0996 -17.5l-109.66 -359.62h260.21z" />
    <glyph glyph-name="Abreve" unicode="&#x102;" horiz-adv-x="605" 
d="M333.68 791.29l-61.2988 -0.0078125c-57.8799 0 -103.18 45.29 -103.18 101.68c0 13.5098 10.3301 26.8193 27.2598 26.8193c15.71 0 28.2998 -13.1104 28.2998 -26.8105c0 -29.8604 22.9502 -52.3906 51.1201 -52.3906h55.1396
c27.5098 0 49.4795 22.9297 50.2793 50.7598c0 17.2598 11.7402 28.4502 27.5498 28.4502c15.8799 0 28 -13.2197 28 -26.8096c0 -56.54 -47.4297 -101.69 -103.17 -101.69zM38.0811 37.9727l181.849 602.398c10.6797 35.1396 43.9199 59.7197 83.29 59.7197
c39.5498 0 71.2803 -24.5996 82.3604 -59.6797l182.57 -605.63c0.679688 -2.26953 1.00977 -4.59961 1.00977 -6.91992c0 -13.1797 -10.7402 -26.1992 -29.0898 -27.3691c-14.5498 -1.51953 -27.7598 8.58008 -31.8398 21.5098l-58.1396 185.17h-294.58l-57.29 -184.39
c-4.08008 -13.5303 -17.3203 -23.7998 -32.4404 -22.5098c-18.1299 0.799805 -28.9795 13 -28.9795 28.3701c0 3.00977 0.419922 6.13965 1.28027 9.33008zM433.029 264.991l-108.4 359.59c-3.58008 11.8701 -10.3799 17.5303 -21.0498 17.5303
c-10.6797 0 -17.4893 -5.65039 -21.0996 -17.5l-109.66 -359.62h260.21z" />
    <glyph glyph-name="Acaron" unicode="&#x1cd;" horiz-adv-x="605" 
d="M261.86 774.53l-82.0498 91.5889c-3.82031 4.30957 -5.66016 9.75977 -5.66016 15.2295c0 6.86035 2.88965 13.7607 8.37012 18.5205c5.12012 4.48047 11.71 6.6709 18.3604 6.6709c8.0498 0 16.1895 -3.21973 21.9092 -9.48926l69.7002 -74.0898
c3.4502 -3.69043 6.68066 -5.28027 10.6406 -5.26074c3.9502 0.00976562 7.16016 1.62012 10.5801 5.32031l68.71 73.2598c6.2002 7.04004 14.2305 10.2998 22.0801 10.2998c7.16016 0 14.1699 -2.71973 19.4902 -7.76953c5.07031 -4.7998 7.5 -10.5898 7.5 -16.5898
c0 -6.12988 -2.53027 -12.4697 -7.37012 -18.1797l-84.75 -90.8701c-8.23047 -9.83008 -22 -18.1104 -36.0801 -18.1104c-17.6904 0 -32.8906 8.91016 -41.4307 19.4697zM38.0605 37.9893l181.849 602.389c10.6797 35.1396 43.9199 59.7197 83.29 59.7197
c39.5498 0 71.2803 -24.5996 82.3604 -59.6699l182.57 -605.63c0.679688 -2.26953 1.00977 -4.59961 1.00977 -6.91992c0 -13.1797 -10.7402 -26.1992 -29.0898 -27.3691c-14.5498 -1.51953 -27.7598 8.58008 -31.8398 21.5098l-58.1396 185.17h-294.58l-57.29 -184.39
c-4.08008 -13.5303 -17.3203 -23.7998 -32.4404 -22.5098c-18.1299 0.799805 -28.9795 13 -28.9795 28.3701c0 3.00977 0.419922 6.13965 1.28027 9.33008zM433.009 264.998l-108.4 359.59c-3.58008 11.8701 -10.3799 17.5303 -21.0498 17.5303
c-10.6797 0 -17.4893 -5.65039 -21.0996 -17.5l-109.66 -359.62h260.21z" />
    <glyph glyph-name="Acircumflex" unicode="&#xc2;" horiz-adv-x="605" 
d="M179.83 803.65l82.04 91.5889c8.54004 10.5596 23.7402 19.4697 41.4307 19.4697c14.0801 0 27.8496 -8.28027 36.0801 -18.1104l84.75 -90.8701c4.83984 -5.70996 7.37012 -12.0498 7.37012 -18.1797c0 -6 -2.42969 -11.79 -7.5 -16.5898
c-5.32031 -5.0498 -12.3301 -7.76953 -19.4902 -7.76953c-7.84961 0 -15.8799 3.25977 -22.0801 10.2998l-68.71 73.2598c-3.41992 3.7002 -6.62988 5.31055 -10.5801 5.33008c-3.95996 0.00976562 -7.19043 -1.58008 -10.6406 -5.27051l-69.7002 -74.0898
c-5.71973 -6.26953 -13.8496 -9.48926 -21.8994 -9.48926c-6.65039 0 -13.2402 2.19043 -18.3604 6.6709c-5.48047 4.75977 -8.37012 11.6602 -8.37012 18.5205c0 5.46973 1.83984 10.9199 5.66016 15.2295zM38.1006 37.9893l181.849 602.398
c10.6797 35.1396 43.9199 59.7197 83.29 59.7197c39.5498 0 71.2803 -24.5996 82.3604 -59.6797l182.57 -605.63c0.679688 -2.26953 1.00977 -4.59961 1.00977 -6.91992c0 -13.1797 -10.7402 -26.1992 -29.0898 -27.3691
c-14.5498 -1.51953 -27.7598 8.58008 -31.8398 21.5098l-58.1396 185.17h-294.58l-57.29 -184.39c-4.08008 -13.5303 -17.3203 -23.7998 -32.4404 -22.5098c-18.1299 0.799805 -28.9795 13 -28.9795 28.3701c0 3.00977 0.419922 6.13965 1.28027 9.33008zM433.049 265.008
l-108.4 359.59c-3.58008 11.8701 -10.3799 17.5303 -21.0498 17.5303c-10.6797 0 -17.4893 -5.65039 -21.0996 -17.5l-109.66 -359.62h260.21z" />
    <glyph glyph-name="Acircumflexdotbelow" unicode="&#x1eac;" horiz-adv-x="605" 
d="M292.51 846.8l-69.6797 -74.0811c-5.71973 -6.26953 -13.8496 -9.48926 -21.8994 -9.48926c-6.65039 0 -13.2402 2.19043 -18.3604 6.6709c-5.48047 4.75977 -8.37012 11.6602 -8.37012 18.5205c0 5.46973 1.83984 10.9199 5.66016 15.2295l82.0195 91.5801
c8.54004 10.5596 23.7402 19.4697 41.4307 19.4697c14.0801 0 27.8496 -8.28027 36.0801 -18.1104l84.75 -90.8701c4.83984 -5.70996 7.37012 -12.0498 7.37012 -18.1797c0 -6 -2.42969 -11.79 -7.5 -16.5898c-5.32031 -5.0498 -12.3301 -7.76953 -19.4902 -7.76953
c-7.84961 0 -15.8799 3.25977 -22.0801 10.2998l-68.71 73.2598c-3.41992 3.7002 -6.62988 5.31055 -10.5801 5.33008c-3.95996 0.00976562 -7.19043 -1.58008 -10.6406 -5.27051zM38.0996 37.9785l181.839 602.398c10.6797 35.1396 43.9199 59.7197 83.29 59.7197
c39.5498 0 71.29 -24.5996 82.3701 -59.6797l182.57 -605.63c0.679688 -2.26953 1.00977 -4.59961 1.00977 -6.91992c0 -13.1797 -10.7402 -26.1992 -29.0898 -27.3691c-14.5498 -1.51953 -27.7598 8.58008 -31.8398 21.5098l-58.1396 185.17h-294.58l-57.29 -184.39
c-4.08008 -13.5303 -17.3203 -23.7998 -32.4404 -22.5098c-18.1299 0.799805 -28.9795 13 -28.9795 28.3701c0 3.00977 0.419922 6.13965 1.28027 9.33008zM433.038 264.997l-108.4 359.59c-3.58008 11.8701 -10.3799 17.5303 -21.0498 17.5303
c-10.6797 0 -17.4893 -5.65039 -21.0996 -17.5l-109.66 -359.62h260.21z" />
    <glyph glyph-name="Adieresis" unicode="&#xc4;" horiz-adv-x="605" 
d="M350.4 848.44l0.000976562 27.3008c0 16.25 10.8896 27.9404 28.3799 27.9404c17.2998 0 29.1299 -11.8203 29.1299 -27.9404v-27.2998c0 -15.4502 -11.4297 -27.1904 -29.1299 -27.1904c-17.9004 0 -28.3809 11.5898 -28.3809 27.1895zM198.151 848.441
l-0.00976562 27.2998c0 16.3701 11.3398 27.9404 28.3799 27.9404c17.5996 0 29.4297 -11.8203 29.4297 -27.9404v-27.29c0 -15.46 -11.4297 -27.2002 -29.4199 -27.2002c-17.4502 0 -28.3799 11.4805 -28.3799 27.1904zM38.0713 38.001l181.839 602.389
c10.6797 35.1396 43.9199 59.7197 83.29 59.7197c39.5498 0 71.29 -24.5996 82.3701 -59.6699l182.57 -605.63c0.679688 -2.26953 1.00977 -4.59961 1.00977 -6.91992c0 -13.1797 -10.7402 -26.1992 -29.0898 -27.3691c-14.5498 -1.51953 -27.7598 8.58008 -31.8398 21.5098
l-58.1396 185.17h-294.58l-57.29 -184.39c-4.08008 -13.5303 -17.3203 -23.7998 -32.4404 -22.5098c-18.1299 0.799805 -28.9795 13 -28.9795 28.3701c0 3.00977 0.419922 6.13965 1.28027 9.33008zM433.01 265.01l-108.4 359.59
c-3.58008 11.8701 -10.3799 17.5303 -21.0498 17.5303c-10.6797 0 -17.4893 -5.65039 -21.0996 -17.5l-109.66 -359.62h260.21z" />
    <glyph glyph-name="Adieresismacron" unicode="&#x1de;" horiz-adv-x="605" 
d="M201.11 919.18h202.57c15.6201 0 27.1904 -10.6602 27.1904 -29.1201c0 -17.1602 -10.96 -28.6797 -27.1904 -28.6797h-202.57c-16.0703 0 -27.9404 11.6299 -27.9404 28.6699c0 18.3604 12.46 29.1299 27.9404 29.1299zM198.15 777.18l-0.00976562 27.29
c0 16.3701 11.3398 27.9404 28.3799 27.9404c17.5996 0 29.4297 -11.8203 29.4297 -27.9404v-27.29c0 -15.4502 -11.4297 -27.1904 -29.4199 -27.1904c-17.4502 0 -28.3799 11.4805 -28.3799 27.1904zM350.391 777.189l0.000976562 27.2812
c0 16.25 10.8896 27.9404 28.3799 27.9404c17.2998 0 29.1299 -11.8203 29.1299 -27.9404v-27.29c0 -15.4502 -11.4297 -27.1904 -29.1299 -27.1904c-17.9004 0 -28.3809 11.5996 -28.3809 27.1992zM38.0713 37.9609l181.839 602.398
c10.6797 35.1396 43.9199 59.7197 83.29 59.7197c39.5498 0 71.29 -24.5996 82.3701 -59.6797l182.57 -605.63c0.679688 -2.26953 1.00977 -4.59961 1.00977 -6.91992c0 -13.1797 -10.7402 -26.1992 -29.0898 -27.3691c-14.5498 -1.51953 -27.7598 8.58008 -31.8398 21.5098
l-58.1396 185.17h-294.58l-57.29 -184.39c-4.08008 -13.5303 -17.3203 -23.7998 -32.4404 -22.5098c-18.1299 0.799805 -28.9795 13 -28.9795 28.3701c0 3.00977 0.419922 6.13965 1.28027 9.33008zM433.01 264.979l-108.4 359.59
c-3.58008 11.8701 -10.3799 17.5303 -21.0498 17.5303c-10.6797 0 -17.4893 -5.65039 -21.0996 -17.5l-109.66 -359.62h260.21z" />
    <glyph glyph-name="Agrave" unicode="&#xc0;" horiz-adv-x="605" 
d="M364.72 784.45l-148.432 68.8506c-10.5703 4.87012 -17.7803 14.2002 -17.7803 24.7803c0 3.75977 0.910156 7.67969 2.91016 11.6094c4.50977 9.83008 13.9199 16.0801 24.7002 16.0801c4.26953 0 8.75977 -0.980469 13.2402 -3.11035l150.69 -71.6904
c11.96 -5.69043 17.3301 -15.6406 17.3301 -25.0205c0 -3.95996 -0.959961 -7.82031 -2.78027 -11.21c-5.05957 -9.63965 -13.6299 -14.1992 -23.3896 -14.1992c-5.26953 0 -10.8896 1.33008 -16.4893 3.91016zM38.0781 37.9707l181.839 602.398
c10.6797 35.1396 43.9199 59.7197 83.29 59.7197c39.5498 0 71.29 -24.5996 82.3701 -59.6797l182.57 -605.63c0.679688 -2.26953 1.00977 -4.59961 1.00977 -6.91992c0 -13.1797 -10.7402 -26.1992 -29.0898 -27.3691c-14.5498 -1.51953 -27.7598 8.58008 -31.8398 21.5098
l-58.1396 185.17h-294.58l-57.29 -184.39c-4.08008 -13.5303 -17.3203 -23.7998 -32.4404 -22.5098c-18.1299 0.799805 -28.9795 13 -28.9795 28.3701c0 3.00977 0.419922 6.13965 1.28027 9.33008zM433.017 264.989l-108.4 359.59
c-3.58008 11.8701 -10.3799 17.5303 -21.0498 17.5303c-10.6797 0 -17.4893 -5.65039 -21.0996 -17.5l-109.66 -359.62h260.21z" />
    <glyph glyph-name="Amacron" unicode="&#x100;" horiz-adv-x="605" 
d="M203.52 927.17l202.58 -0.00976562c15.6201 0 27.1904 -10.6602 27.1904 -29.1201c0 -17.1602 -10.96 -28.6797 -27.1904 -28.6797h-202.57c-16.0801 0 -27.9502 11.6299 -27.9502 28.6797c0 18.3604 12.46 29.1299 27.9404 29.1299zM38.0996 37.9697l181.839 602.389
c10.6797 35.1396 43.9199 59.7197 83.29 59.7197c39.5498 0 71.29 -24.5996 82.3701 -59.6699l182.57 -605.63c0.679688 -2.26953 1.00977 -4.59961 1.00977 -6.91992c0 -13.1797 -10.7402 -26.1992 -29.0898 -27.3691c-14.5498 -1.51953 -27.7598 8.58008 -31.8398 21.5098
l-58.1396 185.17h-294.58l-57.29 -184.39c-4.08008 -13.5303 -17.3203 -23.7998 -32.4404 -22.5098c-18.1299 0.799805 -28.9795 13 -28.9795 28.3701c0 3.00977 0.419922 6.13965 1.28027 9.33008zM433.038 264.979l-108.4 359.59
c-3.58008 11.8701 -10.3799 17.5303 -21.0498 17.5303c-10.6797 0 -17.4893 -5.65039 -21.0996 -17.5l-109.66 -359.62h260.21z" />
    <glyph glyph-name="Aogonek" unicode="&#x104;" horiz-adv-x="605" 
d="M385.59 640.43l182.581 -605.645c0.679688 -2.26953 1.00977 -4.59961 1.00977 -6.91992c0 -13.1797 -10.7402 -26.1992 -29.0898 -27.3691c-1.01953 -0.110352 -2.0293 -0.160156 -3.0293 -0.160156c-1.44043 0 -2.86035 0.110352 -4.25 0.330078
c-14.7002 -22.2695 -23.7598 -44.7393 -23.7598 -65.1689c0 -4.98047 0.540039 -9.83008 1.66992 -14.5303c3.16016 -11.8096 15.3105 -21.5293 28.5107 -21.5293c9.13965 0 18.79 4.66992 26.2998 16.54c4.99023 7.19043 8.7998 11.1504 17.1201 11.1504
c0.929688 0 1.91992 -0.0498047 2.97949 -0.149414c8.80957 -0.839844 15.3291 -6.57031 15.3291 -14.8604c0 -1.62012 -0.25 -3.33984 -0.780273 -5.13965c-11.0303 -29.3096 -37.3105 -43.0996 -62.9609 -43.0996c-30.3604 0 -59.8408 19.3203 -62.1006 55.1006
c-0.280273 2.88965 -0.410156 5.75 -0.410156 8.58008c0 37.2695 23.4004 68.6494 39.1807 84.8291c-2.59961 2.94043 -4.58008 6.25 -5.65039 9.62012l-58.1396 185.17h-294.58l-57.29 -184.39c-4.08008 -13.5303 -17.3203 -23.7998 -32.4404 -22.5098
c-18.1299 0.799805 -28.9795 13 -28.9795 28.3701c0 3.00977 0.419922 6.13965 1.28027 9.33008l181.84 602.41c10.6797 35.1396 43.9199 59.7197 83.29 59.7197c39.5498 0 71.29 -24.5996 82.3701 -59.6797zM433.041 264.995l-108.4 359.59
c-3.58008 11.8701 -10.3799 17.5303 -21.0498 17.5303c-10.6797 0 -17.4893 -5.65039 -21.0996 -17.5l-109.66 -359.62h260.21z" />
    <glyph glyph-name="Aring" unicode="&#xc5;" horiz-adv-x="605" 
d="M302.86 923.73c55.3604 0 101.32 -45.9502 101.32 -99.3203c0 -54.4004 -45.9199 -99.6602 -101.32 -99.6602c-55.7803 0 -100.99 45.21 -100.99 99.6602c0 53.4102 45.2598 99.3203 100.99 99.3203zM303.19 877.88c-28.7002 0 -51.7988 -24.3301 -51.7988 -53.4502
c0 -30.0098 22.8496 -53.4697 51.8096 -53.4697c28.3398 0 51.7998 23.5898 51.7998 53.46c0 28.9902 -23.7305 53.46 -51.8105 53.46zM38.0918 38l181.839 602.389c10.6797 35.1396 43.9199 59.7197 83.29 59.7197c39.5498 0 71.29 -24.5996 82.3701 -59.6699
l182.57 -605.63c0.679688 -2.26953 1.00977 -4.59961 1.00977 -6.91992c0 -13.1797 -10.7402 -26.1992 -29.0898 -27.3691c-14.5498 -1.51953 -27.7598 8.58008 -31.8398 21.5098l-58.1396 185.17h-294.58l-57.29 -184.39
c-4.08008 -13.5303 -17.3203 -23.7998 -32.4404 -22.5098c-18.1299 0.799805 -28.9795 13 -28.9795 28.3701c0 3.00977 0.419922 6.13965 1.28027 9.33008zM433.03 265.009l-108.4 359.59c-3.58008 11.8701 -10.3799 17.5303 -21.0498 17.5303
c-10.6797 0 -17.4893 -5.65039 -21.0996 -17.5l-109.66 -359.62h260.21z" />
    <glyph glyph-name="Atilde" unicode="&#xc3;" horiz-adv-x="605" 
d="M243 883.95c36.1699 1.62988 54.5596 -13.21 71.1396 -26.8301c16.7598 -13.7998 32.3799 -28.3398 57.21 -26.3594c14.4004 1.15039 32.46 16.2207 45.9902 28.3203c4.25 4.49023 9.87988 6.39062 15.6104 6.39062c7.90039 0 16 -3.59961 20.9902 -8.95996
c4.36035 -4.67969 6.64062 -10.9492 6.64062 -17.3389c0 -6.36035 -2.25977 -12.8408 -6.96973 -17.9912c-16.8096 -15.9805 -54.0996 -44.25 -81.0898 -46.0703c-36.1104 -2.58008 -55.6602 15.1602 -76.4199 31.6201c-14.1699 11.4902 -28.9004 23.4902 -47.1602 23.4902
c-2.19043 0 -4.43066 -0.169922 -6.73047 -0.540039c-17.0703 -2.62988 -35.4502 -14.7295 -52.5801 -29.5996c-5.51953 -4.37988 -11.2598 -6.13965 -16.6602 -6.13965c-7.71973 0 -14.7598 3.58984 -19.4902 8.26953c-5.62988 5.55957 -7.95996 11.4893 -7.95996 17.2393
c0 7.96973 4.48047 15.6094 10.8604 21.4893c26.6299 23.54 56.8496 41.8096 86.6191 43.0098zM38.0596 38.0107l181.839 602.398c10.6797 35.1396 43.9199 59.7197 83.29 59.7197c39.5498 0 71.29 -24.5996 82.3701 -59.6797l182.57 -605.63
c0.679688 -2.26953 1.00977 -4.59961 1.00977 -6.91992c0 -13.1797 -10.7402 -26.1992 -29.0898 -27.3691c-14.5498 -1.51953 -27.7598 8.58008 -31.8398 21.5098l-58.1396 185.17h-294.58l-57.29 -184.39c-4.08008 -13.5303 -17.3203 -23.7998 -32.4404 -22.5098
c-18.1299 0.799805 -28.9795 13 -28.9795 28.3701c0 3.00977 0.419922 6.13965 1.28027 9.33008zM432.998 265.029l-108.4 359.59c-3.58008 11.8701 -10.3799 17.5303 -21.0498 17.5303c-10.6797 0 -17.4893 -5.65039 -21.0996 -17.5l-109.66 -359.62h260.21z" />
    <glyph glyph-name="AE" unicode="&#xc6;" horiz-adv-x="775" 
d="M356.09 700.11l340.23 -0.0302734c21.2695 0 33.25 -13.3203 33.25 -29.75c0 -16.5596 -12.25 -29.4395 -31.2803 -29.4395h-328.44v-247.62h268.91c19.8398 0 33.2598 -12.9004 33.2598 -29.4404c0 -17.5996 -13.6797 -30.0596 -31.2695 -30.0596h-270.89v-274.72
h326.46c21.0996 0 33.2598 -12.8799 33.2598 -29.4395c0 -16.4297 -12.0801 -29.6094 -31.2803 -29.6094h-342.21c-27.8203 0 -48.79 19.7695 -48.79 46.8193v160.35h-151.79l-57.29 -184.39c-4.08008 -13.5303 -17.3203 -23.7998 -32.4404 -22.5098
c-18.1299 0.799805 -28.9795 13.0098 -28.9795 28.3799c0 3.00977 0.419922 6.13965 1.28027 9.33008l181.84 602.41c10.6797 35.1396 43.9199 59.7197 83.29 59.7197c10.5898 0 20.6299 -1.82031 29.8398 -5.14062c6.79004 3.30957 14.5996 5.13965 23.04 5.13965z
M307.24 264.99l-0.00878906 374.351c-1.49023 1.65039 -3.23047 1.93066 -5.55078 2.09082c-14.3604 0.179688 -17.8701 -13.1006 -19.2002 -17.4609l-109.66 -358.98h134.42z" />
    <glyph glyph-name="B" unicode="B" horiz-adv-x="624" 
d="M141.9 700.11l223.829 -0.0185547c102.19 0 185.98 -83.79 185.98 -184.45c0 -64.4297 -36.3301 -119.89 -89.2998 -149.439c68.0498 -27.3799 116.09 -93.8203 116.09 -171.9c0 -107.3 -88.1396 -194.28 -196.939 -194.28h-239.66
c-28.3701 0 -48.4805 19.9697 -48.4805 46.8193v606.31c0 26.8496 20.1104 46.96 48.4805 46.96zM155.67 390.312l210.06 -0.000976562c67.6904 0 125.101 56.4902 125.101 125.33c0 69.4805 -57.4502 126.931 -125.101 126.931h-210.06v-252.26zM381.569 332.791h-225.9
v-275.71h225.9c74.1904 0 136.37 61.6396 136.37 137.199c0 75.9004 -62.2197 138.511 -136.37 138.511z" />
    <glyph glyph-name="Bdotbelow" unicode="&#x1e04;" horiz-adv-x="624" 
d="M141.9 700.11l223.829 -0.0185547c102.19 0 185.98 -83.79 185.98 -184.45c0 -64.4297 -36.3301 -119.89 -89.2998 -149.439c68.0498 -27.3799 116.09 -93.8203 116.09 -171.9c0 -107.3 -88.1396 -194.28 -196.939 -194.28h-239.66
c-28.3701 0 -48.4805 19.9697 -48.4805 46.8193v606.31c0 26.8496 20.1104 46.96 48.4805 46.96zM155.67 390.312l210.06 -0.000976562c67.6904 0 125.101 56.4902 125.101 125.33c0 69.4805 -57.4502 126.931 -125.101 126.931h-210.06v-252.26zM381.569 332.791h-225.9
v-275.71h225.9c74.1904 0 136.37 61.6396 136.37 137.199c0 75.9004 -62.2197 138.511 -136.37 138.511zM270.059 -112.019l-0.00976562 27c0 16 10.4297 28 28.3799 28c17.1602 0 29.4297 -11 29.4297 -28v-27c0 -15 -11.8701 -27 -29.4199 -27
c-18.3604 0 -28.3799 12 -28.3799 27z" />
    <glyph glyph-name="C" unicode="C" horiz-adv-x="553" 
d="M305.98 700.11l170.612 -0.0078125c16.2598 0 30.29 -14.0303 30.29 -28.7607s-14.0303 -28.75 -30.29 -28.75h-170.61c-108.32 0 -174.66 -53.2402 -174.66 -185.471v-220.17c0 -103.48 62 -179.841 174.66 -179.841h168.63
c19.1299 0 32.2695 -13.8398 32.2695 -28.4502c0 -15.1602 -14.1797 -28.6201 -30.29 -28.6201h-170.61c-151.94 0 -237.591 96.6904 -237.591 236.91v220.17c0 174.26 91.21 242.99 237.59 242.99z" />
    <glyph glyph-name="Cacute" unicode="&#x106;" horiz-adv-x="553" 
d="M189.64 830.98l150.688 71.7012c4.4502 2.12012 8.87988 3.08984 13.0898 3.08984c10.7402 0 20.0898 -6.30957 24.8594 -16.0596c1.98047 -4.05957 2.94043 -8.00977 2.94043 -11.7793c0 -10.7002 -7.71973 -19.96 -21.6494 -26.3604l-144.6 -67.1104
c-5.38965 -2.48047 -10.9395 -3.77051 -16.209 -3.77051c-9.7998 0 -18.6396 4.46973 -23.6797 14.0596c-1.96973 3.63965 -2.9502 7.55957 -2.9502 11.4795c0 9.59961 5.87988 19.2197 17.5098 24.75zM305.979 700.122l170.612 -0.0078125
c16.2598 0 30.29 -14.0303 30.29 -28.7607s-14.0303 -28.75 -30.29 -28.75h-170.61c-108.32 0 -174.66 -53.2402 -174.66 -185.471v-220.17c0 -103.48 62 -179.841 174.66 -179.841h168.63c19.1299 0 32.2695 -13.8398 32.2695 -28.4502
c0 -15.1602 -14.1797 -28.6201 -30.29 -28.6201h-170.61c-151.94 0 -237.591 96.6904 -237.591 236.91v220.17c0 174.26 91.21 242.99 237.59 242.99z" />
    <glyph glyph-name="Ccaron" unicode="&#x10c;" horiz-adv-x="553" 
d="M258.86 777.85l-82.0596 91.5889c-3.82031 4.30957 -5.66016 9.75977 -5.66016 15.2295c0 6.86035 2.88965 13.7607 8.37012 18.5205c5.12012 4.48047 11.71 6.6709 18.3604 6.6709c8.0498 0 16.1895 -3.21973 21.9092 -9.48926l69.7002 -74.0898
c3.4502 -3.69043 6.68066 -5.28027 10.6406 -5.26074c3.95996 0.00976562 7.16992 1.62012 10.5898 5.32031l68.71 73.2598c6.2002 7.04004 14.2305 10.2998 22.0801 10.2998c7.16016 0 14.1699 -2.71973 19.4902 -7.76953c5.07031 -4.7998 7.5 -10.5898 7.5 -16.5898
c0 -6.12988 -2.53027 -12.4697 -7.37012 -18.1797l-84.75 -90.8701c-8.23047 -9.83008 -22 -18.1104 -36.0801 -18.1104c-17.6904 0 -32.8906 8.91016 -41.4307 19.4697zM305.951 700.118l170.612 -0.0078125c16.2598 0 30.29 -14.0303 30.29 -28.7607
s-14.0303 -28.75 -30.29 -28.75h-170.61c-108.32 0 -174.66 -53.2402 -174.66 -185.471v-220.17c0 -103.48 62 -179.841 174.66 -179.841h168.63c19.1299 0 32.2695 -13.8398 32.2695 -28.4502c0 -15.1602 -14.1797 -28.6201 -30.29 -28.6201h-170.61
c-151.94 0 -237.591 96.6904 -237.591 236.91v220.17c0 174.26 91.21 242.99 237.59 242.99z" />
    <glyph glyph-name="Ccedilla" unicode="&#xc7;" horiz-adv-x="553" 
d="M305.98 700.11l170.682 -0.00878906c16.2598 0 30.29 -14.0195 30.29 -28.7598c0 -14.7305 -14.0303 -28.75 -30.29 -28.75h-170.61c-108.32 0 -174.66 -53.2402 -174.66 -185.471v-220.17c0 -103.48 62 -179.841 174.66 -179.841h168.63
c19.1299 0 32.2695 -13.8398 32.2695 -28.4502c0 -15.1602 -14.1797 -28.6201 -30.29 -28.6201h-170.61c-11.0303 0 -21.6104 0.509766 -31.7305 1.76953v-39.8096c52.3301 0 68.46 -18 68.46 -67c0 -56 -25.8896 -75 -80.3994 -75h-32.1104
c-12.8398 0 -19.5801 7 -19.5801 18c0 10 6.92969 18 17.4199 18h32.8604c28.6602 0 31.71 15 31.71 38c0 22 -3.20996 35 -31.3604 35c-18.8604 1 -27.96 13 -27.96 32v47.5898c-106.33 26.1602 -164.97 112.33 -164.97 228.36v220.17c0 174.26 91.21 242.99 237.59 242.99
z" />
    <glyph glyph-name="Cdotaccent" unicode="&#x10a;" horiz-adv-x="553" 
d="M288.14 848.69l-0.00976562 27.3008c0 16.1299 10.4297 27.9395 28.3799 27.9395c17.1602 0 29.4297 -11.71 29.4297 -27.9404v-27.29c0 -15.5703 -11.8701 -27.2002 -29.4199 -27.2002c-18.3604 0 -28.3799 11.71 -28.3799 27.1904zM305.97 700.111l170.612 -0.0078125
c16.2598 0 30.29 -14.0303 30.29 -28.7607s-14.0303 -28.75 -30.29 -28.75h-170.61c-108.32 0 -174.66 -53.2402 -174.66 -185.471v-220.17c0 -103.48 62 -179.841 174.66 -179.841h168.63c19.1299 0 32.2695 -13.8398 32.2695 -28.4502
c0 -15.1602 -14.1797 -28.6201 -30.29 -28.6201h-170.61c-151.94 0 -237.591 96.6904 -237.591 236.91v220.17c0 174.26 91.21 242.99 237.59 242.99z" />
    <glyph glyph-name="D" unicode="D" horiz-adv-x="640" 
d="M93.4199 46.8496v606.291c0 26.8496 20.1104 46.96 48.4805 46.96h193.07c146.38 0 237.59 -68.7305 237.59 -242.99v-220.17c0 -140.25 -85.9902 -236.91 -237.59 -236.91h-193.07c-28.3701 0 -48.4805 19.9697 -48.4805 46.8193zM509.32 236.931l0.00976562 220.18
c0 132.23 -66.3398 185.471 -174.359 185.471h-179.3v-585.49h179.3c112.6 0 174.35 76.3096 174.35 179.84z" />
    <glyph glyph-name="Eth" unicode="&#xd0;" horiz-adv-x="651" 
d="M153.86 700.11l193.071 -0.0175781c146.38 0 237.59 -68.7305 237.59 -242.99v-220.17c0 -140.25 -85.9902 -236.91 -237.59 -236.91h-193.07c-28.3701 0 -48.4805 19.9697 -48.4805 46.8193v265.18h-53.3203c-15.4404 0.469727 -30.3809 12.21 -30.3809 29.6797
c0 14.1699 12.4004 27.8496 30.6699 27.8496h53.0303v283.6c0 26.8496 20.1104 46.96 48.4805 46.96zM521.281 236.933l0.0185547 220.16c0 132.23 -66.3398 185.471 -174.359 185.471h-179.3v-273.04h156.35c18.1904 0 29.6709 -12.3496 29.6709 -28.8301
c0 -16.8604 -11.25 -28.7607 -29.6797 -28.7607h-156.35v-254.84h179.3c112.6 0 174.35 76.3096 174.35 179.84z" />
    <glyph glyph-name="Dcaron" unicode="&#x10e;" horiz-adv-x="640" 
d="M276.85 777.85l-82.0498 91.5889c-3.82031 4.30957 -5.66016 9.75977 -5.66016 15.2295c0 6.86035 2.88965 13.7607 8.37012 18.5205c5.12012 4.48047 11.71 6.6709 18.3604 6.6709c8.0498 0 16.1895 -3.21973 21.9092 -9.48926l69.7002 -74.0898
c3.4502 -3.69043 6.68066 -5.28027 10.6406 -5.26074c3.9502 0.00976562 7.16016 1.62012 10.5801 5.32031l68.71 73.2598c6.2002 7.04004 14.2305 10.2998 22.0801 10.2998c7.16016 0 14.1699 -2.71973 19.4902 -7.76953c5.07031 -4.7998 7.5 -10.5898 7.5 -16.5898
c0 -6.12988 -2.53027 -12.4697 -7.37012 -18.1797l-84.75 -90.8701c-8.23047 -9.83008 -22 -18.1104 -36.0801 -18.1104c-17.6904 0 -32.8906 8.91016 -41.4307 19.4697zM93.3896 46.8584v606.291c0 26.8496 20.1104 46.96 48.4805 46.96h193.07
c146.38 0 237.59 -68.7305 237.59 -242.99v-220.17c0 -140.25 -85.9902 -236.91 -237.59 -236.91h-193.07c-28.3701 0 -48.4805 19.9697 -48.4805 46.8193zM509.29 236.939l0.00976562 220.18c0 132.23 -66.3398 185.471 -174.359 185.471h-179.3v-585.49h179.3
c112.6 0 174.35 76.3096 174.35 179.84z" />
    <glyph glyph-name="Dcircumflexbelow" unicode="&#x1e12;" horiz-adv-x="640" 
d="M93.4199 46.8496v606.291c0 26.8496 20.1104 46.96 48.4805 46.96h193.07c146.38 0 237.59 -68.7305 237.59 -242.99v-220.17c0 -140.25 -85.9902 -236.91 -237.59 -236.91h-193.07c-28.3701 0 -48.4805 19.9697 -48.4805 46.8193zM509.32 236.931l0.00976562 220.18
c0 132.23 -66.3398 185.471 -174.359 185.471h-179.3v-585.49h179.3c112.6 0 174.35 76.3096 174.35 179.84zM289.53 -104.01l-69.6689 -73.9805c-5.83984 -6.15039 -14.2002 -9.49023 -22.4102 -9.49023c-6.48047 0 -12.8701 2.08008 -17.8604 6.49023
c-5.48047 4.4502 -8.37012 11.3701 -8.37012 18.3604c0 5.58008 1.83984 11.2002 5.66016 15.6406l82.0195 91c8.54004 11 23.7402 20 41.4307 20c14.0801 0 27.8496 -9 36.0801 -18l84.75 -91c4.83984 -5.55957 7.37012 -11.8799 7.37012 -18.0703
c0 -6.05957 -2.42969 -11.9893 -7.5 -16.9395c-5.33984 -4.79004 -12.3799 -7.52051 -19.5703 -7.52051c-7.82031 0 -15.8203 3.21973 -21.9902 10.5098l-68.71 73c-3.41992 3 -6.62988 5 -10.5898 5s-7.19043 -2 -10.6406 -5z" />
    <glyph glyph-name="Dcroat" unicode="&#x110;" horiz-adv-x="640" 
d="M205.47 927.17l229.86 -0.00976562c15.6201 0 27.1904 -10.6602 27.1904 -29.1201c0 -17.1602 -10.96 -28.6797 -27.1904 -28.6797h-229.86c-16.0703 0 -27.9404 11.6299 -27.9404 28.6797c0 18.3604 12.46 29.1299 27.9404 29.1299zM93.4102 46.8301v606.291
c0 26.8496 20.1104 46.96 48.4805 46.96h193.07c146.38 0 237.59 -68.7305 237.59 -242.99v-220.17c0 -140.25 -85.9902 -236.91 -237.59 -236.91h-193.07c-28.3701 0 -48.4805 19.9697 -48.4805 46.8193zM509.311 236.911l0.00976562 220.18
c0 132.23 -66.3398 185.471 -174.359 185.471h-179.3v-585.49h179.3c112.6 0 174.35 76.3096 174.35 179.84z" />
    <glyph glyph-name="Ddotbelow" unicode="&#x1e0c;" horiz-adv-x="640" 
d="M93.4199 46.8496v606.291c0 26.8496 20.1104 46.96 48.4805 46.96h193.07c146.38 0 237.59 -68.7305 237.59 -242.99v-220.17c0 -140.25 -85.9902 -236.91 -237.59 -236.91h-193.07c-28.3701 0 -48.4805 19.9697 -48.4805 46.8193zM509.32 236.931l0.00976562 220.18
c0 132.23 -66.3398 185.471 -174.359 185.471h-179.3v-585.49h179.3c112.6 0 174.35 76.3096 174.35 179.84zM270.061 -112.01l-0.00976562 27c0 16 10.4297 28 28.3799 28c17.1602 0 29.4297 -11 29.4297 -28v-27c0 -15 -11.8701 -27 -29.4199 -27
c-18.3604 0 -28.3799 12 -28.3799 27z" />
    <glyph glyph-name="Dlinebelow" unicode="&#x1e0e;" horiz-adv-x="640" 
d="M93.4199 46.8496v606.291c0 26.8496 20.1104 46.96 48.4805 46.96h193.07c146.38 0 237.59 -68.7305 237.59 -242.99v-220.17c0 -140.25 -85.9902 -236.91 -237.59 -236.91h-193.07c-28.3701 0 -48.4805 19.9697 -48.4805 46.8193zM509.32 236.931l0.00976562 220.18
c0 132.23 -66.3398 185.471 -174.359 185.471h-179.3v-585.49h179.3c112.6 0 174.35 76.3096 174.35 179.84zM206.21 -84.0098h202.57c15.6201 0 27.1904 -11 27.1904 -29c0 -17 -10.96 -29 -27.1904 -29h-202.57c-16.0703 0 -27.9404 12 -27.9404 29
c0 19 12.46 29 27.9404 29z" />
    <glyph glyph-name="E" unicode="E" horiz-adv-x="562" 
d="M93.4199 46.8496v606.299c0 27.0498 20.9697 46.96 48.79 46.96h340.23c21.2695 0 33.25 -13.3203 33.25 -29.75c0 -16.5596 -12.25 -29.4395 -31.2803 -29.4395h-328.44v-247.62h268.91c19.8398 0 33.2598 -12.9004 33.2598 -29.4404
c0 -17.5996 -13.6797 -30.0596 -31.2695 -30.0596h-270.89v-274.72h326.46c21.0996 0 33.2598 -12.8799 33.2598 -29.4395c0 -16.4297 -12.0801 -29.6094 -31.2803 -29.6094h-342.21c-27.8203 0 -48.79 19.7695 -48.79 46.8193z" />
    <glyph glyph-name="Eacute" unicode="&#xc9;" horiz-adv-x="562" 
d="M206.35 834.96l150.688 71.7012c4.4502 2.12012 8.87988 3.08984 13.0898 3.08984c10.7402 0 20.0898 -6.30957 24.8594 -16.0596c1.98047 -4.05957 2.94043 -8.00977 2.94043 -11.7793c0 -10.7002 -7.71973 -19.96 -21.6494 -26.3604l-144.6 -67.1104
c-5.38965 -2.48047 -10.9395 -3.77051 -16.209 -3.77051c-9.7998 0 -18.6396 4.46973 -23.6797 14.0596c-1.96973 3.63965 -2.9502 7.55957 -2.9502 11.4795c0 9.59961 5.87988 19.2197 17.5098 24.75zM93.4082 46.8613v606.299c0 27.0498 20.9697 46.96 48.79 46.96h340.23
c21.2695 0 33.25 -13.3203 33.25 -29.75c0 -16.5596 -12.25 -29.4395 -31.2803 -29.4395h-328.44v-247.62h268.91c19.8398 0 33.2598 -12.9004 33.2598 -29.4404c0 -17.5996 -13.6797 -30.0596 -31.2695 -30.0596h-270.89v-274.72h326.46
c21.0996 0 33.2598 -12.8799 33.2598 -29.4395c0 -16.4297 -12.0801 -29.6094 -31.2803 -29.6094h-342.21c-27.8203 0 -48.79 19.7695 -48.79 46.8193z" />
    <glyph glyph-name="Ecaron" unicode="&#x11a;" horiz-adv-x="562" 
d="M252.2 778.51l-82.0488 91.5889c-3.82031 4.30957 -5.66016 9.75977 -5.66016 15.2295c0 6.86035 2.88965 13.7607 8.37012 18.5205c5.12012 4.48047 11.71 6.6709 18.3604 6.6709c8.0498 0 16.1895 -3.21973 21.9092 -9.48926l69.7002 -74.0898
c3.4502 -3.69043 6.66992 -5.28027 10.6299 -5.26074c3.95996 0.00976562 7.16992 1.62012 10.5898 5.32031l68.71 73.2598c6.2002 7.04004 14.2305 10.2998 22.0801 10.2998c7.16016 0 14.1699 -2.71973 19.4902 -7.76953c5.07031 -4.7998 7.5 -10.5898 7.5 -16.5898
c0 -6.12988 -2.53027 -12.4697 -7.37012 -18.1797l-84.75 -90.8701c-8.23047 -9.83008 -22 -18.1104 -36.0801 -18.1104c-17.6904 0 -32.8906 8.91016 -41.4307 19.4697zM93.3916 46.8584l-0.00976562 606.299c0 27.0498 20.9697 46.96 48.79 46.96h340.23
c21.2695 0 33.25 -13.3203 33.25 -29.75c0 -16.5596 -12.25 -29.4395 -31.2803 -29.4395h-328.44v-247.62h268.91c19.8398 0 33.2598 -12.9004 33.2598 -29.4404c0 -17.5996 -13.6797 -30.0596 -31.2695 -30.0596h-270.89v-274.72h326.46
c21.0996 0 33.2598 -12.8799 33.2598 -29.4395c0 -16.4297 -12.0703 -29.6094 -31.2705 -29.6094h-342.21c-27.8203 0 -48.79 19.7695 -48.79 46.8193z" />
    <glyph glyph-name="uni0228" unicode="&#x228;" horiz-adv-x="562" 
d="M155.97 59.0801l326.46 -0.0107422c21.0996 0 33.2598 -12.8799 33.2598 -29.4395c0 -16.4297 -12.0703 -29.6094 -31.2705 -29.6094h-205.48v-36.0303c52.1602 0 68.46 -18 68.46 -68c0 -55 -25.8896 -75 -80.3994 -75h-32.1104c-12.8398 0 -19.5801 8 -19.5801 18
c0 11 6.92969 19 17.4199 19h32.8604c28.5098 0 31.54 14 31.54 38c0 22 -3.20996 35 -31.1299 35c-18.8604 1 -27.96 13 -27.96 32v37.0303h-95.8398c-27.8203 0 -48.79 19.7695 -48.79 46.8193v606.31c0 27.0498 20.9697 46.96 48.79 46.96h340.23
c21.2695 0 33.25 -13.3203 33.25 -29.75c0 -16.5596 -12.25 -29.4395 -31.2803 -29.4395h-328.44v-247.62h268.91c19.8398 0 33.2598 -12.9004 33.2598 -29.4404c0 -17.5996 -13.6797 -30.0596 -31.2695 -30.0596h-270.89v-274.72z" />
    <glyph glyph-name="Ecircumflex" unicode="&#xca;" horiz-adv-x="562" 
d="M282.85 850.78l-69.6709 -74.0811c-5.71973 -6.26953 -13.8594 -9.48926 -21.9092 -9.48926c-6.65039 0 -13.2402 2.19043 -18.3604 6.6709c-5.48047 4.75977 -8.37012 11.6602 -8.37012 18.5205c0 5.46973 1.83984 10.9199 5.66016 15.2295l82.0195 91.5801
c8.54004 10.5596 23.7402 19.4697 41.4307 19.4697c14.0801 0 27.8496 -8.28027 36.0801 -18.1104l84.75 -90.8701c4.83984 -5.70996 7.37012 -12.0498 7.37012 -18.1797c0 -6 -2.42969 -11.79 -7.5 -16.5898c-5.32031 -5.0498 -12.3301 -7.76953 -19.4902 -7.76953
c-7.84961 0 -15.8799 3.25977 -22.0801 10.2998l-68.71 73.2598c-3.41992 3.7002 -6.62988 5.31055 -10.5898 5.33008c-3.95996 0.00976562 -7.17969 -1.58008 -10.6299 -5.27051zM93.4385 46.8496v606.299c0 27.0498 20.9697 46.96 48.79 46.96h340.23
c21.2695 0 33.25 -13.3203 33.25 -29.75c0 -16.5596 -12.25 -29.4395 -31.2803 -29.4395h-328.44v-247.62h268.91c19.8398 0 33.2598 -12.9004 33.2598 -29.4404c0 -17.5996 -13.6797 -30.0596 -31.2695 -30.0596h-270.89v-274.72h326.46
c21.0996 0 33.2598 -12.8799 33.2598 -29.4395c0 -16.4297 -12.0801 -29.6094 -31.2803 -29.6094h-342.21c-27.8203 0 -48.79 19.7695 -48.79 46.8193z" />
    <glyph glyph-name="Ecircumflexdotbelow" unicode="&#x1ec6;" horiz-adv-x="562" 
d="M282.85 850.78l-69.6709 -74.0811c-5.71973 -6.26953 -13.8594 -9.48926 -21.9092 -9.48926c-6.65039 0 -13.2402 2.19043 -18.3604 6.6709c-5.48047 4.75977 -8.37012 11.6602 -8.37012 18.5205c0 5.46973 1.83984 10.9199 5.66016 15.2295l82.0195 91.5801
c8.54004 10.5596 23.7402 19.4697 41.4307 19.4697c14.0801 0 27.8496 -8.28027 36.0801 -18.1104l84.75 -90.8701c4.83984 -5.70996 7.37012 -12.0498 7.37012 -18.1797c0 -6 -2.42969 -11.79 -7.5 -16.5898c-5.32031 -5.0498 -12.3301 -7.76953 -19.4902 -7.76953
c-7.84961 0 -15.8799 3.25977 -22.0801 10.2998l-68.71 73.2598c-3.41992 3.7002 -6.62988 5.31055 -10.5898 5.33008c-3.95996 0.00976562 -7.17969 -1.58008 -10.6299 -5.27051zM93.4385 46.8496v606.299c0 27.0498 20.9697 46.96 48.79 46.96h340.23
c21.2695 0 33.25 -13.3203 33.25 -29.75c0 -16.5596 -12.25 -29.4395 -31.2803 -29.4395h-328.44v-247.62h268.91c19.8398 0 33.2598 -12.9004 33.2598 -29.4404c0 -17.5996 -13.6797 -30.0596 -31.2695 -30.0596h-270.89v-274.72h326.46
c21.0996 0 33.2598 -12.8799 33.2598 -29.4395c0 -16.4297 -12.0801 -29.6094 -31.2803 -29.6094h-342.21c-27.8203 0 -48.79 19.7695 -48.79 46.8193zM270.078 -112.002l-0.00976562 27c0 16 10.4297 28 28.3799 28c17.1602 0 29.4297 -11 29.4297 -28v-27
c0 -15 -11.8701 -27 -29.4199 -27c-18.3604 0 -28.3799 12 -28.3799 27z" />
    <glyph glyph-name="Edieresis" unicode="&#xcb;" horiz-adv-x="562" 
d="M340.75 852.42l0.000976562 27.3008c0 16.25 10.8896 27.9404 28.3799 27.9404c17.2998 0 29.1299 -11.8203 29.1299 -27.9404v-27.2998c0 -15.4502 -11.4297 -27.1904 -29.1299 -27.1904c-17.9004 0 -28.3809 11.5898 -28.3809 27.1895zM188.501 852.421
l-0.00976562 27.2998c0 16.3701 11.3398 27.9404 28.3799 27.9404c17.5996 0 29.4297 -11.8203 29.4297 -27.9404v-27.29c0 -15.46 -11.4297 -27.2002 -29.4199 -27.2002c-17.4502 0 -28.3799 11.4805 -28.3799 27.1904zM93.4111 46.8604v606.299
c0 27.0498 20.9697 46.96 48.79 46.96h340.23c21.2695 0 33.25 -13.3203 33.25 -29.75c0 -16.5596 -12.25 -29.4395 -31.2803 -29.4395h-328.44v-247.62h268.91c19.8398 0 33.2598 -12.9004 33.2598 -29.4404c0 -17.5996 -13.6797 -30.0596 -31.2695 -30.0596h-270.89
v-274.72h326.46c21.0996 0 33.2598 -12.8799 33.2598 -29.4395c0 -16.4297 -12.0801 -29.6094 -31.2803 -29.6094h-342.21c-27.8203 0 -48.79 19.7695 -48.79 46.8193z" />
    <glyph glyph-name="Edotaccent" unicode="&#x116;" horiz-adv-x="562" 
d="M264.47 852.67l-0.00976562 27.3008c0 16.1299 10.4297 27.9395 28.3799 27.9395c17.1602 0 29.4297 -11.71 29.4297 -27.9404v-27.29c0 -15.5703 -11.8701 -27.2002 -29.4199 -27.2002c-18.3604 0 -28.3799 11.71 -28.3799 27.1904zM93.4004 46.8506v606.299
c0 27.0498 20.9697 46.96 48.79 46.96h340.23c21.2695 0 33.25 -13.3203 33.25 -29.75c0 -16.5596 -12.25 -29.4395 -31.2803 -29.4395h-328.44v-247.62h268.91c19.8398 0 33.2598 -12.9004 33.2598 -29.4404c0 -17.5996 -13.6797 -30.0596 -31.2695 -30.0596h-270.89
v-274.72h326.46c21.0996 0 33.2598 -12.8799 33.2598 -29.4395c0 -16.4297 -12.0801 -29.6094 -31.2803 -29.6094h-342.21c-27.8203 0 -48.79 19.7695 -48.79 46.8193z" />
    <glyph glyph-name="Edotbelow" unicode="&#x1eb8;" horiz-adv-x="562" 
d="M93.4199 46.8496v606.299c0 27.0498 20.9697 46.96 48.79 46.96h340.23c21.2695 0 33.25 -13.3203 33.25 -29.75c0 -16.5596 -12.25 -29.4395 -31.2803 -29.4395h-328.44v-247.62h268.91c19.8398 0 33.2598 -12.9004 33.2598 -29.4404
c0 -17.5996 -13.6797 -30.0596 -31.2695 -30.0596h-270.89v-274.72h326.46c21.0996 0 33.2598 -12.8799 33.2598 -29.4395c0 -16.4297 -12.0801 -29.6094 -31.2803 -29.6094h-342.21c-27.8203 0 -48.79 19.7695 -48.79 46.8193zM270.06 -112.002l-0.00976562 27
c0 16 10.4297 28 28.3799 28c17.1602 0 29.4297 -11 29.4297 -28v-27c0 -15 -11.8701 -27 -29.4199 -27c-18.3604 0 -28.3799 12 -28.3799 27z" />
    <glyph glyph-name="Egrave" unicode="&#xc8;" horiz-adv-x="562" 
d="M355.07 788.43l-148.441 68.8506c-10.5703 4.87012 -17.7803 14.2002 -17.7803 24.7803c0 3.75977 0.910156 7.67969 2.91016 11.6094c4.50977 9.83008 13.9199 16.0801 24.7002 16.0801c4.26953 0 8.75977 -0.980469 13.2402 -3.11035l150.7 -71.6904
c11.96 -5.69043 17.3301 -15.6406 17.3301 -25.0205c0 -3.95996 -0.959961 -7.82031 -2.78027 -11.21c-5.05957 -9.63965 -13.6299 -14.1992 -23.3896 -14.1992c-5.26953 0 -10.8896 1.33008 -16.4893 3.91016zM93.3984 46.8301v606.299
c0 27.0498 20.9697 46.96 48.79 46.96h340.23c21.2695 0 33.25 -13.3203 33.25 -29.75c0 -16.5596 -12.25 -29.4395 -31.2803 -29.4395h-328.44v-247.62h268.91c19.8398 0 33.2598 -12.9004 33.2598 -29.4404c0 -17.5996 -13.6797 -30.0596 -31.2695 -30.0596h-270.89
v-274.72h326.46c21.0996 0 33.2598 -12.8799 33.2598 -29.4395c0 -16.4297 -12.0801 -29.6094 -31.2803 -29.6094h-342.21c-27.8203 0 -48.79 19.7695 -48.79 46.8193z" />
    <glyph glyph-name="Emacron" unicode="&#x112;" horiz-adv-x="562" 
d="M193.86 931.15h202.57c15.6201 0 27.1904 -10.6602 27.1904 -29.1201c0 -17.1602 -10.96 -28.6797 -27.1904 -28.6797h-202.57c-16.0703 0 -27.9404 11.6299 -27.9404 28.6699c0 18.3604 12.46 29.1299 27.9404 29.1299zM93.4111 46.8408v606.299
c0 27.0498 20.9697 46.96 48.79 46.96h340.23c21.2695 0 33.25 -13.3203 33.25 -29.75c0 -16.5596 -12.25 -29.4395 -31.2803 -29.4395h-328.44v-247.62h268.91c19.8398 0 33.2598 -12.9004 33.2598 -29.4404c0 -17.5996 -13.6797 -30.0596 -31.2695 -30.0596h-270.89
v-274.72h326.46c21.0996 0 33.2598 -12.8799 33.2598 -29.4395c0 -16.4297 -12.0801 -29.6094 -31.2803 -29.6094h-342.21c-27.8203 0 -48.79 19.7695 -48.79 46.8193z" />
    <glyph glyph-name="Eogonek" unicode="&#x118;" horiz-adv-x="562" 
d="M155.97 59.0801l326.443 -0.0214844c21.0996 0 33.2598 -12.8799 33.2598 -29.4395c0 -16.4297 -12.0703 -29.6094 -31.2705 -29.6094h-63.8203c-18.8604 -26.0996 -29.6006 -52.8398 -29.6006 -74.29c0 -4.87988 0.549805 -9.47949 1.68945 -13.7393
c3.20996 -12.5996 15.7002 -22.6797 29.1406 -22.6797c8.95996 0 18.3398 4.48047 25.6797 15.6807c4.88965 8.7998 8.64941 12.1797 16.6191 12.1797c1.08008 0 2.24023 -0.0595703 3.49023 -0.179688c8.7998 -1.66992 15.3193 -7.54004 15.3193 -15.2598
c0 -1.50977 -0.25 -3.08984 -0.780273 -4.72949c-10.96 -29.5703 -36.96 -43.4102 -62.4404 -43.4102c-30.54 0 -60.3398 19.8799 -62.6201 56.3994c-0.259766 2.67969 -0.389648 5.33984 -0.389648 7.97949c0 34.7402 21.79 65.2998 37.1797 82.0596h-251.67
c-27.8203 0 -48.79 19.7695 -48.79 46.8193v606.31c0 27.0498 20.9697 46.96 48.79 46.96h340.23c21.2695 0 33.25 -13.3203 33.25 -29.75c0 -16.5596 -12.25 -29.4395 -31.2803 -29.4395h-328.44v-247.62h268.91c19.8398 0 33.2598 -12.9004 33.2598 -29.4404
c0 -17.5996 -13.6797 -30.0596 -31.2695 -30.0596h-270.89v-274.72z" />
    <glyph glyph-name="Etilde" unicode="&#x1ebc;" horiz-adv-x="562" 
d="M233.35 887.93c36.1797 1.62988 54.5693 -13.2197 71.1494 -26.8398c16.7598 -13.7998 32.3799 -28.3398 57.21 -26.3594c14.4004 1.15039 32.46 16.2207 45.9902 28.3203c4.25 4.49023 9.87988 6.39062 15.6104 6.39062c7.90039 0 16 -3.59961 20.9902 -8.95996
c4.36035 -4.67969 6.64062 -10.9492 6.64062 -17.3389c0 -6.36035 -2.25977 -12.8408 -6.96973 -17.9912c-16.8096 -15.9805 -54.0996 -44.25 -81.0898 -46.0703c-36.1104 -2.58008 -55.6602 15.1602 -76.4199 31.6201c-14.1699 11.4902 -28.9004 23.4902 -47.1602 23.4902
c-2.19043 0 -4.43066 -0.169922 -6.73047 -0.540039c-17.0801 -2.62988 -35.46 -14.7295 -52.5898 -29.5996c-5.51953 -4.37988 -11.2598 -6.13965 -16.6602 -6.13965c-7.71973 0 -14.7598 3.58984 -19.4902 8.26953c-5.62988 5.55957 -7.95996 11.4893 -7.95996 17.249
c0 7.96973 4.48047 15.6094 10.8604 21.4893c26.6299 23.54 56.8496 41.8096 86.6191 43.0098zM93.3994 46.8604l-0.00976562 606.299c0 27.0498 20.9697 46.96 48.79 46.96h340.23c21.2695 0 33.25 -13.3203 33.25 -29.75c0 -16.5596 -12.25 -29.4395 -31.2803 -29.4395
h-328.44v-247.62h268.91c19.8398 0 33.2598 -12.9004 33.2598 -29.4404c0 -17.5996 -13.6797 -30.0596 -31.2695 -30.0596h-270.89v-274.72h326.46c21.0996 0 33.2598 -12.8799 33.2598 -29.4395c0 -16.4297 -12.0703 -29.6094 -31.2705 -29.6094h-342.21
c-27.8203 0 -48.79 19.7695 -48.79 46.8193z" />
    <glyph glyph-name="F" unicode="F" horiz-adv-x="562" 
d="M426.86 333.8l-270.909 -0.000976562v-302.18c0 -18.7803 -13.04 -31.5898 -31.2705 -31.5898s-31.2705 12.9004 -31.2705 29.6104v623.51c0 27.0498 20.9697 46.96 48.79 46.96h340.23c21.2695 0 33.25 -13.3203 33.25 -29.75
c0 -16.5596 -12.25 -29.4395 -31.2803 -29.4395h-328.44v-247.62h268.91c19.8398 0 33.2598 -12.9004 33.2598 -29.4404c0 -17.5996 -13.6797 -30.0596 -31.2695 -30.0596z" />
    <glyph glyph-name="G" unicode="G" horiz-adv-x="643" 
d="M497.85 302.06l-113.521 0.0107422c-19.5996 0 -32.2695 13.9697 -32.2695 28.7598c0 14.7402 14.0303 28.7598 30.29 28.7598h129.27c28.4902 0 48.7803 -20.8203 48.7803 -47.2607v-265.47c0 -26.9502 -20.54 -46.8203 -48.7803 -46.8203h-205.63
c-151.6 0 -237.59 96.6602 -237.59 236.91v220.17c0 174.26 91.21 242.99 237.59 242.99h189.42c15.8096 0 30.29 -13.9102 30.29 -28.7598s-14.4805 -28.7598 -30.29 -28.7598h-189.42c-108.02 0 -174.359 -53.2402 -174.359 -185.471v-220.17
c0 -103.53 61.75 -179.84 174.35 -179.84h191.87v244.95z" />
    <glyph glyph-name="Gbreve" unicode="&#x11e;" horiz-adv-x="643" 
d="M352.35 791.29l-61.3086 0.00195312c-57.8701 0 -103.17 45.29 -103.17 101.68c0 13.5098 10.3301 26.8193 27.2598 26.8193c15.71 0 28.2998 -13.1104 28.2998 -26.8203c0 -29.8604 22.9502 -52.3906 51.1201 -52.3906h55.1396
c27.5098 0 49.4795 22.9297 50.2793 50.7598c0 17.2598 11.7402 28.4502 27.5498 28.4502c15.8799 0 28 -13.2197 28 -26.8096c0 -56.54 -47.4297 -101.69 -103.17 -101.69zM497.841 302.052l-113.521 0.0107422c-19.5996 0 -32.2695 13.9697 -32.2695 28.7598
c0 14.7402 14.0303 28.7598 30.29 28.7598h129.27c28.4902 0 48.7803 -20.8203 48.7803 -47.2607v-265.47c0 -26.9502 -20.54 -46.8203 -48.7803 -46.8203h-205.63c-151.6 0 -237.59 96.6602 -237.59 236.91v220.17c0 174.26 91.21 242.99 237.59 242.99h189.42
c15.8096 0 30.29 -13.9102 30.29 -28.7598s-14.4805 -28.7598 -30.29 -28.7598h-189.42c-108.02 0 -174.359 -53.2402 -174.359 -185.471v-220.17c0 -103.53 61.75 -179.84 174.35 -179.84h191.87v244.95z" />
    <glyph glyph-name="Gcaron" unicode="&#x1e6;" horiz-adv-x="643" 
d="M280.52 774.53l-82.0293 91.5889c-3.82031 4.30957 -5.66016 9.75977 -5.66016 15.2295c0 6.86035 2.88965 13.7607 8.37012 18.5205c5.12012 4.48047 11.71 6.6709 18.3604 6.6709c8.0498 0 16.1895 -3.21973 21.9092 -9.48926l69.7002 -74.0898
c3.4502 -3.69043 6.66992 -5.28027 10.6299 -5.26074c3.9502 0.00976562 7.16016 1.62012 10.5801 5.32031l68.71 73.2598c6.2002 7.04004 14.2305 10.2998 22.0801 10.2998c7.16016 0 14.1699 -2.71973 19.4902 -7.76953c5.07031 -4.7998 7.5 -10.5898 7.5 -16.5898
c0 -6.12988 -2.53027 -12.4697 -7.37012 -18.1797l-84.7598 -90.8701c-8.23047 -9.83008 -22 -18.1104 -36.0801 -18.1104c-17.6904 0 -32.8906 8.91016 -41.4307 19.4697zM497.84 302.069l-113.521 0.0107422c-19.5996 0 -32.2695 13.9697 -32.2695 28.7598
c0 14.7402 14.0303 28.7598 30.29 28.7598h129.27c28.4902 0 48.7803 -20.8203 48.7803 -47.2607v-265.47c0 -26.9502 -20.54 -46.8203 -48.7803 -46.8203h-205.63c-151.6 0 -237.59 96.6602 -237.59 236.91v220.17c0 174.26 91.21 242.99 237.59 242.99h189.42
c15.8096 0 30.29 -13.9102 30.29 -28.7598s-14.4805 -28.7598 -30.29 -28.7598h-189.42c-108.02 0 -174.359 -53.2402 -174.359 -185.471v-220.17c0 -103.53 61.75 -179.84 174.35 -179.84h191.87v244.95z" />
    <glyph glyph-name="Gcommaaccent" unicode="&#x122;" horiz-adv-x="643" 
d="M497.85 302.06l-113.521 0.0107422c-19.5996 0 -32.2695 13.9697 -32.2695 28.7598c0 14.7402 14.0303 28.7598 30.29 28.7598h129.27c28.4902 0 48.7803 -20.8203 48.7803 -47.2607v-265.47c0 -26.9502 -20.54 -46.8203 -48.7803 -46.8203h-205.63
c-151.6 0 -237.59 96.6602 -237.59 236.91v220.17c0 174.26 91.21 242.99 237.59 242.99h189.42c15.8096 0 30.29 -13.9102 30.29 -28.7598s-14.4805 -28.7598 -30.29 -28.7598h-189.42c-108.02 0 -174.359 -53.2402 -174.359 -185.471v-220.17
c0 -103.53 61.75 -179.84 174.35 -179.84h191.87v244.95zM327.569 -120.989l0.00976562 57.0088c0 15 9.91016 26 25.5898 26c14.6396 0 26.5195 -12 26.5195 -26v-63c0 -35 -29.7695 -60 -56.3896 -67c-14.5996 -2 -25.5693 7 -27.0195 20
c-0.240234 1.15039 -0.370117 2.30078 -0.370117 3.45117c0 5.82031 3.24023 11.5303 11.8701 16.54c10.2803 6 19.79 18 19.79 33z" />
    <glyph glyph-name="Gdotaccent" unicode="&#x120;" horiz-adv-x="643" 
d="M292.8 848.69l-0.00976562 27.3008c0 16.1299 10.4297 27.9395 28.3799 27.9395c17.1602 0 29.4297 -11.71 29.4297 -27.9404v-27.29c0 -15.5703 -11.8701 -27.2002 -29.4199 -27.2002c-18.3604 0 -28.3799 11.71 -28.3799 27.1904zM497.84 302.062l-113.521 0.0107422
c-19.5996 0 -32.2695 13.9697 -32.2695 28.7598c0 14.7402 14.0303 28.7598 30.29 28.7598h129.27c28.4902 0 48.7803 -20.8203 48.7803 -47.2607v-265.47c0 -26.9502 -20.54 -46.8203 -48.7803 -46.8203h-205.63c-151.6 0 -237.59 96.6602 -237.59 236.91v220.17
c0 174.26 91.21 242.99 237.59 242.99h189.42c15.8096 0 30.29 -13.9102 30.29 -28.7598s-14.4805 -28.7598 -30.29 -28.7598h-189.42c-108.02 0 -174.359 -53.2402 -174.359 -185.471v-220.17c0 -103.53 61.75 -179.84 174.35 -179.84h191.87v244.95z" />
    <glyph glyph-name="H" unicode="H" horiz-adv-x="687" 
d="M531.47 379.75v290.601c0 16.71 13.04 29.75 31.5801 29.75c17.7598 0 31.2695 -12.8096 31.2695 -31.7197v-636.76c0 -18.9199 -13.5098 -31.5898 -31.2695 -31.5898c-18.54 0 -31.5801 12.9004 -31.5801 29.6104v292.59h-375.51v-290.61
c0 -18.7803 -13.04 -31.5898 -31.2705 -31.5898c-17.7598 0 -31.2695 12.7695 -31.2695 29.6094v640.72c0 16.8398 13.5098 29.75 31.2695 29.75c18.2305 0 31.2705 -12.9502 31.2705 -31.7305v-288.63h375.51z" />
    <glyph glyph-name="Hbar" unicode="&#x126;" horiz-adv-x="755" 
d="M629.02 565.39l77.2188 -0.00683594c18.1904 0 29.6709 -12.3496 29.6709 -28.8301c0 -16.8604 -11.25 -28.7607 -29.6797 -28.7607h-77.21v-476.17c0 -18.9199 -13.5098 -31.5898 -31.2695 -31.5898c-18.54 0 -31.5801 12.9004 -31.5801 29.6104v292.59h-375.51v-290.61
c0 -18.7803 -13.04 -31.5898 -31.2705 -31.5898c-17.7598 0 -31.2695 12.7695 -31.2695 29.6094v478.13h-76.8701c-11.4102 0.469727 -31.21 7.20996 -31.21 29.7695c0 14.1602 12.4004 27.8398 30.6699 27.8398h77.4102v104.97c0 16.8398 13.5098 29.75 31.2695 29.75
c18.2305 0 31.2705 -12.9502 31.2705 -31.7305v-102.99h375.51v104.97c0 16.71 13.04 29.75 31.5801 29.75c17.7598 0 31.2695 -12.8096 31.2695 -31.7197v-102.99zM566.168 379.743v128.02h-375.51v-128.02h375.51z" />
    <glyph glyph-name="Hdotbelow" unicode="&#x1e24;" horiz-adv-x="687" 
d="M531.47 379.75v290.601c0 16.71 13.04 29.75 31.5801 29.75c17.7598 0 31.2695 -12.8096 31.2695 -31.7197v-636.76c0 -18.9199 -13.5098 -31.5898 -31.2695 -31.5898c-18.54 0 -31.5801 12.9004 -31.5801 29.6104v292.59h-375.51v-290.61
c0 -18.7803 -13.04 -31.5898 -31.2705 -31.5898c-17.7598 0 -31.2695 12.7695 -31.2695 29.6094v640.72c0 16.8398 13.5098 29.75 31.2695 29.75c18.2305 0 31.2705 -12.9502 31.2705 -31.7305v-288.63h375.51zM318.42 -112.01l-0.00976562 27c0 16 10.4297 28 28.3799 28
c17.1602 0 29.4297 -11 29.4297 -28v-27c0 -15 -11.8701 -27 -29.4199 -27c-18.3604 0 -28.3799 12 -28.3799 27z" />
    <glyph glyph-name="I" unicode="I" horiz-adv-x="248" 
d="M93.4199 29.6396v640.72c0 16.71 13.04 29.75 31.2705 29.75s31.2705 -12.9502 31.2705 -31.7305v-636.76c0 -18.7803 -13.04 -31.5898 -31.2705 -31.5898s-31.2705 12.9004 -31.2705 29.6104z" />
    <glyph glyph-name="IJ" unicode="&#x132;" horiz-adv-x="573" 
d="M481.16 668.38l0.0205078 -484.34c0.139648 -175.84 -52.79 -184.01 -163.22 -184.01c-20.5703 0 -32.2705 14.0996 -32.2705 28.6191c0 14.6104 13.2598 28.4502 30.2793 28.4502c86.79 0 100.28 3.87988 101.65 136.22v477.04c0 16.8398 13.5098 29.75 31.2695 29.75
c18.71 0 31.2803 -13.0898 32.2705 -31.7295zM93.4307 29.6504v640.72c0 16.71 13.04 29.75 31.2705 29.75s31.2705 -12.9502 31.2705 -31.7305v-636.76c0 -18.7803 -13.04 -31.5898 -31.2705 -31.5898s-31.2705 12.9004 -31.2705 29.6104z" />
    <glyph glyph-name="Iacute" unicode="&#xcd;" horiz-adv-x="248" 
d="M37.6201 834.96l150.699 71.7012c4.4502 2.12012 8.87988 3.08984 13.0898 3.08984c10.7305 0 20.0801 -6.30957 24.8496 -16.0596c1.98047 -4.05957 2.94043 -8.00977 2.94043 -11.7793c0 -10.7002 -7.71973 -19.96 -21.6494 -26.3604l-144.6 -67.1104
c-5.38965 -2.48047 -10.9395 -3.77051 -16.209 -3.77051c-9.7998 0 -18.6396 4.46973 -23.6797 14.0596c-1.98047 3.63965 -2.96094 7.55957 -2.96094 11.4795c0 9.59961 5.88965 19.2197 17.5195 24.75zM93.4297 29.6514v640.72c0 16.71 13.04 29.75 31.2705 29.75
s31.2705 -12.9502 31.2705 -31.7305v-636.76c0 -18.7803 -13.04 -31.5898 -31.2705 -31.5898s-31.2705 12.9004 -31.2705 29.6104z" />
    <glyph glyph-name="Icaron" unicode="&#x1cf;" horiz-adv-x="248" 
d="M83.4697 778.51l-81.8994 91.5996c-3.88965 4.38965 -5.81934 9.96973 -5.81934 15.5498c0 6.75 2.82031 13.5098 8.37988 18.1895c5.12012 4.48047 11.71 6.6709 18.3604 6.6709c8.0498 0 16.1895 -3.21973 21.9092 -9.48926l69.7002 -74.0898
c3.4502 -3.69043 6.66992 -5.28027 10.6299 -5.26074c3.95996 0.00976562 7.16992 1.62012 10.5898 5.32031l68.71 73.2598c6.2002 7.04004 14.2305 10.2998 22.0801 10.2998c7.16016 0 14.1699 -2.71973 19.4902 -7.76953c5.07031 -4.7998 7.5 -10.5898 7.5 -16.5898
c0 -6.12988 -2.53027 -12.4697 -7.37012 -18.1797l-84.75 -90.8701c-8.23047 -9.83008 -22 -18.1104 -36.0801 -18.1104c-17.6904 0 -32.8906 8.91016 -41.4307 19.4697zM93.3799 29.6592v640.72c0 16.71 13.04 29.75 31.2705 29.75s31.2705 -12.9502 31.2705 -31.7305
v-636.76c0 -18.7803 -13.04 -31.5898 -31.2705 -31.5898s-31.2705 12.9004 -31.2705 29.6104z" />
    <glyph glyph-name="Icircumflex" unicode="&#xce;" horiz-adv-x="248" 
d="M114.12 850.78l-69.6904 -74.0703c-5.71973 -6.26953 -13.8496 -9.48926 -21.8994 -9.48926c-6.65039 0 -13.2402 2.19043 -18.3604 6.6709c-5.55957 4.67969 -8.37988 11.4395 -8.37988 18.1895c0 5.58008 1.92969 11.1602 5.81934 15.5498l81.8701 91.5801
c8.54004 10.5596 23.7402 19.4697 41.4307 19.4697c14.0801 0 27.8496 -8.28027 36.0801 -18.1104l84.75 -90.8701c4.83984 -5.70996 7.37012 -12.0498 7.37012 -18.1797c0 -6 -2.42969 -11.79 -7.5 -16.5898c-5.32031 -5.0498 -12.3301 -7.76953 -19.4902 -7.76953
c-7.84961 0 -15.8799 3.25977 -22.0801 10.2998l-68.71 73.2598c-3.41992 3.7002 -6.62988 5.31055 -10.5801 5.33008c-3.95996 0.00976562 -7.17969 -1.58008 -10.6299 -5.27051zM93.4199 29.6504v640.72c0 16.71 13.04 29.75 31.2705 29.75
s31.2705 -12.9502 31.2705 -31.7305v-636.76c0 -18.7803 -13.04 -31.5898 -31.2705 -31.5898s-31.2705 12.9004 -31.2705 29.6104z" />
    <glyph glyph-name="Idieresis" unicode="&#xcf;" horiz-adv-x="248" 
d="M172.01 852.42l0.0107422 27.3008c0 16.25 10.8896 27.9404 28.3799 27.9404c17.2998 0 29.1201 -11.8203 29.1201 -27.9404v-27.2998c0 -15.4502 -11.4297 -27.1904 -29.1299 -27.1904c-17.9004 0 -28.3809 11.5898 -28.3809 27.1895zM19.8604 852.421
l-0.00976562 27.2998c0 16.3701 11.25 27.9404 28.29 27.9404c17.5996 0 29.4297 -11.8203 29.4297 -27.9404v-27.29c0 -15.46 -11.4297 -27.2002 -29.4199 -27.2002c-17.4502 0 -28.29 11.4805 -28.29 27.1904zM93.4102 29.6611v640.72c0 16.71 13.04 29.75 31.2705 29.75
s31.2705 -12.9502 31.2705 -31.7305v-636.76c0 -18.7803 -13.04 -31.5898 -31.2705 -31.5898s-31.2705 12.9004 -31.2705 29.6104z" />
    <glyph glyph-name="Idieresisacute" unicode="&#x1e2e;" horiz-adv-x="248" 
d="M51.5098 898.8l150.688 71.6904c4.4502 2.12012 8.87988 3.08984 13.0898 3.08984c10.7402 0 20.0898 -6.30957 24.8594 -16.0596c1.98047 -4.05957 2.94043 -8.00977 2.94043 -11.7793c0 -10.7002 -7.71973 -19.96 -21.6494 -26.3604l-144.6 -67.1104
c-5.38965 -2.48047 -10.9395 -3.77051 -16.209 -3.77051c-9.7998 0 -18.6396 4.46973 -23.6797 14.0596c-1.96973 3.63965 -2.9502 7.55957 -2.9502 11.4795c0 9.61035 5.87988 19.2305 17.5098 24.7607zM19.8486 777.181l-0.0195312 27.29
c0 16.3701 11.25 27.9404 28.2998 27.9404c17.5996 0 29.4297 -11.8203 29.4297 -27.9404v-27.29c0 -15.4502 -11.4297 -27.1904 -29.4199 -27.1904c-17.4502 0 -28.29 11.4805 -28.29 27.1904zM171.989 777.19l0.000976562 27.2812
c0 16.25 10.8896 27.9404 28.3896 27.9404c17.2998 0 29.1201 -11.8203 29.1201 -27.9404v-27.29c0 -15.4502 -11.4297 -27.1904 -29.1299 -27.1904c-17.9004 0 -28.3809 11.5996 -28.3809 27.1992zM93.3906 29.6221v640.72c0 16.71 13.04 29.75 31.2705 29.75
s31.2705 -12.9502 31.2705 -31.7305v-636.76c0 -18.7803 -13.04 -31.5898 -31.2705 -31.5898s-31.2705 12.9004 -31.2705 29.6104z" />
    <glyph glyph-name="Idotaccent" unicode="&#x130;" horiz-adv-x="248" 
d="M95.7402 852.67l-0.0195312 27.3008c0 16.1299 10.4297 27.9395 28.3896 27.9395c17.1602 0 29.4297 -11.71 29.4297 -27.9404v-27.29c0 -15.5703 -11.8701 -27.2002 -29.4199 -27.2002c-18.3604 0 -28.3799 11.71 -28.3799 27.1904zM93.4004 29.6406v640.72
c0 16.71 13.04 29.75 31.2705 29.75s31.2705 -12.9502 31.2705 -31.7305v-636.76c0 -18.7803 -13.04 -31.5898 -31.2705 -31.5898s-31.2705 12.9004 -31.2705 29.6104z" />
    <glyph glyph-name="Idotbelow" unicode="&#x1eca;" horiz-adv-x="248" 
d="M93.4199 29.6396v640.72c0 16.71 13.04 29.75 31.2705 29.75s31.2705 -12.9502 31.2705 -31.7305v-636.76c0 -18.7803 -13.04 -31.5898 -31.2705 -31.5898s-31.2705 12.9004 -31.2705 29.6104zM95.9199 -112.001l-0.00976562 27c0 16 10.4297 28 28.3799 28
c17.1602 0 29.4297 -11 29.4297 -28v-27c0 -15 -11.8701 -27 -29.4199 -27c-18.3604 0 -28.3799 12 -28.3799 27z" />
    <glyph glyph-name="Igrave" unicode="&#xcc;" horiz-adv-x="248" 
d="M186.34 788.43l-148.441 68.8408c-10.5703 4.87012 -17.7607 14.2002 -17.7607 24.79c0 3.75977 0.910156 7.67969 2.89062 11.6094c4.50977 9.83008 13.9199 16.0801 24.7002 16.0801c4.26953 0 8.75977 -0.980469 13.2402 -3.11035l150.7 -71.6904
c11.96 -5.69043 17.3301 -15.6406 17.3301 -25.0205c0 -3.95996 -0.959961 -7.82031 -2.78027 -11.21c-5.05957 -9.63965 -13.6299 -14.1992 -23.3896 -14.1992c-5.26953 0 -10.8896 1.33008 -16.4893 3.91016zM93.4082 29.6201v640.72c0 16.71 13.04 29.75 31.2705 29.75
s31.2705 -12.9502 31.2705 -31.7305v-636.76c0 -18.7803 -13.04 -31.5898 -31.2705 -31.5898s-31.2705 12.9004 -31.2705 29.6104z" />
    <glyph glyph-name="Imacron" unicode="&#x12a;" horiz-adv-x="248" 
d="M25.1299 931.15h202.57c15.6201 0 27.1904 -10.6602 27.1904 -29.1201c0 -17.1602 -10.96 -28.6797 -27.1904 -28.6797h-202.57c-15.9805 0 -28.1309 11.6299 -28.1309 28.6699c0 18.3604 12.7305 29.1299 28.1309 29.1299zM93.4102 29.6406v640.72
c0 16.71 13.04 29.75 31.2705 29.75s31.2705 -12.9502 31.2705 -31.7305v-636.76c0 -18.7803 -13.04 -31.5898 -31.2705 -31.5898s-31.2705 12.9004 -31.2705 29.6104z" />
    <glyph glyph-name="Iogonek" unicode="&#x12e;" horiz-adv-x="248" 
d="M155.97 668.38l0.0195312 -636.77c0 -18.7803 -13.04 -31.5898 -31.2705 -31.5898c-2.57031 0 -5.04004 0.259766 -7.37988 0.75c-14.8896 -22.3096 -23.8896 -45.3994 -23.8896 -65.0195c0 -4.80957 0.540039 -9.41992 1.66992 -13.75
c3.2002 -12.5498 15.6104 -22.2402 28.9902 -22.2402c9 0 18.4404 4.38965 25.8203 15.25c4.88965 8.7998 8.64941 12.1797 16.6191 12.1797c1.08008 0 2.24023 -0.0595703 3.49023 -0.179688c8.7998 -1.66992 15.3193 -7.54004 15.3193 -15.2598
c0 -1.50977 -0.25 -3.08984 -0.780273 -4.72949c-10.96 -29.5703 -36.96 -43.4102 -62.4404 -43.4102c-30.54 0 -60.3398 19.8799 -62.6201 56.3994c-0.269531 2.75977 -0.399414 5.49023 -0.399414 8.19043c0 37.4297 24.4502 68.9297 39.9404 84.6201
c-3.57031 4.67969 -5.62988 10.5098 -5.62988 16.8193v640.72c0 16.71 13.04 29.75 31.2705 29.75s31.2705 -12.9502 31.2705 -31.7305z" />
    <glyph glyph-name="Itilde" unicode="&#x128;" horiz-adv-x="248" 
d="M64.6104 887.93c36.1699 1.62988 54.5986 -13.2119 71.1787 -26.832c16.7598 -13.7998 32.3799 -28.3398 57.21 -26.3594c14.4004 1.15039 32.46 16.2207 45.9902 28.3203c4.25 4.49023 9.87988 6.39062 15.6104 6.39062c7.90039 0 16 -3.59961 20.9902 -8.95996
c4.36035 -4.67969 6.64062 -10.9492 6.64062 -17.3389c0 -6.36035 -2.25977 -12.8408 -6.96973 -17.9912c-16.8096 -15.9805 -54.0996 -44.25 -81.0898 -46.0703c-36.1104 -2.58008 -55.6602 15.1602 -76.4297 31.6201c-14.1699 11.4902 -28.9004 23.4902 -47.1602 23.4902
c-2.19043 0 -4.43066 -0.169922 -6.73047 -0.540039c-17.0703 -2.62988 -35.4502 -14.7295 -52.8105 -29.5996c-5.37012 -4.37988 -11.0703 -6.13965 -16.4805 -6.13965c-7.71973 0 -14.8496 3.58984 -19.5596 8.26953c-5.45996 5.57031 -7.75 11.5107 -7.75 17.2705
c0 7.95996 4.36035 15.5898 10.7402 21.46c26.7305 23.54 56.8506 41.8096 86.6201 43.0098zM93.4385 29.668v640.72c0 16.71 13.04 29.75 31.2705 29.75s31.2705 -12.9502 31.2705 -31.7305v-636.76c0 -18.7803 -13.04 -31.5898 -31.2705 -31.5898
s-31.2705 12.9004 -31.2705 29.6104z" />
    <glyph glyph-name="J" unicode="J" horiz-adv-x="324" 
d="M232.21 668.38l0.0205078 -484.34c0.139648 -175.84 -52.79 -184.01 -163.22 -184.01c-20.5703 0 -32.2705 14.0996 -32.2705 28.6191c0 14.6104 13.2598 28.4502 30.2793 28.4502c86.79 0 100.28 3.87988 101.65 136.22v477.04c0 16.8398 13.5098 29.75 31.2695 29.75
c18.71 0 31.2803 -13.0898 32.2705 -31.7295z" />
    <glyph glyph-name="K" unicode="K" horiz-adv-x="566" 
d="M261.36 413.85l201.352 274.7c5.83008 8.24023 13.96 11.5605 24.3604 11.5605c18.71 0 31.2695 -13.1797 31.2695 -29.75c0 -7.12012 -2.83984 -13.2402 -7.57031 -19.7002l-227.71 -303.57l240.89 -299.55c3.40039 -4.55957 5.95996 -11.9297 5.95996 -17.8896
c0 -16.71 -13.04 -29.6104 -31.2705 -29.6104c-11.3701 0 -19.1602 4.73047 -24.1797 11.3701l-220.82 281.49c-4.92969 6.90039 -18.9492 22.9805 -27.0693 22.9805h-70.9102v-284.26c0 -18.7803 -13.04 -31.5898 -31.2705 -31.5898
c-18.9004 0 -30.9707 13.1797 -30.9707 29.6094v640.72c0 16.4297 12.0703 29.75 30.9707 29.75c18.2305 0 31.2705 -13.04 31.2705 -29.75v-293.53h65.5498c13.3496 0 30.5195 24.7695 40.1494 37.0195z" />
    <glyph glyph-name="Kcommaaccent" unicode="&#x136;" horiz-adv-x="566" 
d="M261.36 413.85l201.352 274.7c5.83008 8.24023 13.96 11.5605 24.3604 11.5605c18.71 0 31.2695 -13.1797 31.2695 -29.75c0 -7.12012 -2.83984 -13.2402 -7.57031 -19.7002l-227.71 -303.57l240.89 -299.55c3.40039 -4.55957 5.95996 -11.9297 5.95996 -17.8896
c0 -16.71 -13.04 -29.6104 -31.2705 -29.6104c-11.3701 0 -19.1602 4.73047 -24.1797 11.3701l-220.82 281.49c-4.92969 6.90039 -18.9492 22.9805 -27.0693 22.9805h-70.9102v-284.26c0 -18.7803 -13.04 -31.5898 -31.2705 -31.5898
c-18.9004 0 -30.9707 13.1797 -30.9707 29.6094v640.72c0 16.4297 12.0703 29.75 30.9707 29.75c18.2305 0 31.2705 -13.04 31.2705 -29.75v-293.53h65.5498c13.3496 0 30.5195 24.7695 40.1494 37.0195zM272.342 -121l-0.000976562 57.0088c0 15 9.91016 26 25.6006 26
c14.6396 0 26.5195 -12 26.5195 -26v-63c0 -35 -29.7695 -60 -56.3896 -67c-14.5996 -2 -25.5693 7 -27.0195 20c-0.240234 1.15039 -0.370117 2.30078 -0.370117 3.45117c0 5.82031 3.24023 11.5303 11.8701 16.54c10.2803 6 19.79 18 19.79 33z" />
    <glyph glyph-name="L" unicode="L" horiz-adv-x="521" 
d="M93.4199 46.8496v623.53c0 16.8398 13.5098 29.75 31.2695 29.75c18.54 0 31.5801 -13.04 31.5801 -29.75v-611.28h295.71c19.6602 0 33.25 -12.46 33.25 -29.4502c0 -16.8398 -13.5098 -29.6094 -31.2695 -29.6094h-311.45
c-27.7002 0 -49.0898 19.6699 -49.0898 46.8096z" />
    <glyph glyph-name="Lacute" unicode="&#x139;" horiz-adv-x="521" 
d="M173.99 830.98l150.688 71.7012c4.4502 2.12012 8.87988 3.08984 13.0898 3.08984c10.7402 0 20.0898 -6.30957 24.8594 -16.0596c1.98047 -4.05957 2.94043 -8.00977 2.94043 -11.7793c0 -10.7002 -7.71973 -19.96 -21.6494 -26.3604l-144.6 -67.1104
c-5.38965 -2.48047 -10.9395 -3.77051 -16.209 -3.77051c-9.7998 0 -18.6396 4.46973 -23.6797 14.0596c-1.96973 3.63965 -2.9502 7.55957 -2.9502 11.4795c0 9.59961 5.87988 19.2197 17.5098 24.75zM93.4092 46.8613v623.53c0 16.8398 13.5098 29.75 31.2695 29.75
c18.54 0 31.5801 -13.04 31.5801 -29.75v-611.28h295.71c19.6602 0 33.25 -12.46 33.25 -29.4502c0 -16.8398 -13.5098 -29.6094 -31.2695 -29.6094h-311.45c-27.7002 0 -49.0898 19.6699 -49.0898 46.8096z" />
    <glyph glyph-name="Lcaron" unicode="&#x13d;" horiz-adv-x="521" 
d="M93.4199 46.8496v623.53c0 16.8398 13.5098 29.75 31.2695 29.75c18.54 0 31.5801 -13.04 31.5801 -29.75v-611.28h295.71c19.6602 0 33.25 -12.46 33.25 -29.4502c0 -16.8398 -13.5098 -29.6094 -31.2695 -29.6094h-311.45
c-27.7002 0 -49.0898 19.6699 -49.0898 46.8096zM308.31 609.83v59.7705c0 15.8896 11.8096 30.4395 30.6592 30.4395c17.4697 0 31.6602 -14.7598 31.6602 -30.4395v-67.8301c0 -40.3398 -34.7197 -67.6396 -64.0596 -74.9893
c-17.4004 -1.33984 -30.5107 9.28027 -31.9609 24.5605c-0.219727 1.30957 -0.339844 2.61914 -0.339844 3.91895c0 7.2002 3.61035 14.0801 13.8105 19.1699c10.79 6.2998 20.2305 19.3896 20.2305 35.3994z" />
    <glyph glyph-name="Lcircumflexbelow" unicode="&#x1e3c;" horiz-adv-x="521" 
d="M93.4199 46.8496v623.53c0 16.8398 13.5098 29.75 31.2695 29.75c18.54 0 31.5801 -13.04 31.5801 -29.75v-611.28h295.71c19.6602 0 33.25 -12.46 33.25 -29.4502c0 -16.8398 -13.5098 -29.6094 -31.2695 -29.6094h-311.45
c-27.7002 0 -49.0898 19.6699 -49.0898 46.8096zM276.85 -103.98l-69.6895 -73.9902c-5.83984 -6.15039 -14.2002 -9.49023 -22.4102 -9.49023c-6.48047 0 -12.8701 2.08008 -17.8604 6.49023c-5.48047 4.4502 -8.37012 11.3799 -8.37012 18.3701
c0 5.58008 1.83984 11.2002 5.66016 15.6406l82.0195 91c8.54004 11 23.7402 20 41.4307 20c14.0801 0 27.8496 -9 36.0801 -18l84.75 -91c4.83984 -5.55957 7.37012 -11.8799 7.37012 -18.0703c0 -6.05957 -2.42969 -11.9893 -7.5 -16.9395
c-5.33984 -4.79004 -12.3799 -7.52051 -19.5703 -7.52051c-7.82031 0 -15.8203 3.21973 -21.9902 10.5098l-68.71 73c-3.41992 3 -6.62988 5 -10.5801 5c-3.95996 0 -7.17969 -2 -10.6299 -5z" />
    <glyph glyph-name="Lcommaaccent" unicode="&#x13b;" horiz-adv-x="521" 
d="M93.4199 46.8496v623.53c0 16.8398 13.5098 29.75 31.2695 29.75c18.54 0 31.5801 -13.04 31.5801 -29.75v-611.28h295.71c19.6602 0 33.25 -12.46 33.25 -29.4502c0 -16.8398 -13.5098 -29.6094 -31.2695 -29.6094h-311.45
c-27.7002 0 -49.0898 19.6699 -49.0898 46.8096zM274.939 -120.98l-0.000976562 57.0088c0 15 9.91016 26 25.6006 26c14.6396 0 26.5195 -12 26.5195 -26v-63c0 -35 -29.7695 -60 -56.3896 -67c-14.5996 -2 -25.5693 7 -27.0195 20
c-0.240234 1.15039 -0.370117 2.30078 -0.370117 3.45117c0 5.82031 3.24023 11.5303 11.8701 16.54c10.2803 6 19.79 18 19.79 33z" />
    <glyph glyph-name="Ldot" unicode="&#x13f;" horiz-adv-x="521" 
d="M93.4199 46.8496v623.53c0 16.8398 13.5098 29.75 31.2695 29.75c18.54 0 31.5801 -13.04 31.5801 -29.75v-611.28h295.71c19.6602 0 33.25 -12.46 33.25 -29.4502c0 -16.8398 -13.5098 -29.6094 -31.2695 -29.6094h-311.45
c-27.7002 0 -49.0898 19.6699 -49.0898 46.8096zM324.76 341.2v38.6611c0 16.04 12.7197 31.1201 32.6396 31.1201c18.3604 0 32.9502 -14.5801 32.9502 -31.1104v-36.6904c0 -19.4502 -14.8896 -33.1006 -32.9492 -33.1006c-19.6104 0 -32.6406 14.2402 -32.6406 31.1201z
" />
    <glyph glyph-name="Ldotbelow" unicode="&#x1e36;" horiz-adv-x="521" 
d="M93.4199 46.8496v623.53c0 16.8398 13.5098 29.75 31.2695 29.75c18.54 0 31.5801 -13.04 31.5801 -29.75v-611.28h295.71c19.6602 0 33.25 -12.46 33.25 -29.4502c0 -16.8398 -13.5098 -29.6094 -31.2695 -29.6094h-311.45
c-27.7002 0 -49.0898 19.6699 -49.0898 46.8096zM270.06 -111.98l-0.00976562 27c0 16 10.4297 28 28.3799 28c17.1602 0 29.4297 -11 29.4297 -28v-27c0 -15 -11.8701 -27 -29.4199 -27c-18.3604 0 -28.3799 12 -28.3799 27z" />
    <glyph glyph-name="Lslash" unicode="&#x141;" horiz-adv-x="554" 
d="M123.65 294.95l-0.0205078 375.437c0 16.8398 13.5098 29.75 31.2695 29.75c18.54 0 31.5801 -13.04 31.5801 -29.75v-333.31l115.19 112.51c6.23047 4.16016 12.5508 6.10059 18.4609 6.10059c9.00977 0 17.0801 -4.50977 22.4297 -12.5293
c3.36035 -5.07031 5.04004 -10.5107 5.04004 -15.8809c0 -9.26953 -4.99023 -18.3398 -14.9404 -25l-146.18 -134.75v-208.42h295.71c19.6602 0 33.25 -12.46 33.25 -29.4502c0 -16.8398 -13.5098 -29.6094 -31.2695 -29.6094h-311.45
c-27.7002 0 -49.0898 19.6699 -49.0898 46.8096v179.61l-38.0303 -36.7695c-5.37012 -2.59961 -10.8506 -4.11914 -16.1201 -4.11914c-8.12988 0 -15.7598 3.59961 -21.7197 12.3896c-3.05957 4.41016 -4.60938 9.54004 -4.60938 14.79
c0 9.32031 4.88965 19.0107 14.9092 25.7012z" />
    <glyph glyph-name="M" unicode="M" horiz-adv-x="802" 
d="M390.92 111.99l170.478 539.06c9.42969 28.7197 39.0498 49.0596 72.3701 49.0596c41.7598 0 75.5801 -33.8203 75.5801 -74.3604v-596.11c0 -16.5703 -12.5703 -29.6104 -31.2803 -29.6104c-18.4102 0 -30.9697 13.04 -30.9697 29.6104v591.5
c0 13.6504 -3.78027 20.1904 -10.6602 21c-7.23047 0.860352 -12.4404 -5.56934 -16.2002 -17.3193l-190.81 -597.11c-5.07031 -15.8604 -17.6602 -27.6807 -39.0098 -27.6807c-22.2998 0 -34.8701 11.6904 -39.6602 27.7705l-177.8 596.76
c-3.54004 11.9004 -8.7998 18.9102 -16.2695 17.5801c-7.05957 -1.25977 -11.04 -7.34961 -11.04 -21v-591.5c0 -16.5703 -12.5596 -29.6104 -30.9697 -29.6104c-18.71 0 -31.2695 13.04 -31.2695 29.6104v596.11c0 40.54 33.8203 74.3604 75.5801 74.3604
c34.7402 0 63 -20.4297 72.4004 -51.0693z" />
    <glyph glyph-name="Macute" unicode="&#x1e3e;" horiz-adv-x="802" 
d="M331.95 793.94l150.688 71.7012c4.4502 2.12012 8.87988 3.08984 13.0898 3.08984c10.7402 0 20.0898 -6.30957 24.8594 -16.0596c1.98047 -4.05957 2.94043 -8.00977 2.94043 -11.7793c0 -10.7002 -7.71973 -19.96 -21.6494 -26.3604l-144.6 -67.1104
c-5.38965 -2.48047 -10.9395 -3.77051 -16.209 -3.77051c-9.7998 0 -18.6396 4.46973 -23.6797 14.0596c-1.96973 3.63965 -2.9502 7.55957 -2.9502 11.4795c0 9.59961 5.87988 19.2197 17.5098 24.75zM390.919 112.002l170.499 539.06
c9.42969 28.7197 39.0498 49.0596 72.3701 49.0596c41.7598 0 75.5801 -33.8203 75.5801 -74.3604v-596.11c0 -16.5703 -12.5703 -29.6104 -31.2803 -29.6104c-18.4102 0 -30.9697 13.04 -30.9697 29.6104v591.5c0 13.6504 -3.78027 20.1904 -10.6602 21
c-7.23047 0.860352 -12.4404 -5.56934 -16.2002 -17.3193l-190.81 -597.11c-5.07031 -15.8604 -17.6602 -27.6807 -39.0098 -27.6807c-22.2998 0 -34.8701 11.6904 -39.6602 27.7705l-177.8 596.76c-3.54004 11.9004 -8.7998 18.9102 -16.2695 17.5801
c-7.07031 -1.25977 -11.0508 -7.34961 -11.0508 -21v-591.5c0 -16.5703 -12.5596 -29.6104 -30.9697 -29.6104c-18.71 0 -31.2803 13.04 -31.2803 29.6104v596.11c0 40.54 33.8203 74.3604 75.5801 74.3604c34.7402 0 63 -20.4297 72.4004 -51.0693z" />
    <glyph glyph-name="N" unicode="N" horiz-adv-x="676" 
d="M531.37 79.1504l-0.0292969 591.214c0 16.5703 12.5703 29.75 31.2803 29.75c18.4102 0 30.9697 -13.1797 30.9697 -29.75v-593.44c0 -43.0703 -33.5 -76.8906 -78.25 -76.8906c-31.2803 0 -59.4707 18.4297 -71.5205 44.8799l-264.97 581.46
c-4.94043 10.8398 -11.2002 16.7998 -20.04 15.7695c-8.2998 -0.969727 -12.8594 -7.34961 -12.8594 -21v-591.5c0 -16.71 -13.04 -29.6104 -31.2705 -29.6104c-17.7598 0 -31.2695 12.7695 -31.2695 29.6094v593.44c0 43.1396 33.8896 77.0293 78.8594 77.0293
c31.3799 0 59.1797 -18.6504 71.2393 -45.0508l265.48 -581.16c4.9502 -10.8301 11.1299 -17.0498 19.79 -15.75c8.08984 1.21973 12.5898 7.34961 12.5898 21z" />
    <glyph glyph-name="Nacute" unicode="&#x143;" horiz-adv-x="676" 
d="M251.69 830.98l150.688 71.7012c4.4502 2.12012 8.87988 3.08984 13.0898 3.08984c10.7402 0 20.0898 -6.30957 24.8594 -16.0596c1.98047 -4.05957 2.94043 -8.00977 2.94043 -11.7793c0 -10.7002 -7.71973 -19.96 -21.6494 -26.3604l-144.6 -67.1104
c-5.38965 -2.48047 -10.9395 -3.77051 -16.209 -3.77051c-9.7998 0 -18.6396 4.46973 -23.6797 14.0596c-1.96973 3.63965 -2.9502 7.55957 -2.9502 11.4795c0 9.59961 5.87988 19.2197 17.5098 24.75zM531.369 79.1621l-0.0292969 591.204
c0 16.5703 12.5703 29.75 31.2803 29.75c18.4102 0 30.9697 -13.1797 30.9697 -29.75v-593.44c0 -43.0703 -33.5 -76.8906 -78.25 -76.8906c-31.2803 0 -59.4707 18.4297 -71.5205 44.8799l-264.97 581.46c-4.94043 10.8398 -11.2002 16.7998 -20.04 15.7695
c-8.2998 -0.969727 -12.8594 -7.34961 -12.8594 -21v-591.5c0 -16.71 -13.04 -29.6104 -31.2705 -29.6104c-17.7598 0 -31.2695 12.7695 -31.2695 29.6094v593.44c0 43.1396 33.8896 77.0293 78.8594 77.0293c31.3799 0 59.1797 -18.6504 71.2393 -45.0508l265.48 -581.16
c4.9502 -10.8301 11.1299 -17.0498 19.79 -15.75c8.08984 1.21973 12.5898 7.35938 12.5898 21.0098z" />
    <glyph glyph-name="Ncaron" unicode="&#x147;" horiz-adv-x="676" 
d="M297.54 774.53l-82.0488 91.5889c-3.82031 4.30957 -5.66016 9.75977 -5.66016 15.2295c0 6.86035 2.88965 13.7607 8.37012 18.5205c5.12012 4.48047 11.71 6.6709 18.3604 6.6709c8.0498 0 16.1895 -3.21973 21.9092 -9.48926l69.7002 -74.0898
c3.4502 -3.69043 6.66992 -5.28027 10.6299 -5.26074c3.95996 0.00976562 7.16992 1.62012 10.5898 5.32031l68.71 73.2598c6.2002 7.04004 14.2305 10.2998 22.0801 10.2998c7.16016 0 14.1699 -2.71973 19.4902 -7.76953c5.07031 -4.7998 7.5 -10.5898 7.5 -16.5898
c0 -6.12988 -2.53027 -12.4697 -7.37012 -18.1797l-84.75 -90.8701c-8.23047 -9.83008 -22 -18.1104 -36.0801 -18.1104c-17.6904 0 -32.8906 8.91016 -41.4307 19.4697zM531.352 79.1592l-0.0292969 591.204c0 16.5703 12.5703 29.75 31.2803 29.75
c18.4102 0 30.9697 -13.1797 30.9697 -29.75v-593.44c0 -43.0703 -33.5 -76.8906 -78.25 -76.8906c-31.2803 0 -59.4707 18.4297 -71.5205 44.8799l-264.97 581.46c-4.94043 10.8398 -11.2002 16.7998 -20.04 15.7695c-8.2998 -0.969727 -12.8594 -7.34961 -12.8594 -21
v-591.5c0 -16.71 -13.04 -29.6104 -31.2705 -29.6104c-17.7598 0 -31.2695 12.7695 -31.2695 29.6094v593.44c0 43.1396 33.8896 77.0293 78.8594 77.0293c31.3799 0 59.1797 -18.6504 71.2393 -45.0508l265.48 -581.16c4.9502 -10.8301 11.1299 -17.0498 19.79 -15.75
c8.08984 1.21973 12.5898 7.35938 12.5898 21.0098z" />
    <glyph glyph-name="Ncircumflexbelow" unicode="&#x1e4a;" horiz-adv-x="676" 
d="M531.37 79.1504l-0.0292969 591.214c0 16.5703 12.5703 29.75 31.2803 29.75c18.4102 0 30.9697 -13.1797 30.9697 -29.75v-593.44c0 -43.0703 -33.5 -76.8906 -78.25 -76.8906c-31.2803 0 -59.4707 18.4297 -71.5205 44.8799l-264.97 581.46
c-4.94043 10.8398 -11.2002 16.7998 -20.04 15.7695c-8.2998 -0.969727 -12.8594 -7.34961 -12.8594 -21v-591.5c0 -16.71 -13.04 -29.6104 -31.2705 -29.6104c-17.7598 0 -31.2695 12.7695 -31.2695 29.6094v593.44c0 43.1396 33.8896 77.0293 78.8594 77.0293
c31.3799 0 59.1797 -18.6504 71.2393 -45.0508l265.48 -581.16c4.9502 -10.8301 11.1299 -17.0498 19.79 -15.75c8.08984 1.20996 12.5898 7.34961 12.5898 21zM327.36 -103.996l-69.6689 -73.9805c-5.83984 -6.15039 -14.2002 -9.49023 -22.4102 -9.49023
c-6.48047 0 -12.8701 2.08008 -17.8604 6.49023c-5.48047 4.4502 -8.37012 11.3701 -8.37012 18.3604c0 5.58008 1.83984 11.2002 5.66016 15.6406l82.0195 91c8.54004 11 23.7402 20 41.4307 20c14.0801 0 27.8496 -9 36.0801 -18l84.75 -91
c4.83984 -5.55957 7.37012 -11.8799 7.37012 -18.0703c0 -6.05957 -2.42969 -11.9893 -7.5 -16.9395c-5.33984 -4.79004 -12.3799 -7.52051 -19.5703 -7.52051c-7.82031 0 -15.8203 3.21973 -21.9902 10.5098l-68.71 73c-3.41992 3 -6.62988 5 -10.5898 5
s-7.19043 -2 -10.6406 -5z" />
    <glyph glyph-name="Ncommaaccent" unicode="&#x145;" horiz-adv-x="676" 
d="M531.37 79.1504l-0.0292969 591.214c0 16.5703 12.5703 29.75 31.2803 29.75c18.4102 0 30.9697 -13.1797 30.9697 -29.75v-593.44c0 -43.0703 -33.5 -76.8906 -78.25 -76.8906c-31.2803 0 -59.4707 18.4297 -71.5205 44.8799l-264.97 581.46
c-4.94043 10.8398 -11.2002 16.7998 -20.04 15.7695c-8.2998 -0.969727 -12.8594 -7.34961 -12.8594 -21v-591.5c0 -16.71 -13.04 -29.6104 -31.2705 -29.6104c-17.7598 0 -31.2695 12.7695 -31.2695 29.6094v593.44c0 43.1396 33.8896 77.0293 78.8594 77.0293
c31.3799 0 59.1797 -18.6504 71.2393 -45.0508l265.48 -581.16c4.9502 -10.8301 11.1299 -17.0498 19.79 -15.75c8.08984 1.20996 12.5898 7.34961 12.5898 21zM327.531 -120.996l0.00976562 57.0088c0 15 9.91016 26 25.5898 26c14.6396 0 26.5195 -12 26.5195 -26v-63
c0 -35 -29.7695 -60 -56.3896 -67c-14.5996 -2 -25.5693 7 -27.0195 20c-0.240234 1.15039 -0.370117 2.30078 -0.370117 3.45117c0 5.82031 3.24023 11.5303 11.8701 16.54c10.2803 6 19.79 18 19.79 33z" />
    <glyph glyph-name="Ndotaccent" unicode="&#x1e44;" horiz-adv-x="676" 
d="M309.81 848.69l-0.00976562 27.3008c0 16.1299 10.4297 27.9395 28.3799 27.9395c17.1602 0 29.4297 -11.71 29.4297 -27.9404v-27.29c0 -15.5703 -11.8701 -27.2002 -29.4199 -27.2002c-18.3604 0 -28.3799 11.71 -28.3799 27.1904zM531.359 79.1514l-0.0292969 591.204
c0 16.5703 12.5703 29.75 31.2803 29.75c18.4102 0 30.9697 -13.1797 30.9697 -29.75v-593.44c0 -43.0703 -33.5 -76.8906 -78.25 -76.8906c-31.2803 0 -59.4707 18.4297 -71.5205 44.8799l-264.97 581.46c-4.94043 10.8398 -11.2002 16.7998 -20.04 15.7695
c-8.2998 -0.969727 -12.8594 -7.34961 -12.8594 -21v-591.5c0 -16.71 -13.04 -29.6104 -31.2705 -29.6104c-17.7598 0 -31.2695 12.7695 -31.2695 29.6094v593.44c0 43.1396 33.8896 77.0293 78.8594 77.0293c31.3799 0 59.1797 -18.6504 71.2393 -45.0508l265.48 -581.16
c4.9502 -10.8301 11.1299 -17.0498 19.79 -15.75c8.08984 1.21973 12.5898 7.35938 12.5898 21.0098z" />
    <glyph glyph-name="Ndotbelow" unicode="&#x1e46;" horiz-adv-x="676" 
d="M531.37 79.1504l-0.0292969 591.214c0 16.5703 12.5703 29.75 31.2803 29.75c18.4102 0 30.9697 -13.1797 30.9697 -29.75v-593.44c0 -43.0703 -33.5 -76.8906 -78.25 -76.8906c-31.2803 0 -59.4707 18.4297 -71.5205 44.8799l-264.97 581.46
c-4.94043 10.8398 -11.2002 16.7998 -20.04 15.7695c-8.2998 -0.969727 -12.8594 -7.34961 -12.8594 -21v-591.5c0 -16.71 -13.04 -29.6104 -31.2705 -29.6104c-17.7598 0 -31.2695 12.7695 -31.2695 29.6094v593.44c0 43.1396 33.8896 77.0293 78.8594 77.0293
c31.3799 0 59.1797 -18.6504 71.2393 -45.0508l265.48 -581.16c4.9502 -10.8301 11.1299 -17.0498 19.79 -15.75c8.08984 1.20996 12.5898 7.34961 12.5898 21zM302.69 -111.996l-0.00976562 27c0 16 10.4297 28 28.3799 28c17.1602 0 29.4297 -11 29.4297 -28v-27
c0 -15 -11.8701 -27 -29.4199 -27c-18.3604 0 -28.3799 12 -28.3799 27z" />
    <glyph glyph-name="Eng" unicode="&#x14a;" horiz-adv-x="676" 
d="M531.37 77.1504l-0.0175781 593.212c0 16.5703 12.5703 29.75 31.2803 29.75c17.7998 0 31.5596 -8.66992 31.5596 -29.75v-656.1c0.719727 -176.26 -52.21 -184.26 -162.63 -184.26c-20.5703 0 -32.2705 15 -32.2705 29c0 15 13.2598 28 30.2793 28
c81.3496 0 99.4492 4 101.589 114.49c-5.08008 -0.959961 -10.3701 -1.45996 -15.8203 -1.45996c-31.2803 0 -59.4707 18.4297 -71.5205 44.8799l-264.97 581.46c-4.94043 10.8398 -11.2002 16.7998 -20.04 15.7695c-8.2998 -0.969727 -12.8594 -7.34961 -12.8594 -21
v-591.5c0 -16.71 -13.04 -29.6104 -31.2705 -29.6104c-17.7598 0 -31.2695 12.7695 -31.2695 29.6094v593.44c0 43.1396 33.8896 77.0293 78.8594 77.0293c31.3799 0 59.1797 -18.6504 71.2393 -45.0508l265.48 -581.16c4.9502 -10.8301 11.1299 -17.0498 19.79 -15.75
c7.69043 1.15039 12.1309 6.74023 12.5908 19z" />
    <glyph glyph-name="Ntilde" unicode="&#xd1;" horiz-adv-x="676" 
d="M278.68 883.95c36.1699 1.62988 54.5596 -13.2197 71.1396 -26.8398c16.7598 -13.7998 32.3799 -28.3398 57.21 -26.3594c14.4004 1.15039 32.46 16.2207 45.9902 28.3203c4.25 4.49023 9.87988 6.39062 15.6104 6.39062c7.90039 0 16 -3.59961 20.9902 -8.95996
c4.36035 -4.67969 6.64062 -10.9492 6.64062 -17.3389c0 -6.36035 -2.25977 -12.8408 -6.96973 -17.9912c-16.8096 -15.9805 -54.0996 -44.25 -81.0898 -46.0703c-36.1104 -2.58008 -55.6602 15.1602 -76.4199 31.6201c-14.1699 11.4902 -28.9004 23.4902 -47.1602 23.4902
c-2.19043 0 -4.43066 -0.169922 -6.73047 -0.540039c-17.0703 -2.62988 -35.4502 -14.7295 -52.5801 -29.5996c-5.51953 -4.37988 -11.2598 -6.13965 -16.6602 -6.13965c-7.71973 0 -14.7598 3.58984 -19.4902 8.26953c-5.62988 5.55957 -7.95996 11.4893 -7.95996 17.249
c0 7.96973 4.48047 15.6094 10.8604 21.4893c26.6299 23.54 56.8496 41.8096 86.6191 43.0098zM531.359 79.1709l-0.0292969 591.204c0 16.5703 12.5703 29.75 31.2803 29.75c18.4102 0 30.9697 -13.1797 30.9697 -29.75v-593.44c0 -43.0703 -33.5 -76.8906 -78.25 -76.8906
c-31.2803 0 -59.4707 18.4297 -71.5205 44.8799l-264.97 581.46c-4.94043 10.8398 -11.2002 16.7998 -20.04 15.7695c-8.2998 -0.969727 -12.8594 -7.34961 -12.8594 -21v-591.5c0 -16.71 -13.04 -29.6104 -31.2705 -29.6104c-17.7598 0 -31.2695 12.7695 -31.2695 29.6094
v593.44c0 43.1396 33.8896 77.0293 78.8594 77.0293c31.3799 0 59.1797 -18.6504 71.2393 -45.0508l265.48 -581.16c4.9502 -10.8301 11.1299 -17.0498 19.79 -15.75c8.08984 1.21973 12.5898 7.35938 12.5898 21.0098z" />
    <glyph glyph-name="O" unicode="O" 
d="M305.98 700.11l45.6104 -0.00878906c146.38 0 237.59 -68.7305 237.59 -242.99v-220.17c0 -140.22 -85.6504 -236.91 -237.601 -236.91h-45.5996c-150.92 0 -237.59 96.6104 -237.59 236.92v220.17c0 174.35 92.2197 242.989 237.59 242.989zM132.241 457.111
l0.00976562 -220.16c0 -103.57 61.5098 -179.84 173.75 -179.84h45.5996c112.6 0 174.35 76.3096 174.35 179.84v220.17c0 132.23 -66.3398 185.471 -174.359 185.471h-45.5996c-107.66 0 -173.75 -53.2002 -173.75 -185.48z" />
    <glyph glyph-name="Oacute" unicode="&#xd3;" 
d="M241.33 834.63l150.688 71.6904c4.4502 2.12012 8.87988 3.08984 13.0898 3.08984c10.7402 0 20.0898 -6.30957 24.8594 -16.0596c1.98047 -4.05957 2.94043 -8.00977 2.94043 -11.7793c0 -10.7002 -7.71973 -19.96 -21.6494 -26.3604l-144.6 -67.1104
c-5.38965 -2.48047 -10.9395 -3.77051 -16.209 -3.77051c-9.7998 0 -18.6396 4.46973 -23.6797 14.0596c-1.96973 3.63965 -2.9502 7.55957 -2.9502 11.4795c0 9.61035 5.87988 19.2305 17.5098 24.7607zM305.979 700.11l45.6104 -0.00878906
c146.38 0 237.59 -68.7305 237.59 -242.99v-220.17c0 -140.22 -85.6504 -236.91 -237.601 -236.91h-45.5996c-150.92 0 -237.59 96.6104 -237.59 236.92v220.17c0 174.35 92.2197 242.989 237.59 242.989zM132.239 457.111l0.00976562 -220.16
c0 -103.57 61.5098 -179.84 173.75 -179.84h45.5996c112.6 0 174.35 76.3096 174.35 179.84v220.17c0 132.23 -66.3398 185.471 -174.359 185.471h-45.5996c-107.66 0 -173.75 -53.2002 -173.75 -185.48z" />
    <glyph glyph-name="Ocaron" unicode="&#x1d1;" 
d="M287.18 778.18l-82.0391 91.5889c-3.82031 4.30957 -5.66016 9.75977 -5.66016 15.2295c0 6.86035 2.88965 13.7607 8.37012 18.5205c5.12012 4.48047 11.71 6.6709 18.3604 6.6709c8.0498 0 16.1895 -3.21973 21.9092 -9.48926l69.7002 -74.0898
c3.4502 -3.69043 6.66992 -5.28027 10.6299 -5.27051c3.9502 0.0195312 7.16016 1.62988 10.5801 5.33008l68.71 73.2598c6.2002 7.04004 14.2305 10.2998 22.0801 10.2998c7.16016 0 14.1699 -2.71973 19.4902 -7.76953c5.07031 -4.7998 7.5 -10.5898 7.5 -16.5898
c0 -6.12988 -2.53027 -12.4697 -7.37012 -18.1797l-84.75 -90.8701c-8.23047 -9.83008 -22 -18.1104 -36.0801 -18.1104c-17.6904 0 -32.8906 8.91016 -41.4307 19.4697zM305.961 700.118l45.6104 -0.00878906c146.38 0 237.59 -68.7305 237.59 -242.99v-220.17
c0 -140.22 -85.6504 -236.91 -237.601 -236.91h-45.5996c-150.92 0 -237.59 96.6104 -237.59 236.92v220.17c0 174.35 92.2197 242.989 237.59 242.989zM132.222 457.119l0.00976562 -220.16c0 -103.57 61.5098 -179.84 173.75 -179.84h45.5996
c112.6 0 174.35 76.3096 174.35 179.84v220.17c0 132.23 -66.3398 185.471 -174.359 185.471h-45.5996c-107.66 0 -173.75 -53.2002 -173.75 -185.48z" />
    <glyph glyph-name="Ocircumflex" unicode="&#xd4;" 
d="M317.83 850.45l-69.6807 -74.0811c-5.71973 -6.26953 -13.8594 -9.48926 -21.9092 -9.48926c-6.65039 0 -13.2402 2.19043 -18.3604 6.6709c-5.48047 4.75977 -8.37012 11.6602 -8.37012 18.5205c0 5.46973 1.83984 10.9199 5.66016 15.2295l82.0195 91.5801
c8.54004 10.5596 23.7402 19.4697 41.4307 19.4697c14.0801 0 27.8496 -8.28027 36.0801 -18.1104l84.75 -90.8701c4.83984 -5.70996 7.37012 -12.0498 7.37012 -18.1797c0 -6 -2.42969 -11.79 -7.5 -16.5898c-5.32031 -5.0498 -12.3301 -7.76953 -19.4902 -7.76953
c-7.84961 0 -15.8799 3.25977 -22.0801 10.2998l-68.71 73.2598c-3.41992 3.7002 -6.62988 5.31055 -10.5801 5.32031c-3.95996 0.0195312 -7.17969 -1.57031 -10.6299 -5.26074zM305.989 700.109l45.6104 -0.00878906c146.38 0 237.59 -68.7305 237.59 -242.99v-220.17
c0 -140.22 -85.6504 -236.91 -237.601 -236.91h-45.5996c-150.92 0 -237.59 96.6104 -237.59 236.92v220.17c0 174.35 92.2197 242.989 237.59 242.989zM132.25 457.11l0.00976562 -220.16c0 -103.57 61.5098 -179.84 173.75 -179.84h45.5996
c112.6 0 174.35 76.3096 174.35 179.84v220.17c0 132.23 -66.3398 185.471 -174.359 185.471h-45.5996c-107.66 0 -173.75 -53.2002 -173.75 -185.48z" />
    <glyph glyph-name="Ocircumflexdotbelow" unicode="&#x1ed8;" 
d="M317.83 850.45l-69.6807 -74.0811c-5.71973 -6.26953 -13.8594 -9.48926 -21.9092 -9.48926c-6.65039 0 -13.2402 2.19043 -18.3604 6.6709c-5.48047 4.75977 -8.37012 11.6602 -8.37012 18.5205c0 5.46973 1.83984 10.9199 5.66016 15.2295l82.0195 91.5801
c8.54004 10.5596 23.7402 19.4697 41.4307 19.4697c14.0801 0 27.8496 -8.28027 36.0801 -18.1104l84.75 -90.8701c4.83984 -5.70996 7.37012 -12.0498 7.37012 -18.1797c0 -6 -2.42969 -11.79 -7.5 -16.5898c-5.32031 -5.0498 -12.3301 -7.76953 -19.4902 -7.76953
c-7.84961 0 -15.8799 3.25977 -22.0801 10.2998l-68.71 73.2598c-3.41992 3.7002 -6.62988 5.31055 -10.5801 5.32031c-3.95996 0.0195312 -7.17969 -1.57031 -10.6299 -5.26074zM305.989 700.109l45.6104 -0.00878906c146.38 0 237.59 -68.7305 237.59 -242.99v-220.17
c0 -140.22 -85.6504 -236.91 -237.601 -236.91h-45.5996c-150.92 0 -237.59 96.6104 -237.59 236.92v220.17c0 174.35 92.2197 242.989 237.59 242.989zM132.25 457.11l0.00976562 -220.16c0 -103.57 61.5098 -179.84 173.75 -179.84h45.5996
c112.6 0 174.35 76.3096 174.35 179.84v220.17c0 132.23 -66.3398 185.471 -174.359 185.471h-45.5996c-107.66 0 -173.75 -53.2002 -173.75 -185.48zM299.2 -112l-0.00976562 27c0 16 10.4297 28 28.3799 28c17.1602 0 29.4297 -11 29.4297 -28v-27
c0 -15 -11.8701 -27 -29.4199 -27c-18.3604 0 -28.3799 12 -28.3799 27z" />
    <glyph glyph-name="uni022A" unicode="&#x22a;" 
d="M226.9 959.21h202.57c15.6201 0 27.1904 -10.6602 27.1904 -29.1201c0 -17.1602 -10.96 -28.6797 -27.1904 -28.6797h-202.57c-16.0703 0 -27.9404 11.6299 -27.9404 28.6699c0 18.3604 12.46 29.1299 27.9404 29.1299zM223.471 774.69v27.29
c0 16.3701 11.3398 27.9404 28.3799 27.9404c17.5996 0 29.4297 -11.8203 29.4297 -27.9404v-27.29c0 -15.4502 -11.4297 -27.1904 -29.4297 -27.1904c-17.4502 0 -28.3799 11.4805 -28.3799 27.1904zM375.721 774.7l0.000976562 27.2812
c0 16.25 10.8896 27.9404 28.3799 27.9404c17.2998 0 29.1299 -11.8203 29.1299 -27.9404v-27.29c0 -15.4502 -11.4297 -27.1904 -29.1299 -27.1904c-17.9004 0 -28.3809 11.5996 -28.3809 27.1992zM305.972 700.092l45.6104 -0.00878906
c146.38 0 237.59 -68.7305 237.59 -242.99v-220.17c0 -140.22 -85.6504 -236.91 -237.601 -236.91h-45.5996c-150.92 0 -237.59 96.6104 -237.59 236.92v220.17c0 174.35 92.2197 242.989 237.59 242.989zM132.232 457.093l0.00976562 -220.16
c0 -103.57 61.5098 -179.84 173.75 -179.84h45.5996c112.6 0 174.35 76.3096 174.35 179.84v220.17c0 132.23 -66.3398 185.471 -174.359 185.471h-45.5996c-107.66 0 -173.75 -53.2002 -173.75 -185.48z" />
    <glyph glyph-name="Odieresis" unicode="&#xd6;" 
d="M375.73 852.09l0.000976562 27.291c0 16.25 10.8896 27.9404 28.3799 27.9404c17.2998 0 29.1299 -11.8203 29.1299 -27.9404v-27.29c0 -15.46 -11.4297 -27.2002 -29.1299 -27.2002c-17.9004 0 -28.3809 11.5996 -28.3809 27.1992zM223.481 852.081v27.2998
c0 16.3701 11.3398 27.9404 28.3799 27.9404c17.5996 0 29.4297 -11.8203 29.4297 -27.9404v-27.29c0 -15.46 -11.4297 -27.2002 -29.4297 -27.2002c-17.4502 0 -28.3799 11.4805 -28.3799 27.1904zM305.991 700.121l45.6104 -0.00878906
c146.38 0 237.59 -68.7305 237.59 -242.99v-220.17c0 -140.22 -85.6504 -236.91 -237.601 -236.91h-45.5996c-150.92 0 -237.59 96.6104 -237.59 236.92v220.17c0 174.35 92.2197 242.989 237.59 242.989zM132.252 457.122l0.00976562 -220.16
c0 -103.57 61.5098 -179.84 173.75 -179.84h45.5996c112.6 0 174.35 76.3096 174.35 179.84v220.17c0 132.23 -66.3398 185.471 -174.359 185.471h-45.5996c-107.66 0 -173.75 -53.2002 -173.75 -185.48z" />
    <glyph glyph-name="Odotbelow" unicode="&#x1ecc;" 
d="M305.98 700.11l45.6104 -0.00878906c146.38 0 237.59 -68.7305 237.59 -242.99v-220.17c0 -140.22 -85.6504 -236.91 -237.601 -236.91h-45.5996c-150.92 0 -237.59 96.6104 -237.59 236.92v220.17c0 174.35 92.2197 242.989 237.59 242.989zM132.241 457.111
l0.00976562 -220.16c0 -103.57 61.5098 -179.84 173.75 -179.84h45.5996c112.6 0 174.35 76.3096 174.35 179.84v220.17c0 132.23 -66.3398 185.471 -174.359 185.471h-45.5996c-107.66 0 -173.75 -53.2002 -173.75 -185.48zM299.711 -111.999l-0.00976562 27
c0 16 10.4297 28 28.3799 28c17.1602 0 29.4297 -11 29.4297 -28v-27c0 -15 -11.8701 -27 -29.4199 -27c-18.3604 0 -28.3799 12 -28.3799 27z" />
    <glyph glyph-name="Ograve" unicode="&#xd2;" 
d="M390.05 788.1l-148.441 68.8506c-10.5703 4.87012 -17.7803 14.2002 -17.7803 24.7803c0 3.75977 0.910156 7.67969 2.91016 11.6094c4.50977 9.83008 13.9199 16.0801 24.7002 16.0801c4.26953 0 8.75977 -0.980469 13.2402 -3.11035l150.7 -71.6904
c11.96 -5.69043 17.3301 -15.6406 17.3301 -25.0205c0 -3.95996 -0.959961 -7.82031 -2.78027 -11.21c-5.05957 -9.63965 -13.6299 -14.1992 -23.3896 -14.1992c-5.26953 0 -10.8896 1.33008 -16.4893 3.91016zM305.969 700.09l45.6104 -0.00878906
c146.38 0 237.59 -68.7305 237.59 -242.99v-220.17c0 -140.22 -85.6504 -236.91 -237.601 -236.91h-45.5996c-150.92 0 -237.59 96.6104 -237.59 236.92v220.17c0 174.35 92.2197 242.989 237.59 242.989zM132.229 457.091l0.00976562 -220.16
c0 -103.57 61.5098 -179.84 173.75 -179.84h45.5996c112.6 0 174.35 76.3096 174.35 179.84v220.17c0 132.23 -66.3398 185.471 -174.359 185.471h-45.5996c-107.66 0 -173.75 -53.2002 -173.75 -185.48z" />
    <glyph glyph-name="Ohungarumlaut" unicode="&#x150;" 
d="M133.12 834.63l150.697 71.7002c4.48047 2.12988 8.9707 3.11035 13.2402 3.11035c10.7803 0 20.1904 -6.25 24.7002 -16.0801c1.98047 -3.91016 2.94043 -7.78027 2.94043 -11.5205c0 -10.6299 -7.71973 -20.2197 -21.6494 -26.6201l-144.6 -67.1104
c-5.41992 -2.49023 -10.9795 -3.79004 -16.249 -3.79004c-9.7998 0 -18.5996 4.48047 -23.6396 14.0703c-1.96973 3.63965 -2.9502 7.55957 -2.9502 11.4795c0 9.61035 5.87988 19.2305 17.5098 24.7607zM349.537 834.64l150.679 71.7012
c4.48047 2.12988 8.9707 3.11035 13.2402 3.11035c10.7803 0 20.1904 -6.25 24.7002 -16.0801c1.98047 -3.91016 2.94043 -7.78027 2.94043 -11.5205c0 -10.6299 -7.71973 -20.2197 -21.6494 -26.6201l-144.6 -67.1104
c-5.40039 -2.49023 -10.9502 -3.78027 -16.2197 -3.78027c-9.7998 0 -18.6201 4.46973 -23.6504 14.0596c-1.96973 3.63965 -2.9502 7.55957 -2.9502 11.4795c0 9.61035 5.87988 19.2305 17.5098 24.7607zM305.966 700.131l45.6104 -0.00878906
c146.38 0 237.59 -68.7305 237.59 -242.99v-220.17c0 -140.22 -85.6504 -236.91 -237.601 -236.91h-45.5996c-150.92 0 -237.59 96.6104 -237.59 236.92v220.17c0 174.35 92.2197 242.989 237.59 242.989zM132.227 457.132l0.00976562 -220.16
c0 -103.57 61.5098 -179.84 173.75 -179.84h45.5996c112.6 0 174.35 76.3096 174.35 179.84v220.17c0 132.23 -66.3398 185.471 -174.359 185.471h-45.5996c-107.66 0 -173.75 -53.2002 -173.75 -185.48z" />
    <glyph glyph-name="Omacron" unicode="&#x14c;" 
d="M228.84 930.82l202.57 0.00976562c15.6201 0 27.1904 -10.6699 27.1904 -29.1299c0 -17.1602 -10.96 -28.6797 -27.1904 -28.6797h-202.57c-16.0703 0 -27.9404 11.6299 -27.9404 28.6699c0 18.3604 12.46 29.1299 27.9404 29.1299zM305.98 700.12l45.6104 -0.00878906
c146.38 0 237.59 -68.7305 237.59 -242.99v-220.17c0 -140.22 -85.6504 -236.91 -237.601 -236.91h-45.5996c-150.92 0 -237.59 96.6104 -237.59 236.92v220.17c0 174.35 92.2197 242.989 237.59 242.989zM132.241 457.121l0.00976562 -220.16
c0 -103.57 61.5098 -179.84 173.75 -179.84h45.5996c112.6 0 174.35 76.3096 174.35 179.84v220.17c0 132.23 -66.3398 185.471 -174.359 185.471h-45.5996c-107.66 0 -173.75 -53.2002 -173.75 -185.48z" />
    <glyph glyph-name="Omacronacute" unicode="&#x1e52;" 
d="M237.69 891.09l150.688 71.6904c4.4502 2.12012 8.87988 3.08984 13.0898 3.08984c10.7402 0 20.0898 -6.30957 24.8594 -16.0596c1.98047 -4.05957 2.94043 -8.00977 2.94043 -11.7793c0 -10.7002 -7.71973 -19.96 -21.6494 -26.3604l-144.6 -67.1104
c-5.38965 -2.48047 -10.9395 -3.77051 -16.209 -3.77051c-9.7998 0 -18.6396 4.46973 -23.6797 14.0596c-1.96973 3.63965 -2.9502 7.55957 -2.9502 11.4795c0 9.61035 5.87988 19.2305 17.5098 24.7607zM228.829 807.8h202.57c15.6201 0 27.1904 -10.6602 27.1904 -29.1201
c0 -17.1602 -10.96 -28.6797 -27.1904 -28.6797h-202.57c-16.0703 0 -27.9404 11.6299 -27.9404 28.6699c0 18.3604 12.46 29.1299 27.9404 29.1299zM305.97 700.1l45.6104 -0.00878906c146.38 0 237.59 -68.7305 237.59 -242.99v-220.17
c0 -140.22 -85.6504 -236.91 -237.601 -236.91h-45.5996c-150.92 0 -237.59 96.6104 -237.59 236.92v220.17c0 174.35 92.2197 242.989 237.59 242.989zM132.23 457.101l0.00976562 -220.16c0 -103.57 61.5098 -179.84 173.75 -179.84h45.5996
c112.6 0 174.35 76.3096 174.35 179.84v220.17c0 132.23 -66.3398 185.471 -174.359 185.471h-45.5996c-107.66 0 -173.75 -53.2002 -173.75 -185.48z" />
    <glyph glyph-name="Omacrongrave" unicode="&#x1e50;" 
d="M400.98 844.61l-148.432 68.8506c-10.5703 4.87012 -17.7803 14.2002 -17.7803 24.7803c0 3.75977 0.910156 7.67969 2.91016 11.6094c4.50977 9.83008 13.9199 16.0801 24.7002 16.0801c4.26953 0 8.75977 -0.980469 13.2402 -3.11035l150.69 -71.6904
c11.96 -5.69043 17.3301 -15.6406 17.3301 -25.0205c0 -3.95996 -0.959961 -7.82031 -2.78027 -11.21c-5.05957 -9.63965 -13.6299 -14.1992 -23.3896 -14.1992c-5.26953 0 -10.8896 1.33008 -16.4893 3.91016zM228.839 807.791h202.57
c15.6201 0 27.1904 -10.6602 27.1904 -29.1201c0 -17.1602 -10.96 -28.6797 -27.1904 -28.6797h-202.57c-16.0703 0 -27.9404 11.6299 -27.9404 28.6699c0 18.3604 12.46 29.1299 27.9404 29.1299zM305.979 700.091l45.6104 -0.00878906
c146.38 0 237.59 -68.7305 237.59 -242.99v-220.17c0 -140.22 -85.6504 -236.91 -237.601 -236.91h-45.5996c-150.92 0 -237.59 96.6104 -237.59 236.92v220.17c0 174.35 92.2197 242.989 237.59 242.989zM132.24 457.092l0.00976562 -220.16
c0 -103.57 61.5098 -179.84 173.75 -179.84h45.5996c112.6 0 174.35 76.3096 174.35 179.84v220.17c0 132.23 -66.3398 185.471 -174.359 185.471h-45.5996c-107.66 0 -173.75 -53.2002 -173.75 -185.48z" />
    <glyph glyph-name="Oslash" unicode="&#xd8;" horiz-adv-x="619" 
d="M439.09 684.45l31.8301 71.332c5.16992 11.6104 15.29 16.6006 25.4502 16.6006c4.30957 0 8.62988 -0.900391 12.5801 -2.57031c10.3301 -4.45996 14.04 -13.25 14.04 -21.9805c0 -4.90039 -1.16992 -9.78027 -2.99023 -13.8701l-32.8203 -73.6602
c53.7002 -37.3701 84 -102.75 84 -203.19v-220.17c0 -140.22 -85.6504 -236.91 -237.591 -236.91h-45.5996c-32.8203 0 -62.6006 4.57031 -89.1104 13.1602l-33.7803 -76.1904c-4.75 -10.2305 -15.1104 -15.3408 -25.1201 -15.3408
c-4.66992 0 -9.26953 1.11035 -13.1895 3.34082c-9.79004 5.57031 -14.1396 13.5605 -14.1396 21.6104c0 3.51953 0.830078 7.0498 2.40039 10.3896l34.9297 78.7695c-64.46 40.25 -99.5801 111.86 -99.5801 201.181v220.17c0 174.35 92.2197 242.989 237.59 242.989
h45.5996c39.4004 0 74.8008 -4.98047 105.501 -15.6602zM175.45 92.832l239.09 536.45c-23.29 9.0498 -50.4502 13.29 -80.9307 13.29h-45.5996c-107.66 0 -173.75 -53.2002 -173.75 -185.48v-220.17c0 -60.6904 21.1201 -112 61.1904 -144.09zM507.97 236.933
l0.000976562 220.18c0 66.7305 -16.9004 113.341 -47.5205 143.15l-237.51 -533.14c19.29 -6.53027 41.0205 -10.0303 65.0801 -10.0303h45.5996c112.6 0 174.35 76.3096 174.35 179.84z" />
    <glyph glyph-name="Oslashacute" unicode="&#x1fe;" horiz-adv-x="619" 
d="M282.66 832.58l150.688 71.6904c4.4502 2.12012 8.87988 3.08984 13.0898 3.08984c10.7402 0 20.0898 -6.30957 24.8594 -16.0596c1.98047 -4.05957 2.94043 -8.00977 2.94043 -11.7793c0 -10.7002 -7.71973 -19.96 -21.6494 -26.3604l-144.6 -67.1104
c-5.38965 -2.48047 -10.9395 -3.77051 -16.209 -3.77051c-9.7998 0 -18.6396 4.46973 -23.6797 14.0596c-1.96973 3.63965 -2.9502 7.55957 -2.9502 11.4795c0 9.61035 5.87988 19.2305 17.5098 24.7607zM439.079 684.45l31.8398 71.332
c5.16992 11.6104 15.29 16.6006 25.4502 16.6006c4.30957 0 8.62988 -0.900391 12.5801 -2.57031c10.3301 -4.45996 14.04 -13.25 14.04 -21.9805c0 -4.90039 -1.16992 -9.78027 -2.99023 -13.8701l-32.8203 -73.6602c53.7002 -37.3701 84 -102.75 84 -203.19v-220.17
c0 -140.22 -85.6504 -236.91 -237.591 -236.91h-45.5996c-32.8203 0 -62.6006 4.57031 -89.1104 13.1602l-33.79 -76.1904c-4.75 -10.2305 -15.1104 -15.3408 -25.1201 -15.3408c-4.66992 0 -9.26953 1.11035 -13.1895 3.34082
c-9.79004 5.57031 -14.1396 13.5605 -14.1396 21.6104c0 3.51953 0.830078 7.0498 2.40039 10.3896l34.9297 78.7695c-64.46 40.25 -99.5801 111.86 -99.5801 201.181v220.17c0 174.35 92.2197 242.989 237.59 242.989h45.5996c39.4004 0 74.8008 -4.98047 105.501 -15.6602
zM175.449 92.832l239.09 536.45c-23.29 9.0498 -50.4502 13.29 -80.9307 13.29h-45.5996c-107.66 0 -173.75 -53.2002 -173.75 -185.48v-220.17c0 -60.6904 21.1201 -112 61.1904 -144.09zM507.969 236.933l0.000976562 220.169c0 66.7305 -16.9004 113.341 -47.5205 143.15
l-237.51 -533.14c19.29 -6.51953 41.0205 -10.0195 65.0801 -10.0195h45.5996c112.6 0 174.35 76.3096 174.35 179.84z" />
    <glyph glyph-name="Otilde" unicode="&#xd5;" 
d="M268.33 887.6c36.1699 1.62988 54.5596 -13.2197 71.1396 -26.8398c16.7598 -13.7998 32.3799 -28.3398 57.21 -26.3594c14.4004 1.15039 32.46 16.2207 45.9902 28.3203c4.25 4.49023 9.87988 6.39062 15.6104 6.39062c7.90039 0 16 -3.59961 20.9902 -8.95996
c4.36035 -4.67969 6.64062 -10.9492 6.64062 -17.3389c0 -6.36035 -2.25977 -12.8408 -6.96973 -17.9912c-16.8096 -15.9805 -54.0996 -44.25 -81.0898 -46.0703c-36.1104 -2.58008 -55.6602 15.1602 -76.4199 31.6201c-14.1699 11.4902 -28.9004 23.4902 -47.1602 23.4902
c-2.19043 0 -4.43066 -0.169922 -6.73047 -0.540039c-17.0703 -2.62988 -35.4502 -14.7295 -52.5801 -29.5996c-5.51953 -4.37988 -11.2598 -6.13965 -16.6602 -6.13965c-7.71973 0 -14.7598 3.58984 -19.4902 8.26953c-5.62988 5.55957 -7.95996 11.4893 -7.95996 17.249
c0 7.96973 4.48047 15.6094 10.8604 21.4893c26.6299 23.54 56.8496 41.8096 86.6191 43.0098zM305.97 700.13l45.6104 -0.00878906c146.38 0 237.59 -68.7305 237.59 -242.99v-220.17c0 -140.22 -85.6504 -236.91 -237.601 -236.91h-45.5996
c-150.92 0 -237.59 96.6104 -237.59 236.92v220.17c0 174.35 92.2197 242.989 237.59 242.989zM132.23 457.131l0.00976562 -220.16c0 -103.57 61.5098 -179.84 173.75 -179.84h45.5996c112.6 0 174.35 76.3096 174.35 179.84v220.17
c0 132.23 -66.3398 185.471 -174.359 185.471h-45.5996c-107.66 0 -173.75 -53.2002 -173.75 -185.48z" />
    <glyph glyph-name="Otildeacute" unicode="&#x1e4c;" 
d="M227.58 914.29l150.688 71.7002c4.4502 2.12012 8.87988 3.08984 13.0898 3.08984c10.7402 0 20.0898 -6.30957 24.8594 -16.0596c1.98047 -4.05957 2.94043 -8.00977 2.94043 -11.7793c0 -10.7002 -7.71973 -19.96 -21.6494 -26.3604l-144.6 -67.1104
c-5.38965 -2.48047 -10.9395 -3.77051 -16.209 -3.77051c-9.7998 0 -18.6396 4.45996 -23.6797 14.0498c-1.96973 3.63965 -2.9502 7.55957 -2.9502 11.4795c0 9.61035 5.87988 19.2305 17.5098 24.7607zM268.318 845.86c36.1699 1.62988 54.5596 -13.21 71.1396 -26.8301
c16.7598 -13.7998 32.3799 -28.3398 57.21 -26.3594c14.4004 1.15039 32.46 16.2207 45.9902 28.3203c4.25 4.49023 9.87988 6.39062 15.6104 6.39062c7.90039 0 16 -3.59961 20.9902 -8.95996c4.36035 -4.67969 6.64062 -10.9492 6.64062 -17.3389
c0 -6.36035 -2.25977 -12.8408 -6.96973 -17.9912c-16.8096 -15.9805 -54.0996 -44.25 -81.0898 -46.0703c-36.1104 -2.58008 -55.6602 15.1602 -76.4199 31.6201c-14.1699 11.4902 -28.9004 23.4902 -47.1602 23.4902c-2.19043 0 -4.43066 -0.169922 -6.73047 -0.540039
c-17.0703 -2.62988 -35.4502 -14.7295 -52.5801 -29.5996c-5.51953 -4.37988 -11.2598 -6.13965 -16.6602 -6.13965c-7.71973 0 -14.7598 3.58984 -19.4902 8.26953c-5.62988 5.55957 -7.95996 11.4893 -7.95996 17.2393c0 7.96973 4.48047 15.6094 10.8604 21.4893
c26.6299 23.54 56.8496 41.8096 86.6191 43.0098zM305.958 700.15l45.6104 -0.00878906c146.38 0 237.59 -68.7305 237.59 -242.99v-220.17c0 -140.22 -85.6504 -236.91 -237.601 -236.91h-45.5996c-150.92 0 -237.59 96.6104 -237.59 236.92v220.17
c0 174.35 92.2197 242.989 237.59 242.989zM132.219 457.151l0.00976562 -220.16c0 -103.57 61.5098 -179.84 173.75 -179.84h45.5996c112.6 0 174.35 76.3096 174.35 179.84v220.17c0 132.23 -66.3398 185.471 -174.359 185.471h-45.5996
c-107.66 0 -173.75 -53.2002 -173.75 -185.48z" />
    <glyph glyph-name="OE" unicode="&#x152;" horiz-adv-x="995" 
d="M575.59 700.11l340.221 -0.0107422c21.2695 0 33.25 -13.3203 33.25 -29.75c0 -16.5596 -12.25 -29.4395 -31.2803 -29.4395h-328.44v-247.62h268.91c19.8398 0 33.2598 -12.9004 33.2598 -29.4404c0 -17.5996 -13.6797 -30.0596 -31.2695 -30.0596h-270.89v-274.72
h326.46c21.0996 0 33.2598 -12.8799 33.2598 -29.4395c0 -16.4297 -12.0801 -29.6094 -31.2803 -29.6094h-342.21c-15.6904 0 -28.1104 7.84961 -31.5303 21.4492l-9.88965 70.2197c-35.5596 -60.8701 -100.29 -91.6699 -182.57 -91.6699h-45.5996
c-150.92 0 -237.59 96.6104 -237.59 236.92v220.17c0 174.35 92.2197 242.989 237.59 242.989h45.5996c85.3896 0 148.06 -23.4297 183.46 -85.4297l10.6699 64.4902c2.99023 13.0801 14.8203 20.9502 29.8701 20.9502zM525.931 236.939l0.00976562 220.18
c0 132.23 -66.3398 185.471 -174.359 185.471h-45.5996c-107.66 0 -173.75 -53.2002 -173.75 -185.48v-220.17c0 -103.57 61.5098 -179.84 173.75 -179.84h45.5996c112.6 0 174.35 76.3096 174.35 179.84z" />
    <glyph glyph-name="P" unicode="P" horiz-adv-x="596" 
d="M93.4199 29.6396l0.00195312 623.512c0 26.8496 20.1104 46.96 48.1699 46.96h224.13c103.31 0 185.67 -84.5 185.67 -183.46c0 -100.36 -83.4805 -183.841 -185.671 -183.841h-210.06v-301.19c0 -18.7803 -13.04 -31.5898 -31.2705 -31.5898
c-18.9004 0 -30.9707 13.1797 -30.9707 29.6094zM155.672 390.331l210.06 -0.000976562c67.6504 0 125.101 57.4502 125.101 126.32c0 69.2002 -57.4805 125.94 -125.101 125.94h-210.06v-252.26z" />
    <glyph glyph-name="Thorn" unicode="&#xde;" horiz-adv-x="564" 
d="M47.3701 29.6396v640.72c0 16.4297 12.0801 29.75 31.2803 29.75c18.4102 0 30.9697 -13.1797 30.9697 -29.75v-88.2598h208.08c124.93 0 199.91 -59.8301 199.91 -170.59v-93.2598c0 -108.31 -62.6104 -190.079 -199.91 -190.079h-208.08v-98.5303
c0 -16.5703 -12.5596 -29.6104 -30.9697 -29.6104c-19.2002 0 -31.2803 13.1797 -31.2803 29.6094zM455.36 318.26l0.00976562 92.2695c0 74.8799 -49.0195 114.37 -137.659 114.37h-208.08v-339.2h208.08c94.0195 0 137.649 56.7803 137.649 132.561z" />
    <glyph glyph-name="Q" unicode="Q" 
d="M305.98 698.6l45.6094 0.00195312c146.38 0 237.59 -68.7305 237.59 -242.99v-219.89c0 -92.1904 -37.8203 -165.091 -108.13 -203.461l90.1904 -89.2598c7.0498 -6 10.3193 -15 10.3193 -23c0 -17 -12.5098 -31 -31.96 -31c-9.09961 0 -18.4893 5 -23.0195 10
l-108.5 107.13c-20.8301 -4.88965 -42.4805 -7.12988 -66.5 -7.12988h-45.5996c-150.92 0 -237.59 96.4102 -237.59 236.72v219.89c0 174.35 92.2197 242.989 237.59 242.989zM525.939 235.712l0.00976562 219.899c0 132.23 -66.3398 185.471 -174.359 185.471h-45.5996
c-107.66 0 -173.75 -53.2002 -173.75 -185.48v-219.89c0 -103.57 61.5098 -179.84 173.75 -179.84h45.5996c112.6 0 174.35 76.3096 174.35 179.84z" />
    <glyph glyph-name="R" unicode="R" horiz-adv-x="609" 
d="M141.59 700.11l224.112 0.0107422c103.31 0 185.67 -84.5 185.67 -183.46c0 -89.5898 -68.9199 -165.09 -154.85 -176.47l-18.1797 -1.96973l158.02 -294.66c2.38965 -4.78027 3.44922 -9.08984 3.44922 -13.9199c0 -16.8398 -13.5098 -29.6094 -31.2695 -29.6094
c-12.6904 0 -23.6709 8.55957 -28.0605 16.8896l-171.46 315.89h-153.36v-303.17c0 -16.71 -13.04 -29.6104 -31.2705 -29.6104c-18.9004 0 -30.9707 13.1797 -30.9707 29.6094v623.51c0 26.8496 20.1104 46.96 48.1699 46.96zM155.643 390.341l210.06 -0.000976562
c67.6504 0 125.101 57.4502 125.101 126.32c0 69.2002 -57.4805 125.94 -125.101 125.94h-210.06v-252.26z" />
    <glyph glyph-name="Racute" unicode="&#x154;" horiz-adv-x="609" 
d="M217.67 830.98l150.688 71.7012c4.4502 2.12012 8.87988 3.08984 13.0898 3.08984c10.7402 0 20.0898 -6.30957 24.8594 -16.0596c1.98047 -4.05957 2.94043 -8.00977 2.94043 -11.7793c0 -10.7002 -7.71973 -19.96 -21.6494 -26.3604l-144.6 -67.1104
c-5.38965 -2.48047 -10.9395 -3.77051 -16.209 -3.77051c-9.7998 0 -18.6396 4.46973 -23.6797 14.0596c-1.96973 3.63965 -2.9502 7.55957 -2.9502 11.4795c0 9.59961 5.87988 19.2197 17.5098 24.75zM141.589 700.122l224.112 0.0107422
c103.31 0 185.67 -84.5 185.67 -183.46c0 -89.5898 -68.9199 -165.09 -154.85 -176.47l-18.1797 -1.96973l158.02 -294.66c2.38965 -4.78027 3.44922 -9.08984 3.44922 -13.9199c0 -16.8398 -13.5098 -29.6094 -31.2695 -29.6094
c-12.6904 0 -23.6709 8.55957 -28.0605 16.8896l-171.46 315.89h-153.36v-303.17c0 -16.71 -13.04 -29.6104 -31.2705 -29.6104c-18.9004 0 -30.9707 13.1797 -30.9707 29.6094v623.51c0 26.8496 20.1104 46.96 48.1699 46.96zM155.642 390.353l210.06 -0.000976562
c67.6504 0 125.101 57.4502 125.101 126.32c0 69.2002 -57.4805 125.94 -125.101 125.94h-210.06v-252.26z" />
    <glyph glyph-name="Rcaron" unicode="&#x158;" horiz-adv-x="609" 
d="M263.52 777.85l-82.0391 91.5889c-3.82031 4.30957 -5.66016 9.75977 -5.66016 15.2295c0 6.86035 2.88965 13.7607 8.37012 18.5205c5.12012 4.48047 11.71 6.6709 18.3604 6.6709c8.0498 0 16.1895 -3.21973 21.9092 -9.48926l69.7002 -74.0898
c3.4502 -3.69043 6.66992 -5.28027 10.6299 -5.26074c3.95996 0.00976562 7.16992 1.62012 10.5898 5.32031l68.71 73.2598c6.2002 7.04004 14.2305 10.2998 22.0801 10.2998c7.16016 0 14.1699 -2.71973 19.4902 -7.76953c5.07031 -4.7998 7.5 -10.5898 7.5 -16.5898
c0 -6.12988 -2.53027 -12.4697 -7.37012 -18.1797l-84.7598 -90.8701c-8.23047 -9.83008 -22 -18.1104 -36.0801 -18.1104c-17.6904 0 -32.8906 8.91016 -41.4307 19.4697zM141.58 700.118l224.112 0.0107422c103.31 0 185.67 -84.5 185.67 -183.46
c0 -89.5898 -68.9199 -165.09 -154.85 -176.47l-18.1797 -1.96973l158.02 -294.66c2.38965 -4.78027 3.44922 -9.08984 3.44922 -13.9199c0 -16.8398 -13.5098 -29.6094 -31.2695 -29.6094c-12.6904 0 -23.6709 8.55957 -28.0605 16.8896l-171.46 315.89h-153.36v-303.17
c0 -16.71 -13.04 -29.6104 -31.2705 -29.6104c-18.9004 0 -30.9707 13.1797 -30.9707 29.6094v623.51c0 26.8496 20.1104 46.96 48.1699 46.96zM155.633 390.349l210.06 -0.000976562c67.6504 0 125.101 57.4502 125.101 126.32c0 69.2002 -57.4805 125.94 -125.101 125.94
h-210.06v-252.26z" />
    <glyph glyph-name="Rcommaaccent" unicode="&#x156;" horiz-adv-x="609" 
d="M141.59 700.11l224.112 0.0107422c103.31 0 185.67 -84.5 185.67 -183.46c0 -89.5898 -68.9199 -165.09 -154.85 -176.47l-18.1797 -1.96973l158.02 -294.66c2.38965 -4.78027 3.44922 -9.08984 3.44922 -13.9199c0 -16.8398 -13.5098 -29.6094 -31.2695 -29.6094
c-12.6904 0 -23.6709 8.55957 -28.0605 16.8896l-171.46 315.89h-153.36v-303.17c0 -16.71 -13.04 -29.6104 -31.2705 -29.6104c-18.9004 0 -30.9707 13.1797 -30.9707 29.6094v623.51c0 26.8496 20.1104 46.96 48.1699 46.96zM155.643 390.341l210.06 -0.000976562
c67.6504 0 125.101 57.4502 125.101 126.32c0 69.2002 -57.4805 125.94 -125.101 125.94h-210.06v-252.26zM303.232 -120.99l0.00976562 57.0088c0 15 9.91016 26 25.5898 26c14.6396 0 26.5195 -12 26.5195 -26v-63c0 -35 -29.7695 -60 -56.3896 -67
c-14.5996 -2 -25.5693 7 -27.0195 20c-0.240234 1.15039 -0.370117 2.30078 -0.370117 3.45117c0 5.82031 3.24023 11.5303 11.8701 16.54c10.2803 6 19.79 18 19.79 33z" />
    <glyph glyph-name="S" unicode="S" horiz-adv-x="531" 
d="M269.45 0l-192.77 -0.0224609c-16.7197 0 -29.9795 13.71 -29.9795 28.6299c0 14.6104 13.2598 28.4502 29.9795 28.4502h192.76c101.16 0 155.17 42.7305 155.17 152.061c0 85.2695 -49.1504 102.72 -158.141 123.75c-116.59 22.8799 -219.77 43.96 -219.77 189.69
c0 129.19 85.2002 177.521 221.76 177.521h168.25c19.9199 0 31.96 -14.5195 31.96 -28.7598c0 -14.6201 -13.5801 -28.7598 -30.29 -28.7598h-169.92c-103.32 0 -161.49 -31.1299 -161.49 -120c0 -100.82 64.79 -114.12 171.13 -132.61
c129.72 -22.96 207.09 -57.0996 207.09 -180.819c0 -148.39 -76.2695 -209.13 -215.739 -209.13z" />
    <glyph glyph-name="Sacute" unicode="&#x15a;" horiz-adv-x="531" 
d="M178.97 834.96l150.688 71.7012c4.4502 2.12012 8.87988 3.08984 13.0898 3.08984c10.7402 0 20.0898 -6.30957 24.8594 -16.0596c1.98047 -4.05957 2.94043 -8.00977 2.94043 -11.7793c0 -10.7002 -7.71973 -19.96 -21.6494 -26.3604l-144.6 -67.1104
c-5.38965 -2.48047 -10.9395 -3.77051 -16.209 -3.77051c-9.7998 0 -18.6396 4.46973 -23.6797 14.0596c-1.96973 3.63965 -2.9502 7.55957 -2.9502 11.4795c0 9.59961 5.87988 19.2197 17.5098 24.75zM269.448 0.0410156l-192.77 -0.0224609
c-16.7197 0 -29.9795 13.71 -29.9795 28.6299c0 14.6104 13.2598 28.4502 29.9795 28.4502h192.76c101.16 0 155.17 42.7305 155.17 152.061c0 85.2695 -49.1504 102.72 -158.141 123.75c-116.59 22.8799 -219.77 43.96 -219.77 189.69
c0 129.19 85.2002 177.521 221.76 177.521h168.25c19.9199 0 31.96 -14.5195 31.96 -28.7598c0 -14.6201 -13.5801 -28.7598 -30.29 -28.7598h-169.92c-103.32 0 -161.49 -31.1299 -161.49 -120c0 -100.82 64.79 -114.12 171.13 -132.61
c129.72 -22.96 207.09 -57.0996 207.09 -180.819c0 -148.39 -76.2695 -209.13 -215.739 -209.13z" />
    <glyph glyph-name="Scaron" unicode="&#x160;" horiz-adv-x="531" 
d="M224.82 778.51l-82.0498 91.5889c-3.82031 4.30957 -5.66016 9.75977 -5.66016 15.2295c0 6.86035 2.88965 13.7607 8.37012 18.5205c5.12012 4.48047 11.71 6.6709 18.3604 6.6709c8.0498 0 16.1895 -3.21973 21.9092 -9.48926l69.7002 -74.0898
c3.4502 -3.69043 6.68066 -5.28027 10.6406 -5.26074c3.9502 0.00976562 7.16016 1.62012 10.5801 5.32031l68.71 73.2598c6.2002 7.04004 14.2305 10.2998 22.0801 10.2998c7.16016 0 14.1699 -2.71973 19.4902 -7.76953c5.07031 -4.7998 7.5 -10.5898 7.5 -16.5898
c0 -6.12988 -2.53027 -12.4697 -7.37012 -18.1797l-84.75 -90.8701c-8.23047 -9.83008 -22 -18.1104 -36.0801 -18.1104c-17.6904 0 -32.8906 8.91016 -41.4307 19.4697zM269.431 0.0390625l-192.77 -0.0224609c-16.7197 0 -29.9795 13.71 -29.9795 28.6299
c0 14.6104 13.2598 28.4502 29.9795 28.4502h192.76c101.16 0 155.17 42.7305 155.17 152.061c0 85.2695 -49.1504 102.72 -158.141 123.75c-116.59 22.8799 -219.77 43.96 -219.77 189.69c0 129.19 85.2002 177.521 221.76 177.521h168.25
c19.9199 0 31.96 -14.5195 31.96 -28.7598c0 -14.6201 -13.5801 -28.7598 -30.29 -28.7598h-169.92c-103.32 0 -161.49 -31.1299 -161.49 -120c0 -100.82 64.79 -114.12 171.13 -132.61c129.72 -22.96 207.09 -57.0996 207.09 -180.819
c0 -148.39 -76.2695 -209.13 -215.739 -209.13z" />
    <glyph glyph-name="Scedilla" unicode="&#x15e;" horiz-adv-x="531" 
d="M438.39 642.59l-169.919 -0.0322266c-103.32 0 -161.49 -31.1299 -161.49 -120c0 -100.82 64.79 -114.12 171.13 -132.61c129.72 -22.96 207.09 -57.0996 207.09 -180.819c0 -145.91 -73.6504 -206.92 -208.851 -208.97l-12.7598 -0.110352v-36.0703
c52.1602 0 68.46 -18 68.46 -68c0 -55 -25.8896 -75 -80.3994 -75h-32.1104c-12.8398 0 -19.5801 8 -19.5801 18c0 11 6.92969 19 17.4199 19h32.8604c28.5098 0 31.54 14 31.54 38c0 22 -3.20996 35 -31.1299 35c-18.8604 1 -27.96 13 -27.96 32v37.0303h-146
c-16.7197 0 -29.9795 13.71 -29.9795 28.6299c0 14.6104 13.2598 28.4502 29.9795 28.4502h192.76c101.16 0 155.17 42.7305 155.17 152.061c0 85.2695 -49.1504 102.72 -158.141 123.75c-116.59 22.8799 -219.77 43.96 -219.77 189.69
c0 129.19 85.2002 177.521 221.76 177.521h168.25c19.9199 0 31.96 -14.5195 31.96 -28.7598c0 -14.6201 -13.5801 -28.7598 -30.29 -28.7598z" />
    <glyph glyph-name="Scommaaccent" unicode="&#x218;" horiz-adv-x="531" 
d="M269.45 0l-192.77 -0.0224609c-16.7197 0 -29.9795 13.71 -29.9795 28.6299c0 14.6104 13.2598 28.4502 29.9795 28.4502h192.76c101.16 0 155.17 42.7305 155.17 152.061c0 85.2695 -49.1504 102.72 -158.141 123.75c-116.59 22.8799 -219.77 43.96 -219.77 189.69
c0 129.19 85.2002 177.521 221.76 177.521h168.25c19.9199 0 31.96 -14.5195 31.96 -28.7598c0 -14.6201 -13.5801 -28.7598 -30.29 -28.7598h-169.92c-103.32 0 -161.49 -31.1299 -161.49 -120c0 -100.82 64.79 -114.12 171.13 -132.61
c129.72 -22.96 207.09 -57.0996 207.09 -180.819c0 -148.39 -76.2695 -209.13 -215.739 -209.13zM240.061 -121.053l-0.000976562 57.0088c0 15 9.91016 26 25.6006 26c14.6396 0 26.5195 -12 26.5195 -26v-63c0 -35 -29.7695 -60 -56.3896 -67
c-14.5996 -2 -25.5693 7 -27.0195 20c-0.240234 1.15039 -0.370117 2.30078 -0.370117 3.45117c0 5.82031 3.24023 11.5303 11.8701 16.54c10.2803 6 19.79 18 19.79 33z" />
    <glyph glyph-name="Sdotbelow" unicode="&#x1e62;" horiz-adv-x="531" 
d="M269.45 0l-192.77 -0.0224609c-16.7197 0 -29.9795 13.71 -29.9795 28.6299c0 14.6104 13.2598 28.4502 29.9795 28.4502h192.76c101.16 0 155.17 42.7305 155.17 152.061c0 85.2695 -49.1504 102.72 -158.141 123.75c-116.59 22.8799 -219.77 43.96 -219.77 189.69
c0 129.19 85.2002 177.521 221.76 177.521h168.25c19.9199 0 31.96 -14.5195 31.96 -28.7598c0 -14.6201 -13.5801 -28.7598 -30.29 -28.7598h-169.92c-103.32 0 -161.49 -31.1299 -161.49 -120c0 -100.82 64.79 -114.12 171.13 -132.61
c129.72 -22.96 207.09 -57.0996 207.09 -180.819c0 -148.39 -76.2695 -209.13 -215.739 -209.13zM240.24 -112.053l-0.00976562 27c0 16 10.4297 28 28.3799 28c17.1602 0 29.4297 -11 29.4297 -28v-27c0 -15 -11.8701 -27 -29.4199 -27c-18.3604 0 -28.3799 12 -28.3799 27
z" />
    <glyph glyph-name="T" unicode="T" horiz-adv-x="583" 
d="M67.0195 699.97l447.949 0.0205078c19.9199 0 31.96 -14.5195 31.96 -28.7598c0 -14.6201 -13.5703 -28.7705 -29.9805 -28.5801h-193.18v-613.66c0 -15.1602 -14.8398 -28.9502 -30.6396 -28.9502c-17.7197 0 -30.9795 13.8398 -30.9795 28.7598v613.66h-195.13
c-16.2598 0 -30.29 14.0195 -30.29 28.7598c0 14.7305 14.0303 28.75 30.29 28.75z" />
    <glyph glyph-name="Tbar" unicode="&#x166;" horiz-adv-x="583" 
d="M177.47 927.17l229.87 -0.00976562c15.6201 0 27.1904 -10.6602 27.1904 -29.1201c0 -17.1602 -10.96 -28.6797 -27.1904 -28.6797h-229.86c-16.0801 0 -27.9502 11.6299 -27.9502 28.6797c0 18.3604 12.46 29.1299 27.9404 29.1299zM67.0195 699.95l447.949 0.0205078
c19.9199 0 31.96 -14.5195 31.96 -28.7598c0 -14.6201 -13.5703 -28.7705 -29.9805 -28.5801h-193.18v-613.66c0 -15.1602 -14.8398 -28.9502 -30.6396 -28.9502c-17.7197 0 -30.9795 13.8398 -30.9795 28.7598v613.66h-195.13c-16.2598 0 -30.29 14.0195 -30.29 28.7598
c0 14.7305 14.0303 28.75 30.29 28.75z" />
    <glyph glyph-name="Tcaron" unicode="&#x164;" horiz-adv-x="583" 
d="M250.86 777.85l-82.0596 91.5889c-3.82031 4.30957 -5.66016 9.75977 -5.66016 15.2295c0 6.86035 2.88965 13.7607 8.37012 18.5205c5.12012 4.48047 11.71 6.6709 18.3604 6.6709c8.0498 0 16.1895 -3.21973 21.9092 -9.48926l69.7002 -74.0898
c3.4502 -3.69043 6.68066 -5.28027 10.6406 -5.26074c3.95996 0.00976562 7.16992 1.62012 10.5898 5.32031l68.71 73.2598c6.2002 7.04004 14.2305 10.2998 22.0801 10.2998c7.16016 0 14.1699 -2.71973 19.4902 -7.76953c5.07031 -4.7998 7.5 -10.5898 7.5 -16.5898
c0 -6.12988 -2.53027 -12.4697 -7.37012 -18.1797l-84.75 -90.8701c-8.23047 -9.83008 -22 -18.1104 -36.0801 -18.1104c-17.6904 0 -32.8906 8.91016 -41.4307 19.4697zM66.9912 699.979l447.949 0.0205078c19.9199 0 31.96 -14.5195 31.96 -28.7598
c0 -14.6201 -13.5703 -28.7705 -29.9805 -28.5801h-193.18v-613.66c0 -15.1602 -14.8398 -28.9502 -30.6396 -28.9502c-17.7197 0 -30.9795 13.8398 -30.9795 28.7598v613.66h-195.13c-16.2598 0 -30.29 14.0195 -30.29 28.7598c0 14.7305 14.0303 28.75 30.29 28.75z" />
    <glyph glyph-name="Tcedilla" unicode="&#x162;" horiz-adv-x="583" 
d="M67.0195 699.97l447.88 0.00878906c19.9199 0 31.96 -14.5195 31.96 -28.7598c0 -14.6201 -13.5703 -28.7705 -29.9805 -28.5801h-193.13v-671.64c52.1602 0 67.46 -18 67.46 -67c0 -56 -25.8896 -75 -80.3994 -75h-32.1104c-12.8398 0 -19.5801 7 -19.5801 18
c0 10 6.92969 18 17.4199 18h32.8604c28.5098 0 31.54 15 31.54 38c0 2.53027 0.0195312 4.89062 0.0195312 7.08105c0 16.8799 -1.41992 23.9297 -26.1299 23.9297c-17.04 1 -27.8896 10 -28.0693 26v13c-16.3301 4 -24.3301 20 -24.6104 32.9199v636.53h-195.13
c-16.2598 0 -30.29 14.0195 -30.29 28.7598c0 14.7305 14.0303 28.75 30.29 28.75z" />
    <glyph glyph-name="Tcircumflexbelow" unicode="&#x1e70;" horiz-adv-x="583" 
d="M67.0195 699.97l447.949 0.0205078c19.9199 0 31.96 -14.5195 31.96 -28.7598c0 -14.6201 -13.5703 -28.7705 -29.9805 -28.5801h-193.18v-613.66c0 -15.1602 -14.8398 -28.9502 -30.6396 -28.9502c-17.7197 0 -30.9795 13.8398 -30.9795 28.7598v613.66h-195.13
c-16.2598 0 -30.29 14.0195 -30.29 28.7598c0 14.7305 14.0303 28.75 30.29 28.75zM281.829 -103.979l-69.6797 -73.9902c-5.83984 -6.15039 -14.2002 -9.49023 -22.4102 -9.49023c-6.48047 0 -12.8701 2.08008 -17.8604 6.49023
c-5.48047 4.4502 -8.37012 11.3799 -8.37012 18.3701c0 5.58008 1.83984 11.2002 5.66016 15.6406l82.0195 91c8.54004 11 23.7402 20 41.4307 20c14.0801 0 27.8496 -9 36.0801 -18l84.75 -91c4.83984 -5.55957 7.37012 -11.8799 7.37012 -18.0703
c0 -6.05957 -2.42969 -11.9893 -7.5 -16.9395c-5.33984 -4.79004 -12.3799 -7.52051 -19.5703 -7.52051c-7.82031 0 -15.8203 3.21973 -21.9902 10.5098l-68.71 73c-3.41992 3 -6.62988 5 -10.5898 5s-7.17969 -2 -10.6299 -5z" />
    <glyph glyph-name="uni021A" unicode="&#x21a;" horiz-adv-x="583" 
d="M67.0195 699.97l447.949 0.0205078c19.9199 0 31.96 -14.5195 31.96 -28.7598c0 -14.6201 -13.5703 -28.7705 -29.9805 -28.5801h-193.18v-613.66c0 -15.1602 -14.8398 -28.9502 -30.6396 -28.9502c-17.7197 0 -30.9795 13.8398 -30.9795 28.7598v613.66h-195.13
c-16.2598 0 -30.29 14.0195 -30.29 28.7598c0 14.7305 14.0303 28.75 30.29 28.75zM266.669 -120.979l-0.000976562 57.0088c0 15 9.91016 26 25.6006 26c14.6396 0 26.5195 -12 26.5195 -26v-63c0 -35 -29.7695 -60 -56.3896 -67c-14.5996 -2 -25.5693 7 -27.0195 20
c-0.240234 1.15039 -0.370117 2.30078 -0.370117 3.45117c0 5.82031 3.24023 11.5303 11.8701 16.54c10.2803 6 19.79 18 19.79 33z" />
    <glyph glyph-name="Tdotbelow" unicode="&#x1e6c;" horiz-adv-x="583" 
d="M67.0195 699.97l447.949 0.0205078c19.9199 0 31.96 -14.5195 31.96 -28.7598c0 -14.6201 -13.5703 -28.7705 -29.9805 -28.5801h-193.18v-613.66c0 -15.1602 -14.8398 -28.9502 -30.6396 -28.9502c-17.7197 0 -30.9795 13.8398 -30.9795 28.7598v613.66h-195.13
c-16.2598 0 -30.29 14.0195 -30.29 28.7598c0 14.7305 14.0303 28.75 30.29 28.75zM263.729 -111.979l-0.00976562 27c0 16 10.4297 28 28.3799 28c17.1602 0 29.4297 -11 29.4297 -28v-27c0 -15 -11.8701 -27 -29.4199 -27c-18.3604 0 -28.3799 12 -28.3799 27z" />
    <glyph glyph-name="Tlinebelow" unicode="&#x1e6e;" horiz-adv-x="583" 
d="M67.0195 699.97l447.949 0.0205078c19.9199 0 31.96 -14.5195 31.96 -28.7598c0 -14.6201 -13.5703 -28.7705 -29.9805 -28.5801h-193.18v-613.66c0 -15.1602 -14.8398 -28.9502 -30.6396 -28.9502c-17.7197 0 -30.9795 13.8398 -30.9795 28.7598v613.66h-195.13
c-16.2598 0 -30.29 14.0195 -30.29 28.7598c0 14.7305 14.0303 28.75 30.29 28.75zM190.919 -84.9795h202.57c15.6201 0 27.1904 -11 27.1904 -29c0 -17 -10.96 -29 -27.1904 -29h-202.57c-16.0703 0 -27.9404 12 -27.9404 29c0 19 12.46 29 27.9404 29z" />
    <glyph glyph-name="U" unicode="U" horiz-adv-x="660" 
d="M92 206.4l0.0185547 464.732c0 14.4902 14.4502 28.7598 31.6201 28.7598c16.4102 0 29.9805 -14.1396 29.9805 -28.7598v-464.74c0 -95.9404 61.4404 -150.45 125.4 -150.45h121.35c73.2002 0 116.49 60.2695 116.49 150.449v462.76
c0 18.1396 14.5 30.7393 30.29 30.7393c16.71 0 31.6201 -14.1396 31.6201 -28.7598v-464.74c0 -123.33 -67.6299 -208.39 -179.05 -208.39h-121.06c-99.54 0 -186.84 72.8398 -186.66 208.399z" />
    <glyph glyph-name="Uacute" unicode="&#xda;" horiz-adv-x="660" 
d="M243.35 830.98l150.688 71.7012c4.4502 2.12012 8.87988 3.08984 13.0898 3.08984c10.7402 0 20.0898 -6.30957 24.8594 -16.0596c1.98047 -4.05957 2.94043 -8.00977 2.94043 -11.7793c0 -10.7002 -7.71973 -19.96 -21.6494 -26.3604l-144.6 -67.1104
c-5.38965 -2.48047 -10.9395 -3.77051 -16.209 -3.77051c-9.7998 0 -18.6396 4.46973 -23.6797 14.0596c-1.96973 3.63965 -2.9502 7.55957 -2.9502 11.4795c0 9.59961 5.87988 19.2197 17.5098 24.75zM92.0781 206.412l0.0185547 464.732
c0 14.4902 14.4502 28.7598 31.6201 28.7598c16.4102 0 29.9805 -14.1396 29.9805 -28.7598v-464.74c0 -95.9404 61.4404 -150.45 125.4 -150.45h121.35c73.2002 0 116.49 60.2695 116.49 150.449v462.76c0 18.1396 14.5 30.7393 30.29 30.7393
c16.71 0 31.6201 -14.1396 31.6201 -28.7598v-464.74c0 -123.33 -67.6299 -208.39 -179.05 -208.39h-121.06c-99.54 0 -186.84 72.8398 -186.66 208.399z" />
    <glyph glyph-name="Ucaron" unicode="&#x1d3;" horiz-adv-x="660" 
d="M289.2 774.53l-82.0488 91.5889c-3.82031 4.30957 -5.66016 9.75977 -5.66016 15.2295c0 6.86035 2.88965 13.7607 8.37012 18.5205c5.12012 4.48047 11.71 6.6709 18.3604 6.6709c8.0498 0 16.1895 -3.21973 21.9092 -9.48926l69.7002 -74.0898
c3.4502 -3.69043 6.66992 -5.28027 10.6299 -5.26074c3.95996 0.00976562 7.16992 1.62012 10.5898 5.32031l68.71 73.2598c6.2002 7.04004 14.2305 10.2998 22.0801 10.2998c7.16016 0 14.1699 -2.71973 19.4902 -7.76953c5.07031 -4.7998 7.5 -10.5898 7.5 -16.5898
c0 -6.12988 -2.53027 -12.4697 -7.37012 -18.1797l-84.75 -90.8701c-8.23047 -9.83008 -22 -18.1104 -36.0801 -18.1104c-17.6904 0 -32.8906 8.91016 -41.4307 19.4697zM92.0518 206.409l0.0185547 464.732c0 14.4902 14.4502 28.7598 31.6201 28.7598
c16.4102 0 29.9805 -14.1396 29.9805 -28.7598v-464.74c0 -95.9404 61.4404 -150.45 125.4 -150.45h121.35c73.2002 0 116.49 60.2695 116.49 150.449v462.76c0 18.1396 14.5 30.7393 30.29 30.7393c16.71 0 31.6201 -14.1396 31.6201 -28.7598v-464.74
c0 -123.33 -67.6299 -208.39 -179.05 -208.39h-121.06c-99.54 0 -186.84 72.8398 -186.66 208.399z" />
    <glyph glyph-name="Ucircumflex" unicode="&#xdb;" horiz-adv-x="660" 
d="M319.85 846.8l-69.6709 -74.0811c-5.71973 -6.26953 -13.8594 -9.48926 -21.9092 -9.48926c-6.65039 0 -13.2402 2.19043 -18.3604 6.6709c-5.48047 4.75977 -8.37012 11.6602 -8.37012 18.5205c0 5.46973 1.83984 10.9199 5.66016 15.2295l82.0195 91.5801
c8.54004 10.5596 23.7402 19.4697 41.4307 19.4697c14.0801 0 27.8496 -8.28027 36.0801 -18.1104l84.75 -90.8701c4.83984 -5.70996 7.37012 -12.0498 7.37012 -18.1797c0 -6 -2.42969 -11.79 -7.5 -16.5898c-5.32031 -5.0498 -12.3301 -7.76953 -19.4902 -7.76953
c-7.84961 0 -15.8799 3.25977 -22.0801 10.2998l-68.71 73.2598c-3.41992 3.7002 -6.62988 5.31055 -10.5898 5.33008c-3.95996 0.00976562 -7.17969 -1.58008 -10.6299 -5.27051zM92.0986 206.398l0.0185547 464.732c0 14.4902 14.4502 28.7598 31.6201 28.7598
c16.4102 0 29.9805 -14.1396 29.9805 -28.7598v-464.74c0 -95.9404 61.4404 -150.45 125.4 -150.45h121.35c73.2002 0 116.49 60.2695 116.49 150.449v462.76c0 18.1396 14.5 30.7393 30.29 30.7393c16.71 0 31.6201 -14.1396 31.6201 -28.7598v-464.74
c0 -123.33 -67.6299 -208.39 -179.05 -208.39h-121.06c-99.54 0 -186.84 72.8398 -186.66 208.399z" />
    <glyph glyph-name="Udieresis" unicode="&#xdc;" horiz-adv-x="660" 
d="M377.75 848.44l0.000976562 27.3008c0 16.25 10.8896 27.9404 28.3799 27.9404c17.2998 0 29.1299 -11.8203 29.1299 -27.9404v-27.29c0 -15.46 -11.4297 -27.2002 -29.1299 -27.2002c-17.9004 0 -28.3809 11.5898 -28.3809 27.1895zM225.501 848.441v27.2998
c0 16.3701 11.3398 27.9404 28.3799 27.9404c17.5996 0 29.4297 -11.8203 29.4297 -27.9404v-27.29c0 -15.46 -11.4297 -27.2002 -29.4297 -27.2002c-17.4502 0 -28.3799 11.4805 -28.3799 27.1904zM92.0811 206.411l0.0185547 464.732
c0 14.4902 14.4502 28.7598 31.6201 28.7598c16.4102 0 29.9805 -14.1396 29.9805 -28.7598v-464.74c0 -95.9404 61.4404 -150.45 125.4 -150.45h121.35c73.2002 0 116.49 60.2695 116.49 150.449v462.76c0 18.1396 14.5 30.7393 30.29 30.7393
c16.71 0 31.6201 -14.1396 31.6201 -28.7598v-464.74c0 -123.33 -67.6299 -208.39 -179.05 -208.39h-121.06c-99.54 0 -186.84 72.8398 -186.66 208.399z" />
    <glyph glyph-name="Udieresisacute" unicode="&#x1d7;" horiz-adv-x="660" 
d="M248.27 914.87l150.688 71.7012c4.4502 2.12012 8.87988 3.08984 13.0898 3.08984c10.7402 0 20.0898 -6.30957 24.8594 -16.0596c1.98047 -4.05957 2.94043 -8.00977 2.94043 -11.7793c0 -10.7002 -7.71973 -19.96 -21.6494 -26.3604l-144.6 -67.1104
c-5.38965 -2.48047 -10.9395 -3.77051 -16.209 -3.77051c-9.7998 0 -18.6396 4.46973 -23.6797 14.0596c-1.96973 3.63965 -2.9502 7.55957 -2.9502 11.4795c0 9.59961 5.87988 19.2197 17.5098 24.75zM225.488 777.131v27.29c0 16.3701 11.3398 27.9404 28.3799 27.9404
c17.5996 0 29.4297 -11.8203 29.4297 -27.9404v-27.29c0 -15.4502 -11.4297 -27.1904 -29.4297 -27.1904c-17.4502 0 -28.3799 11.4805 -28.3799 27.1904zM377.738 777.131l0.000976562 27.291c0 16.25 10.8896 27.9404 28.3799 27.9404
c17.2998 0 29.1299 -11.8203 29.1299 -27.9404v-27.29c0 -15.46 -11.4297 -27.2002 -29.1299 -27.2002c-17.9004 0 -28.3809 11.5996 -28.3809 27.1992zM92.0693 206.392l0.0185547 464.732c0 14.4902 14.4502 28.7598 31.6201 28.7598
c16.4102 0 29.9805 -14.1396 29.9805 -28.7598v-464.74c0 -95.9404 61.4404 -150.45 125.4 -150.45h121.35c73.2002 0 116.49 60.2695 116.49 150.449v462.76c0 18.1396 14.5 30.7393 30.29 30.7393c16.71 0 31.6201 -14.1396 31.6201 -28.7598v-464.74
c0 -123.33 -67.6299 -208.39 -179.05 -208.39h-121.06c-99.54 0 -186.84 72.8398 -186.66 208.399z" />
    <glyph glyph-name="Udieresiscaron" unicode="&#x1d9;" horiz-adv-x="660" 
d="M292.28 867.25l-82.0391 91.5996c-3.82031 4.30957 -5.66016 9.75977 -5.66016 15.2295c0 6.86035 2.88965 13.7607 8.37012 18.5205c5.12012 4.48047 11.71 6.6709 18.3604 6.6709c8.0498 0 16.1895 -3.21973 21.9092 -9.5l69.7002 -74.0898
c3.4502 -3.69043 6.66992 -5.28027 10.6299 -5.27051c3.95996 0.0195312 7.16992 1.62988 10.5898 5.33008l68.71 73.2598c6.2002 7.04004 14.2305 10.2998 22.0801 10.2998c7.16016 0 14.1602 -2.71973 19.4805 -7.75977c5.07031 -4.7998 7.5 -10.5898 7.5 -16.5898
c0 -6.12988 -2.53027 -12.4697 -7.37012 -18.1797l-84.75 -90.8799c-8.23047 -9.83008 -22 -18.1104 -36.0801 -18.1104c-17.6904 0 -32.8906 8.91016 -41.4307 19.4697zM225.481 777.21v27.2998c0 16.3701 11.3398 27.9404 28.3799 27.9404
c17.5996 0 29.4297 -11.8203 29.4297 -27.9404v-27.29c0 -15.46 -11.4297 -27.2002 -29.4297 -27.2002c-17.4502 0 -28.3799 11.4805 -28.3799 27.1904zM377.731 777.229l0.000976562 27.291c0 16.25 10.8896 27.9404 28.3799 27.9404
c17.2998 0 29.1299 -11.8203 29.1299 -27.9404v-27.29c0 -15.46 -11.4297 -27.2002 -29.1299 -27.2002c-17.9004 0 -28.3809 11.5996 -28.3809 27.1992zM92.0625 206.431l0.0185547 464.732c0 14.4902 14.4502 28.7598 31.6201 28.7598
c16.4102 0 29.9805 -14.1396 29.9805 -28.7598v-464.74c0 -95.9404 61.4404 -150.45 125.4 -150.45h121.35c73.2002 0 116.49 60.2695 116.49 150.449v462.76c0 18.1396 14.5 30.7393 30.29 30.7393c16.71 0 31.6201 -14.1396 31.6201 -28.7598v-464.74
c0 -123.33 -67.6299 -208.39 -179.05 -208.39h-121.06c-99.54 0 -186.84 72.8398 -186.66 208.399z" />
    <glyph glyph-name="Udieresisgrave" unicode="&#x1db;" horiz-adv-x="660" 
d="M387 868.82l-148.432 68.8604c-10.5703 4.87012 -17.7803 14.2002 -17.7803 24.7803c0 3.75977 0.910156 7.67969 2.90039 11.6094c4.50977 9.83008 13.9199 16.0801 24.7002 16.0801c4.26953 0 8.75977 -0.980469 13.2402 -3.11035l150.7 -71.6904
c11.96 -5.69043 17.3301 -15.6504 17.3301 -25.0303c0 -3.95996 -0.959961 -7.82031 -2.78027 -11.21c-5.05957 -9.63965 -13.6299 -14.1992 -23.3896 -14.1992c-5.26953 0 -10.8896 1.33008 -16.4893 3.91016zM225.498 777.181v27.2998
c0 16.3701 11.3398 27.9404 28.3799 27.9404c17.5996 0 29.4297 -11.8203 29.4297 -27.9404v-27.29c0 -15.46 -11.4297 -27.2002 -29.4297 -27.2002c-17.4502 0 -28.3799 11.4805 -28.3799 27.1904zM377.748 777.2l0.000976562 27.291
c0 16.25 10.8896 27.9404 28.3799 27.9404c17.2998 0 29.1299 -11.8203 29.1299 -27.9404v-27.29c0 -15.46 -11.4297 -27.2002 -29.1299 -27.2002c-17.9004 0 -28.3809 11.5996 -28.3809 27.1992zM92.0791 206.401l0.0185547 464.732
c0 14.4902 14.4502 28.7598 31.6201 28.7598c16.4102 0 29.9805 -14.1396 29.9805 -28.7598v-464.74c0 -95.9404 61.4404 -150.45 125.4 -150.45h121.35c73.2002 0 116.49 60.2695 116.49 150.449v462.76c0 18.1396 14.5 30.7393 30.29 30.7393
c16.71 0 31.6201 -14.1396 31.6201 -28.7598v-464.74c0 -123.33 -67.6299 -208.39 -179.05 -208.39h-121.06c-99.54 0 -186.84 72.8398 -186.66 208.399z" />
    <glyph glyph-name="Udieresismacron" unicode="&#x1d5;" horiz-adv-x="660" 
d="M230.86 962.94l202.57 0.00976562c15.6201 0 27.1904 -10.6699 27.1904 -29.1299c0 -17.1602 -10.96 -28.6797 -27.1904 -28.6797h-202.57c-16.0703 0 -27.9404 11.6299 -27.9404 28.6699c0 18.3604 12.46 29.1299 27.9404 29.1299zM225.49 777.41v27.2998
c0 16.3701 11.3398 27.9404 28.3799 27.9404c17.5996 0 29.4297 -11.8203 29.4297 -27.9404v-27.29c0 -15.46 -11.4297 -27.2002 -29.4297 -27.2002c-17.4502 0 -28.3799 11.4805 -28.3799 27.1904zM377.74 777.42l0.000976562 27.3008
c0 16.25 10.8896 27.9404 28.3799 27.9404c17.2998 0 29.1299 -11.8203 29.1299 -27.9404v-27.29c0 -15.46 -11.4297 -27.2002 -29.1299 -27.2002c-17.9004 0 -28.3809 11.5898 -28.3809 27.1895zM92.0713 206.411l0.0185547 464.732
c0 14.4902 14.4502 28.7598 31.6201 28.7598c16.4102 0 29.9805 -14.1396 29.9805 -28.7598v-464.74c0 -95.9404 61.4404 -150.45 125.4 -150.45h121.35c73.2002 0 116.49 60.2695 116.49 150.449v462.76c0 18.1396 14.5 30.7393 30.29 30.7393
c16.71 0 31.6201 -14.1396 31.6201 -28.7598v-464.74c0 -123.33 -67.6299 -208.39 -179.05 -208.39h-121.06c-99.54 0 -186.84 72.8398 -186.66 208.399z" />
    <glyph glyph-name="Udotbelow" unicode="&#x1ee4;" horiz-adv-x="660" 
d="M92 206.4l0.0185547 464.732c0 14.4902 14.4502 28.7598 31.6201 28.7598c16.4102 0 29.9805 -14.1396 29.9805 -28.7598v-464.74c0 -95.9404 61.4404 -150.45 125.4 -150.45h121.35c73.2002 0 116.49 60.2695 116.49 150.449v462.76
c0 18.1396 14.5 30.7393 30.29 30.7393c16.71 0 31.6201 -14.1396 31.6201 -28.7598v-464.74c0 -123.33 -67.6299 -208.39 -179.05 -208.39h-121.06c-99.54 0 -186.84 72.8398 -186.66 208.399zM306.499 -111.997l-0.00976562 27c0 16 10.4297 28 28.3799 28
c17.1602 0 29.4297 -11 29.4297 -28v-27c0 -15 -11.8701 -27 -29.4199 -27c-18.3604 0 -28.3799 12 -28.3799 27z" />
    <glyph glyph-name="Ugrave" unicode="&#xd9;" horiz-adv-x="660" 
d="M392.07 784.45l-148.432 68.8506c-10.5703 4.87012 -17.7803 14.2002 -17.7803 24.7803c0 3.75977 0.910156 7.67969 2.91016 11.6094c4.50977 9.83008 13.9199 16.0801 24.7002 16.0801c4.26953 0 8.75977 -0.980469 13.2402 -3.11035l150.69 -71.6904
c11.96 -5.69043 17.3301 -15.6406 17.3301 -25.0205c0 -3.95996 -0.959961 -7.82031 -2.78027 -11.21c-5.05957 -9.63965 -13.6299 -14.1992 -23.3896 -14.1992c-5.26953 0 -10.8896 1.33008 -16.4893 3.91016zM92.0791 206.381l0.0185547 464.732
c0 14.4902 14.4502 28.7598 31.6201 28.7598c16.4102 0 29.9805 -14.1396 29.9805 -28.7598v-464.74c0 -95.9404 61.4404 -150.45 125.4 -150.45h121.35c73.2002 0 116.49 60.2695 116.49 150.449v462.76c0 18.1396 14.5 30.7393 30.29 30.7393
c16.71 0 31.6201 -14.1396 31.6201 -28.7598v-464.74c0 -123.33 -67.6299 -208.39 -179.05 -208.39h-121.06c-99.54 0 -186.84 72.8398 -186.66 208.399z" />
    <glyph glyph-name="Uhungarumlaut" unicode="&#x170;" horiz-adv-x="660" 
d="M135.14 830.98l150.697 71.7109c4.48047 2.12988 8.9707 3.11035 13.2402 3.11035c10.7803 0 20.1904 -6.25 24.7002 -16.0801c1.98047 -3.91016 2.94043 -7.78027 2.94043 -11.5205c0 -10.6299 -7.71973 -20.2197 -21.6494 -26.6201l-144.6 -67.1104
c-5.41992 -2.49023 -10.9795 -3.79004 -16.249 -3.79004c-9.7998 0 -18.5996 4.48047 -23.6396 14.0703c-1.96973 3.63965 -2.9502 7.55957 -2.9502 11.4795c0 9.59961 5.87988 19.2197 17.5098 24.75zM351.557 831.001l150.688 71.7119
c4.48047 2.12988 8.9707 3.11035 13.2402 3.11035c10.7803 0 20.1904 -6.25 24.7002 -16.0801c1.98047 -3.91016 2.94043 -7.78027 2.94043 -11.5205c0 -10.6299 -7.71973 -20.2197 -21.6494 -26.6201l-144.6 -67.1104
c-5.40039 -2.49023 -10.9502 -3.78027 -16.2197 -3.78027c-9.7998 0 -18.6201 4.46973 -23.6602 14.0596c-1.96973 3.63965 -2.9502 7.55957 -2.9502 11.4795c0 9.59961 5.87988 19.2197 17.5098 24.75zM92.0752 206.443l0.0185547 464.732
c0 14.4902 14.4502 28.7598 31.6201 28.7598c16.4102 0 29.9805 -14.1396 29.9805 -28.7598v-464.74c0 -95.9404 61.4404 -150.45 125.4 -150.45h121.35c73.2002 0 116.49 60.2695 116.49 150.449v462.76c0 18.1396 14.5 30.7393 30.29 30.7393
c16.71 0 31.6201 -14.1396 31.6201 -28.7598v-464.74c0 -123.33 -67.6299 -208.39 -179.05 -208.39h-121.06c-99.54 0 -186.84 72.8398 -186.66 208.399z" />
    <glyph glyph-name="Umacron" unicode="&#x16a;" horiz-adv-x="660" 
d="M230.86 927.17l202.57 -0.00976562c15.6201 0 27.1904 -10.6602 27.1904 -29.1201c0 -17.1602 -10.96 -28.6797 -27.1904 -28.6797h-202.57c-16.0703 0 -27.9404 11.6299 -27.9404 28.6797c0 18.3604 12.46 29.1299 27.9404 29.1299zM92.0811 206.38l0.0185547 464.732
c0 14.4902 14.4502 28.7598 31.6201 28.7598c16.4102 0 29.9805 -14.1396 29.9805 -28.7598v-464.74c0 -95.9404 61.4404 -150.45 125.4 -150.45h121.35c73.2002 0 116.49 60.2695 116.49 150.449v462.76c0 18.1396 14.5 30.7393 30.29 30.7393
c16.71 0 31.6201 -14.1396 31.6201 -28.7598v-464.74c0 -123.33 -67.6299 -208.39 -179.05 -208.39h-121.06c-99.54 0 -186.84 72.8398 -186.66 208.399z" />
    <glyph glyph-name="Uogonek" unicode="&#x172;" horiz-adv-x="660" 
d="M516.93 206.4l0.0390625 462.749c0 18.1396 14.5 30.7393 30.29 30.7393c16.71 0 31.6201 -14.1396 31.6201 -28.7598v-464.74c0 -123.33 -67.6299 -208.39 -179.05 -208.39h-7.91992c-18.25 -25.9102 -28.3496 -51.8203 -28.3496 -72.9502
c0 -4.96973 0.55957 -9.67969 1.69922 -14.0596c3.16016 -12.4199 15.3301 -22.04 28.54 -22.04c9.12988 0 18.7598 4.59961 26.2598 16.04c4.61035 7.48047 8.2207 11.5107 15.3105 11.5107c1.44043 0 3.03027 -0.169922 4.7998 -0.509766
c8.7998 -0.839844 15.3193 -6.57031 15.3193 -14.2705c0 -1.50977 -0.25 -3.08984 -0.780273 -4.72949c-11 -29.6699 -37.1396 -43.5098 -62.71 -43.5098c-30.4502 0 -60.0898 19.6201 -62.3594 55.5c-0.259766 2.73047 -0.379883 5.43066 -0.379883 8.09082
c0 34.4404 20.6504 63.2803 35.8604 80.9199h-86.3701c-99.54 0 -186.84 72.8398 -186.66 208.399v464.74c0 14.4902 14.4502 28.7598 31.6201 28.7598c16.4102 0 29.9805 -14.1396 29.9805 -28.7598v-464.74c0 -95.9404 61.4404 -150.45 125.4 -150.45h121.35
c73.2002 0 116.49 60.2695 116.49 150.46z" />
    <glyph glyph-name="Uring" unicode="&#x16e;" horiz-adv-x="660" 
d="M330.21 923.73c55.3604 0 101.31 -45.9502 101.31 -99.3203c0 -54.4004 -45.9199 -99.6602 -101.32 -99.6602c-55.7695 0 -100.979 45.21 -100.979 99.6602c0 53.4102 45.2598 99.3203 100.99 99.3203zM330.529 877.88c-28.7002 0 -51.7988 -24.3301 -51.7988 -53.4502
c0 -30.0098 22.8496 -53.4697 51.8096 -53.4697c28.3398 0 51.7998 23.5898 51.7998 53.46c0 28.9902 -23.7305 53.46 -51.8105 53.46zM92.0811 206.42l0.0185547 464.732c0 14.4902 14.4502 28.7598 31.6201 28.7598c16.4102 0 29.9805 -14.1396 29.9805 -28.7598v-464.74
c0 -95.9404 61.4404 -150.45 125.4 -150.45h121.35c73.2002 0 116.49 60.2695 116.49 150.449v462.76c0 18.1396 14.5 30.7393 30.29 30.7393c16.71 0 31.6201 -14.1396 31.6201 -28.7598v-464.74c0 -123.33 -67.6299 -208.39 -179.05 -208.39h-121.06
c-99.54 0 -186.84 72.8398 -186.66 208.399z" />
    <glyph glyph-name="Utilde" unicode="&#x168;" horiz-adv-x="660" 
d="M270.35 883.95c36.1699 1.62988 54.5693 -13.2197 71.1494 -26.8398c16.7598 -13.7998 32.3799 -28.3398 57.21 -26.3594c14.4004 1.15039 32.46 16.2207 45.9902 28.3203c4.25 4.49023 9.87988 6.39062 15.6104 6.39062c7.90039 0 16 -3.59961 20.9902 -8.95996
c4.36035 -4.67969 6.64062 -10.9492 6.64062 -17.3389c0 -6.36035 -2.25977 -12.8408 -6.96973 -17.9912c-16.8096 -15.9805 -54.0996 -44.25 -81.0898 -46.0703c-36.1104 -2.58008 -55.6602 15.1602 -76.4199 31.6201c-14.1699 11.4902 -28.9004 23.4902 -47.1602 23.4902
c-2.19043 0 -4.43066 -0.169922 -6.73047 -0.540039c-17.0801 -2.62988 -35.46 -14.7295 -52.5898 -29.5996c-5.51953 -4.37988 -11.2598 -6.13965 -16.6602 -6.13965c-7.71973 0 -14.7598 3.58984 -19.4902 8.26953c-5.62988 5.55957 -7.95996 11.4893 -7.95996 17.249
c0 7.96973 4.48047 15.6094 10.8604 21.4893c26.6299 23.54 56.8496 41.8096 86.6191 43.0098zM92.0693 206.411l0.0185547 464.732c0 14.4902 14.4502 28.7598 31.6201 28.7598c16.4102 0 29.9805 -14.1396 29.9805 -28.7598v-464.74
c0 -95.9404 61.4404 -150.45 125.4 -150.45h121.35c73.2002 0 116.49 60.2695 116.49 150.449v462.76c0 18.1396 14.5 30.7393 30.29 30.7393c16.71 0 31.6201 -14.1396 31.6201 -28.7598v-464.74c0 -123.33 -67.6299 -208.39 -179.05 -208.39h-121.06
c-99.54 0 -186.84 72.8398 -186.66 208.399z" />
    <glyph glyph-name="V" unicode="V" horiz-adv-x="579" 
d="M313.3 75.9502l167.26 598.52c4.15039 14.8604 14.7207 26.0303 35.6504 25.1406c18.1904 -0.730469 26.5703 -14.79 26.5703 -28.5996c0 -2.82031 -0.349609 -5.62988 -1.04004 -8.30957l-166.82 -601.75c-9.62988 -34.75 -44.5801 -60.9102 -85.0801 -60.9102
c-42.6904 0 -76.1309 27.4502 -86.1211 63.5898l-165.87 599.06c-0.679688 2.48047 -1.00977 4.99023 -1.00977 7.4707c0 14.8799 11.71 28.7197 28.1396 29.4395c20.1699 0.860352 30.3096 -11.71 34.2393 -25.79l166.95 -597.86
c3.36035 -12.0195 10.9707 -17.7998 23.6807 -17.7998c12.4805 0 20.0908 5.78027 23.4512 17.7998z" />
    <glyph glyph-name="W" unicode="W" horiz-adv-x="750" 
d="M118.98 61.9199l-81.9766 605.353c-0.200195 1.46973 -0.299805 2.89941 -0.299805 4.2793c0 18.3896 17.0996 28.5693 31.5596 28.5693c17.6104 0 29.8506 -12.5098 31.6904 -26.54l78.0703 -595.89c1.7002 -12.9502 5.98047 -18.7197 12.54 -19.54
c6.83008 -0.860352 12.0996 5.08984 16.7393 16.1797l133.35 318.75c4.37012 10.4502 16.5205 22.3701 35.0508 22.3701c16.7002 0 28.79 -8.2998 33.9902 -20.79l133.49 -320.32c4.62988 -11.0996 9.91992 -17 16.8096 -16.2002
c6.62988 0.769531 10.9395 6.5791 12.6592 19.5195l79.54 598.14c1.76953 13.3496 14.3691 24.1592 30.999 24.1592c18.2305 0 33.4707 -13.54 30.791 -33.3096l-81.9004 -604.94c-5.36035 -36.5596 -33.8408 -61.6797 -72.5205 -61.6797
c-32.6104 0 -59.2607 20.1904 -70.0508 44.4902l-113.9 275.29l-115.07 -275.88c-10.2695 -24.3896 -37.2598 -43.8994 -69.2998 -43.8994c-38.9902 0 -67.7803 26.6699 -72.2607 61.8896z" />
    <glyph glyph-name="Wacute" unicode="&#x1e82;" horiz-adv-x="750" 
d="M288.7 830.98l150.688 71.7012c4.4502 2.12012 8.87988 3.08984 13.0898 3.08984c10.7402 0 20.0898 -6.30957 24.8594 -16.0596c1.98047 -4.05957 2.94043 -8.00977 2.94043 -11.7793c0 -10.7002 -7.71973 -19.96 -21.6494 -26.3604l-144.6 -67.1104
c-5.38965 -2.48047 -10.9395 -3.77051 -16.209 -3.77051c-9.7998 0 -18.6396 4.46973 -23.6797 14.0596c-1.96973 3.63965 -2.9502 7.55957 -2.9502 11.4795c0 9.59961 5.87988 19.2197 17.5098 24.75zM118.979 61.9316l-81.9854 605.353
c-0.200195 1.46973 -0.299805 2.89941 -0.299805 4.2793c0 18.3896 17.0996 28.5693 31.5693 28.5693c17.5996 0 29.8398 -12.5098 31.6797 -26.54l78.0703 -595.89c1.7002 -12.9502 5.98047 -18.7197 12.54 -19.54c6.83008 -0.860352 12.0996 5.08984 16.7393 16.1797
l133.35 318.75c4.37012 10.4502 16.5205 22.3701 35.0508 22.3701c16.7002 0 28.79 -8.2998 33.9902 -20.79l133.49 -320.32c4.62988 -11.0996 9.92969 -17 16.8193 -16.2002c6.62988 0.769531 10.9395 6.5791 12.6592 19.5195l79.54 598.14
c1.76953 13.3496 14.3691 24.1592 30.999 24.1592c18.2305 0 33.4707 -13.54 30.791 -33.3096l-81.9004 -604.94c-5.36035 -36.5596 -33.8408 -61.6797 -72.5205 -61.6797c-32.6104 0 -59.2607 20.1904 -70.0508 44.4902l-113.9 275.29l-115.07 -275.88
c-10.2695 -24.3896 -37.2598 -43.8994 -69.2998 -43.8994c-38.9902 0 -67.7803 26.6699 -72.2607 61.8896z" />
    <glyph glyph-name="Wcircumflex" unicode="&#x174;" horiz-adv-x="750" 
d="M365.2 846.8l-69.6807 -74.0811c-5.71973 -6.26953 -13.8496 -9.48926 -21.8994 -9.48926c-6.65039 0 -13.2402 2.19043 -18.3604 6.6709c-5.48047 4.75977 -8.37012 11.6602 -8.37012 18.5205c0 5.46973 1.83984 10.9199 5.66016 15.2295l82.0195 91.5801
c8.54004 10.5596 23.7402 19.4697 41.4307 19.4697c14.0801 0 27.8496 -8.28027 36.0801 -18.1104l84.75 -90.8701c4.83984 -5.70996 7.37012 -12.0498 7.37012 -18.1797c0 -6 -2.42969 -11.79 -7.5 -16.5898c-5.32031 -5.0498 -12.3301 -7.76953 -19.4902 -7.76953
c-7.84961 0 -15.8799 3.25977 -22.0801 10.2998l-68.71 73.2598c-3.41992 3.7002 -6.62988 5.31055 -10.5898 5.33008c-3.95996 0.00976562 -7.17969 -1.58008 -10.6299 -5.27051zM119 61.9189l-81.9854 605.343c-0.200195 1.46973 -0.299805 2.89941 -0.299805 4.2793
c0 18.3896 17.0996 28.5693 31.5693 28.5693c17.5996 0 29.8398 -12.5098 31.6797 -26.54l78.0703 -595.89c1.7002 -12.9502 5.98047 -18.71 12.54 -19.5303c6.83008 -0.860352 12.0996 5.08984 16.7393 16.1797l133.35 318.75
c4.37012 10.4502 16.5205 22.3701 35.0508 22.3701c16.7002 0 28.79 -8.2998 33.9902 -20.79l133.49 -320.32c4.62988 -11.0996 9.92969 -17 16.8193 -16.2002c6.62988 0.769531 10.9395 6.5791 12.6592 19.5195l79.54 598.14
c1.76953 13.3496 14.3691 24.1592 30.999 24.1592c18.2305 0 33.4707 -13.54 30.791 -33.3096l-81.9004 -604.94c-5.36035 -36.5596 -33.8408 -61.6797 -72.5205 -61.6797c-32.6104 0 -59.2607 20.1904 -70.0508 44.4902l-113.9 275.29l-115.07 -275.88
c-10.2695 -24.3896 -37.2598 -43.8994 -69.2998 -43.8994c-38.9902 0 -67.7803 26.6699 -72.2607 61.8896z" />
    <glyph glyph-name="Wdieresis" unicode="&#x1e84;" horiz-adv-x="750" 
d="M270.84 848.43l-0.00976562 27.2998c0 16.3701 11.3398 27.9404 28.3799 27.9404c17.5996 0 29.4297 -11.8203 29.4297 -27.9404v-27.29c0 -15.46 -11.4297 -27.2002 -29.4199 -27.2002c-17.4502 0 -28.3799 11.4805 -28.3799 27.1904zM423.08 848.439
l-0.00878906 27.3008c0 16.25 10.8896 27.9404 28.3896 27.9404c17.2998 0 29.1299 -11.8203 29.1299 -27.9404v-27.2998c0 -15.4502 -11.4297 -27.1904 -29.1299 -27.1904c-17.9004 0 -28.3809 11.5898 -28.3809 27.1895zM118.961 61.9199l-81.9854 605.343
c-0.200195 1.46973 -0.299805 2.89941 -0.299805 4.2793c0 18.3896 17.0996 28.5693 31.5693 28.5693c17.5996 0 29.8398 -12.5098 31.6797 -26.54l78.0703 -595.89c1.7002 -12.9502 5.98047 -18.71 12.54 -19.5303c6.83008 -0.860352 12.0996 5.08984 16.7393 16.1797
l133.35 318.75c4.37012 10.4502 16.5205 22.3701 35.0508 22.3701c16.7002 0 28.79 -8.2998 33.9902 -20.79l133.49 -320.32c4.62988 -11.0996 9.92969 -17 16.8193 -16.2002c6.62988 0.769531 10.9395 6.5791 12.6592 19.5195l79.54 598.14
c1.76953 13.3496 14.3691 24.1592 30.999 24.1592c18.2305 0 33.4707 -13.54 30.791 -33.3096l-81.9004 -604.94c-5.36035 -36.5596 -33.8408 -61.6797 -72.5205 -61.6797c-32.6104 0 -59.2607 20.1904 -70.0508 44.4902l-113.9 275.29l-115.07 -275.88
c-10.2695 -24.3896 -37.2598 -43.8994 -69.2998 -43.8994c-38.9902 0 -67.7803 26.6699 -72.2607 61.8896z" />
    <glyph glyph-name="Wgrave" unicode="&#x1e80;" horiz-adv-x="750" 
d="M437.42 784.45l-148.422 68.8506c-10.5703 4.87012 -17.7803 14.2002 -17.7803 24.7803c0 3.75977 0.910156 7.67969 2.90039 11.6094c4.50977 9.83008 13.9199 16.0801 24.7002 16.0801c4.26953 0 8.75977 -0.980469 13.2402 -3.11035l150.69 -71.6904
c11.96 -5.69043 17.3301 -15.6406 17.3301 -25.0205c0 -3.95996 -0.959961 -7.82031 -2.78027 -11.21c-5.05957 -9.63965 -13.6299 -14.1992 -23.3896 -14.1992c-5.26953 0 -10.8896 1.33008 -16.4893 3.91016zM118.998 61.9004l-81.9854 605.353
c-0.200195 1.46973 -0.299805 2.89941 -0.299805 4.2793c0 18.3896 17.0996 28.5693 31.5693 28.5693c17.5996 0 29.8398 -12.5098 31.6797 -26.54l78.0703 -595.89c1.7002 -12.9502 5.98047 -18.7197 12.54 -19.54c6.83008 -0.860352 12.0996 5.08984 16.7393 16.1797
l133.35 318.75c4.37012 10.4502 16.5205 22.3701 35.0508 22.3701c16.7002 0 28.79 -8.2998 33.9902 -20.79l133.49 -320.32c4.62988 -11.0996 9.92969 -17 16.8193 -16.2002c6.62988 0.769531 10.9395 6.5791 12.6592 19.5195l79.54 598.14
c1.76953 13.3496 14.3691 24.1592 30.999 24.1592c18.2305 0 33.4707 -13.54 30.791 -33.3096l-81.9004 -604.94c-5.36035 -36.5596 -33.8408 -61.6797 -72.5205 -61.6797c-32.6104 0 -59.2607 20.1904 -70.0508 44.4902l-113.9 275.29l-115.07 -275.88
c-10.2695 -24.3896 -37.2598 -43.8994 -69.2998 -43.8994c-38.9902 0 -67.7803 26.6699 -72.2607 61.8896z" />
    <glyph glyph-name="X" unicode="X" horiz-adv-x="554" 
d="M278.31 397.41l183.358 288.911c4.69043 7.50977 13.9102 13.7998 25.9004 13.7998c18.2305 0 30.5 -13.7695 30.5 -29.75c0 -5.04004 -1.16992 -10.3604 -5.45996 -17.0908l-193.09 -306.22l193.81 -302.11c3.17969 -4.99023 5.50977 -10.3604 5.50977 -15.3105
c0 -16.71 -13.04 -29.6104 -31.2705 -29.6104c-11.8096 0 -21.0898 6.2002 -26.2695 14.4102l-182.35 284.71l-184.35 -285.37c-4.5498 -7.44043 -15.5693 -13.7607 -26.5889 -13.7607c-18.71 0 -31.2695 13.04 -31.2695 29.6104c0 4.90039 1.53027 10.3906 5.60059 15.9609
l196.37 301.44l-198.87 311.66c-2.65039 4.9502 -3.10059 8.65039 -3.10059 11.6699c0 16.5703 12.5596 29.75 31.2695 29.75c11.4902 0 20.2803 -5.37988 26.7998 -15.6699z" />
    <glyph glyph-name="Y" unicode="Y" horiz-adv-x="547" 
d="M275.16 388.57l177.082 295.771c4.58984 7.75977 13.6602 14.8896 25.7598 14.8896c1.55957 0 3.16992 -0.120117 4.83008 -0.370117c18.7803 -1.59961 27.8799 -15.6094 27.8799 -28.999c0 -4.94043 -1.24023 -9.79004 -3.69043 -13.9102l-200.51 -337.12v-289.18
c0 -16.71 -13.04 -29.6104 -31.2705 -29.6104s-31.2705 12.9004 -31.2705 29.6104v289.17l-202.57 334.74c-3.07031 5 -4.60059 10.6396 -4.60059 16.1992c0 13.75 9.34961 27 27.8301 28.8496c2.01953 0.410156 4 0.610352 5.92969 0.610352
c10.0303 0 18.7305 -5.36035 24.1807 -14.3906z" />
    <glyph glyph-name="Yacute" unicode="&#xdd;" horiz-adv-x="547" 
d="M187 830.98l150.688 71.7012c4.4502 2.12012 8.87988 3.08984 13.0898 3.08984c10.7402 0 20.0898 -6.30957 24.8594 -16.0596c1.98047 -4.05957 2.94043 -8.00977 2.94043 -11.7793c0 -10.7002 -7.71973 -19.96 -21.6494 -26.3604l-144.6 -67.1104
c-5.38965 -2.48047 -10.9395 -3.77051 -16.209 -3.77051c-9.7998 0 -18.6396 4.46973 -23.6797 14.0596c-1.96973 3.63965 -2.9502 7.55957 -2.9502 11.4795c0 9.59961 5.87988 19.2197 17.5098 24.75zM275.148 388.582l177.082 295.771
c4.58984 7.75977 13.6602 14.8896 25.7598 14.8896c1.55957 0 3.16992 -0.120117 4.83008 -0.370117c18.7803 -1.59961 27.8799 -15.6094 27.8799 -28.999c0 -4.94043 -1.24023 -9.79004 -3.69043 -13.9102l-200.51 -337.12v-289.18
c0 -16.71 -13.04 -29.6104 -31.2705 -29.6104s-31.2705 12.9004 -31.2705 29.6104v289.17l-202.57 334.74c-3.07031 5 -4.60059 10.6396 -4.60059 16.1992c0 13.75 9.34961 27 27.8301 28.8496c2.01953 0.410156 4 0.610352 5.92969 0.610352
c10.0303 0 18.7305 -5.36035 24.1807 -14.3906z" />
    <glyph glyph-name="Ycircumflex" unicode="&#x176;" horiz-adv-x="547" 
d="M263.5 846.8l-69.6797 -74.0811c-5.71973 -6.26953 -13.8496 -9.48926 -21.8994 -9.48926c-6.65039 0 -13.2402 2.19043 -18.3604 6.6709c-5.48047 4.75977 -8.37012 11.6602 -8.37012 18.5205c0 5.46973 1.83984 10.9199 5.66016 15.2295l82.0195 91.5801
c8.54004 10.5596 23.7402 19.4697 41.4307 19.4697c14.0801 0 27.8496 -8.28027 36.0801 -18.1104l84.75 -90.8701c4.83984 -5.70996 7.37012 -12.0498 7.37012 -18.1797c0 -6 -2.42969 -11.79 -7.5 -16.5898c-5.32031 -5.0498 -12.3301 -7.76953 -19.4902 -7.76953
c-7.84961 0 -15.8799 3.25977 -22.0801 10.2998l-68.71 73.2598c-3.41992 3.7002 -6.62988 5.31055 -10.5801 5.33008c-3.95996 0.00976562 -7.19043 -1.58008 -10.6406 -5.27051zM275.17 388.568l177.082 295.771c4.58984 7.75977 13.6602 14.8896 25.7598 14.8896
c1.55957 0 3.16992 -0.120117 4.83008 -0.370117c18.7803 -1.59961 27.8799 -15.6094 27.8799 -28.999c0 -4.94043 -1.24023 -9.79004 -3.69043 -13.9102l-200.51 -337.12v-289.18c0 -16.71 -13.04 -29.6104 -31.2705 -29.6104s-31.2705 12.9004 -31.2705 29.6104v289.17
l-202.57 334.74c-3.07031 5 -4.60059 10.6396 -4.60059 16.1992c0 13.75 9.34961 27 27.8301 28.8496c2.01953 0.410156 4 0.610352 5.92969 0.610352c10.0303 0 18.7305 -5.36035 24.1807 -14.3906z" />
    <glyph glyph-name="Ydieresis" unicode="&#x178;" horiz-adv-x="547" 
d="M321.4 848.44l0.000976562 27.3008c0 16.25 10.8896 27.9404 28.3799 27.9404c17.2998 0 29.1299 -11.8203 29.1299 -27.9404v-27.2998c0 -15.4502 -11.4297 -27.1904 -29.1299 -27.1904c-17.9004 0 -28.3809 11.5898 -28.3809 27.1895zM169.151 848.441
l-0.00976562 27.2998c0 16.3701 11.3398 27.9404 28.3799 27.9404c17.5996 0 29.4297 -11.8203 29.4297 -27.9404v-27.29c0 -15.46 -11.4297 -27.2002 -29.4199 -27.2002c-17.4502 0 -28.3799 11.4805 -28.3799 27.1904zM275.151 388.581l177.082 295.771
c4.58984 7.75977 13.6602 14.8896 25.7598 14.8896c1.55957 0 3.16992 -0.120117 4.83008 -0.370117c18.7803 -1.59961 27.8799 -15.6094 27.8799 -28.999c0 -4.94043 -1.24023 -9.79004 -3.69043 -13.9102l-200.51 -337.12v-289.18
c0 -16.71 -13.04 -29.6104 -31.2705 -29.6104s-31.2705 12.9004 -31.2705 29.6104v289.17l-202.57 334.74c-3.07031 5 -4.60059 10.6396 -4.60059 16.1992c0 13.75 9.34961 27 27.8301 28.8496c2.01953 0.410156 4 0.610352 5.92969 0.610352
c10.0303 0 18.7305 -5.36035 24.1807 -14.3906z" />
    <glyph glyph-name="Ygrave" unicode="&#x1ef2;" horiz-adv-x="547" 
d="M335.72 784.45l-148.432 68.8506c-10.5703 4.87012 -17.7803 14.2002 -17.7803 24.7803c0 3.75977 0.910156 7.67969 2.91016 11.6094c4.50977 9.83008 13.9199 16.0801 24.7002 16.0801c4.26953 0 8.75977 -0.980469 13.2402 -3.11035l150.69 -71.6904
c11.96 -5.69043 17.3301 -15.6406 17.3301 -25.0205c0 -3.95996 -0.959961 -7.82031 -2.78027 -11.21c-5.05957 -9.63965 -13.6299 -14.1992 -23.3896 -14.1992c-5.26953 0 -10.8896 1.33008 -16.4893 3.91016zM275.158 388.551l177.082 295.771
c4.58984 7.75977 13.6602 14.8896 25.7598 14.8896c1.55957 0 3.16992 -0.120117 4.83008 -0.370117c18.7803 -1.59961 27.8799 -15.6094 27.8799 -28.999c0 -4.94043 -1.24023 -9.79004 -3.69043 -13.9102l-200.51 -337.12v-289.18
c0 -16.71 -13.04 -29.6104 -31.2705 -29.6104s-31.2705 12.9004 -31.2705 29.6104v289.17l-202.57 334.74c-3.07031 5 -4.60059 10.6396 -4.60059 16.1992c0 13.75 9.34961 27 27.8301 28.8496c2.01953 0.410156 4 0.610352 5.92969 0.610352
c10.0303 0 18.7305 -5.36035 24.1807 -14.3906z" />
    <glyph glyph-name="Z" unicode="Z" horiz-adv-x="544" 
d="M76.6904 699.97l351.42 0.0107422c40.0098 0 69.96 -29.9404 69.96 -68.4209c0 -15.0303 -7.67969 -31.79 -15.71 -42.8496l-365.27 -503.17c-5.23047 -7.2002 -8.77051 -13.2402 -8.77051 -17.6602c0 -0.730469 0.0996094 -1.4209 0.299805 -2.06055
c1.75 -5.53027 7.34961 -8.06055 21 -8.06055h335.19c19.6602 0 33.25 -11.79 33.25 -28.7803c0 -16.8398 -13.5098 -28.9395 -31.2695 -28.9395h-350.43c-39.7002 0 -69.6406 29.7998 -69.6406 68.2803c0 14.3604 3.54004 27.2803 11.4004 38.1006l368.68 507.6
c5.32031 7.33008 8.68066 13.7197 8.68066 18.2197c0 0.650391 -0.0703125 1.26074 -0.220703 1.83105c-1.58984 6.21973 -7.34961 8.37988 -21 8.37988h-337.57c-16.8701 0 -29.9805 14.2695 -29.9805 28.7598s13.1104 28.7598 29.9805 28.7598z" />
    <glyph glyph-name="Zacute" unicode="&#x179;" horiz-adv-x="544" 
d="M185.64 834.96l150.688 71.7012c4.4502 2.12012 8.87988 3.08984 13.0898 3.08984c10.7402 0 20.0898 -6.30957 24.8594 -16.0596c1.98047 -4.05957 2.94043 -8.00977 2.94043 -11.7793c0 -10.7002 -7.71973 -19.96 -21.6494 -26.3604l-144.6 -67.1104
c-5.38965 -2.48047 -10.9395 -3.77051 -16.209 -3.77051c-9.7998 0 -18.6396 4.46973 -23.6797 14.0596c-1.96973 3.63965 -2.9502 7.55957 -2.9502 11.4795c0 9.59961 5.87988 19.2197 17.5098 24.75zM76.6885 699.981l351.42 0.0107422
c40.0098 0 69.96 -29.9404 69.96 -68.4209c0 -15.0303 -7.67969 -31.79 -15.71 -42.8496l-365.27 -503.17c-5.23047 -7.2002 -8.77051 -13.2402 -8.77051 -17.6602c0 -0.730469 0.0996094 -1.4209 0.299805 -2.06055c1.75 -5.53027 7.34961 -8.06055 21 -8.06055h335.19
c19.6602 0 33.25 -11.79 33.25 -28.7803c0 -16.8398 -13.5098 -28.9395 -31.2695 -28.9395h-350.43c-39.7002 0 -69.6406 29.7998 -69.6406 68.2803c0 14.3604 3.54004 27.2803 11.4004 38.1006l368.68 507.6c5.32031 7.33008 8.68066 13.7197 8.68066 18.2197
c0 0.650391 -0.0703125 1.26074 -0.220703 1.83105c-1.58984 6.21973 -7.34961 8.37988 -21 8.37988h-337.57c-16.8701 0 -29.9805 14.2695 -29.9805 28.7598s13.1104 28.7598 29.9805 28.7598z" />
    <glyph glyph-name="Zcaron" unicode="&#x17d;" horiz-adv-x="544" 
d="M231.49 778.51l-82.0391 91.5889c-3.82031 4.30957 -5.66016 9.75977 -5.66016 15.2295c0 6.86035 2.88965 13.7607 8.37012 18.5205c5.12012 4.48047 11.71 6.6709 18.3604 6.6709c8.0498 0 16.1895 -3.21973 21.9092 -9.48926l69.7002 -74.0898
c3.4502 -3.69043 6.66992 -5.28027 10.6299 -5.26074c3.9502 0.00976562 7.16016 1.62012 10.5801 5.32031l68.71 73.2598c6.2002 7.04004 14.2305 10.2998 22.0801 10.2998c7.16016 0 14.1699 -2.71973 19.4902 -7.76953c5.07031 -4.7998 7.5 -10.5898 7.5 -16.5898
c0 -6.12988 -2.53027 -12.4697 -7.37012 -18.1797l-84.75 -90.8701c-8.23047 -9.83008 -22 -18.1104 -36.0801 -18.1104c-17.6904 0 -32.8906 8.91016 -41.4307 19.4697zM76.6709 699.979l351.42 0.0107422c40.0098 0 69.96 -29.9404 69.96 -68.4209
c0 -15.0303 -7.67969 -31.79 -15.71 -42.8496l-365.27 -503.17c-5.23047 -7.2002 -8.77051 -13.2402 -8.77051 -17.6602c0 -0.730469 0.0996094 -1.4209 0.299805 -2.06055c1.75 -5.53027 7.34961 -8.06055 21 -8.06055h335.19c19.6602 0 33.25 -11.79 33.25 -28.7803
c0 -16.8398 -13.5098 -28.9395 -31.2695 -28.9395h-350.43c-39.7002 0 -69.6406 29.7998 -69.6406 68.2803c0 14.3604 3.54004 27.2803 11.4004 38.1006l368.68 507.6c5.32031 7.33008 8.68066 13.7197 8.68066 18.2197c0 0.650391 -0.0703125 1.26074 -0.220703 1.83105
c-1.58984 6.21973 -7.34961 8.37988 -21 8.37988h-337.57c-16.8701 0 -29.9805 14.2695 -29.9805 28.7598s13.1104 28.7598 29.9805 28.7598z" />
    <glyph glyph-name="Zdotaccent" unicode="&#x17b;" horiz-adv-x="544" 
d="M243.76 852.67l-0.0195312 27.3008c0 16.1299 10.4297 27.9395 28.3896 27.9395c17.1602 0 29.4297 -11.71 29.4297 -27.9404v-27.29c0 -15.5703 -11.8701 -27.2002 -29.4199 -27.2002c-18.3604 0 -28.3799 11.71 -28.3799 27.1904zM76.6699 699.971l351.42 0.0107422
c40.0098 0 69.96 -29.9404 69.96 -68.4209c0 -15.0303 -7.67969 -31.79 -15.71 -42.8496l-365.27 -503.17c-5.23047 -7.2002 -8.77051 -13.2402 -8.77051 -17.6602c0 -0.730469 0.0996094 -1.4209 0.299805 -2.06055c1.75 -5.53027 7.34961 -8.06055 21 -8.06055h335.19
c19.6602 0 33.25 -11.79 33.25 -28.7803c0 -16.8398 -13.5098 -28.9395 -31.2695 -28.9395h-350.43c-39.7002 0 -69.6406 29.7998 -69.6406 68.2803c0 14.3604 3.54004 27.2803 11.4004 38.1006l368.68 507.6c5.32031 7.33008 8.68066 13.7197 8.68066 18.2197
c0 0.650391 -0.0703125 1.26074 -0.220703 1.83105c-1.58984 6.21973 -7.34961 8.37988 -21 8.37988h-337.57c-16.8701 0 -29.9805 14.2695 -29.9805 28.7598s13.1104 28.7598 29.9805 28.7598z" />
    <glyph glyph-name="Zdotbelow" unicode="&#x1e92;" horiz-adv-x="544" 
d="M76.6904 699.97l351.42 0.0107422c40.0098 0 69.96 -29.9404 69.96 -68.4209c0 -15.0303 -7.67969 -31.79 -15.71 -42.8496l-365.27 -503.17c-5.23047 -7.2002 -8.77051 -13.2402 -8.77051 -17.6602c0 -0.730469 0.0996094 -1.4209 0.299805 -2.06055
c1.75 -5.53027 7.34961 -8.06055 21 -8.06055h335.19c19.6602 0 33.25 -11.79 33.25 -28.7803c0 -16.8398 -13.5098 -28.9395 -31.2695 -28.9395h-350.43c-39.7002 0 -69.6406 29.7998 -69.6406 68.2803c0 14.3604 3.54004 27.2803 11.4004 38.1006l368.68 507.6
c5.32031 7.33008 8.68066 13.7197 8.68066 18.2197c0 0.650391 -0.0703125 1.26074 -0.220703 1.83105c-1.58984 6.21973 -7.34961 8.37988 -21 8.37988h-337.57c-16.8701 0 -29.9805 14.2695 -29.9805 28.7598s13.1104 28.7598 29.9805 28.7598zM243.48 -111.989
l-0.00976562 27c0 16 10.4297 28 28.3799 28c17.1602 0 29.4297 -11 29.4297 -28v-27c0 -15 -11.8701 -27 -29.4199 -27c-18.3604 0 -28.3799 12 -28.3799 27z" />
    <glyph glyph-name="a" unicode="a" horiz-adv-x="472" 
d="M272.13 454.61l-174.562 -0.0273438c-19.5 0 -30.5 11.6299 -30.5 27.3799c0 14.5195 10.6504 27.0098 28.8604 27.0098h179.5c80.6104 0 138.65 -63.7002 138.65 -146.15v-320.61c0 -24.2803 -18.6104 -42.2207 -43.7002 -42.2207h-184.99
c-81.5195 0 -147.029 64.46 -147.029 143.92c0 79.0898 65.3301 145.56 147.04 145.56h168.75v69.7998c0 54.2803 -32.21 95.3398 -82.0195 95.3398zM185.389 55.9932l168.75 -0.000976562v177.75h-168.75c-46.96 0 -88.0596 -41.3203 -88.0596 -89.8398
c0 -48.3496 40.8896 -87.9092 88.0596 -87.9092z" />
    <glyph glyph-name="aacute" unicode="&#xe1;" horiz-adv-x="472" 
d="M149.65 643.29l150.688 71.7109c4.4502 2.12012 8.87988 3.08984 13.0898 3.08984c10.7402 0 20.0898 -6.30957 24.8594 -16.0596c1.98047 -4.05957 2.94043 -8.00977 2.94043 -11.7793c0 -10.7002 -7.71973 -19.96 -21.6494 -26.3604l-144.6 -67.1104
c-5.38965 -2.48047 -10.9395 -3.77051 -16.209 -3.77051c-9.7998 0 -18.6396 4.45996 -23.6797 14.0498c-1.96973 3.63965 -2.9502 7.55957 -2.9502 11.4795c0 9.59961 5.87988 19.2197 17.5098 24.75zM272.129 454.631l-174.562 -0.0273438
c-19.5 0 -30.5 11.6299 -30.5 27.3799c0 14.5195 10.6504 27.0098 28.8604 27.0098h179.5c80.6104 0 138.65 -63.7002 138.65 -146.15v-320.61c0 -24.2803 -18.6104 -42.2207 -43.7002 -42.2207h-184.99c-81.5195 0 -147.029 64.46 -147.029 143.92
c0 79.0898 65.3301 145.56 147.04 145.56h168.75v69.7998c0 54.2803 -32.21 95.3398 -82.0195 95.3398zM185.388 56.0137l168.75 -0.000976562v177.75h-168.75c-46.96 0 -88.0596 -41.3203 -88.0596 -89.8398c0 -48.3496 40.8896 -87.9092 88.0596 -87.9092z" />
    <glyph glyph-name="abreve" unicode="&#x103;" horiz-adv-x="472" 
d="M267.33 603.61l-61.2988 -0.0078125c-57.8701 0 -103.17 45.29 -103.17 101.68c0 13.5098 10.3301 26.8193 27.2598 26.8193c15.71 0 28.2998 -13.1104 28.2998 -26.8105c0 -29.8604 22.9502 -52.3906 51.1201 -52.3906h55.1299
c27.5098 0 49.4795 22.9297 50.2793 50.7598c0 17.2598 11.7402 28.4502 27.5498 28.4502c15.8799 0 28 -13.2197 28 -26.8096c0 -56.54 -47.4297 -101.69 -103.17 -101.69zM272.142 454.603l-174.562 -0.0273438c-19.5 0 -30.5 11.6299 -30.5 27.3799
c0 14.5195 10.6504 27.0098 28.8604 27.0098h179.5c80.6104 0 138.65 -63.7002 138.65 -146.15v-320.61c0 -24.2803 -18.6104 -42.2207 -43.7002 -42.2207h-184.99c-81.5195 0 -147.029 64.46 -147.029 143.92c0 79.0898 65.3301 145.56 147.04 145.56h168.75v69.7998
c0 54.2803 -32.21 95.3398 -82.0195 95.3398zM185.4 55.9854l168.75 -0.000976562v177.75h-168.75c-46.96 0 -88.0596 -41.3203 -88.0596 -89.8398c0 -48.3496 40.8896 -87.9092 88.0596 -87.9092z" />
    <glyph glyph-name="acaron" unicode="&#x1ce;" horiz-adv-x="472" 
d="M195.5 586.85l-82.0283 91.5889c-3.82031 4.30957 -5.66016 9.75977 -5.66016 15.2295c0 6.86035 2.88965 13.7607 8.37012 18.5205c5.12012 4.48047 11.71 6.6709 18.3604 6.6709c8.0498 0 16.1895 -3.21973 21.9092 -9.48926l69.7002 -74.0898
c3.4502 -3.69043 6.66992 -5.28027 10.6299 -5.26074c3.95996 0.00976562 7.16992 1.62012 10.5898 5.32031l68.71 73.2598c6.2002 7.04004 14.2305 10.2998 22.0801 10.2998c7.16016 0 14.1699 -2.71973 19.4902 -7.76953c5.07031 -4.7998 7.5 -10.5898 7.5 -16.5898
c0 -6.12988 -2.53027 -12.4697 -7.37012 -18.1797l-84.7598 -90.8701c-8.23047 -9.83008 -22.0107 -18.1104 -36.0908 -18.1104c-17.6904 0 -32.8906 8.91016 -41.4307 19.4697zM272.122 454.629l-174.562 -0.0273438c-19.5 0 -30.5 11.6299 -30.5 27.3799
c0 14.5195 10.6504 27.0098 28.8604 27.0098h179.5c80.6104 0 138.65 -63.7002 138.65 -146.15v-320.61c0 -24.2803 -18.6104 -42.2207 -43.7002 -42.2207h-184.99c-81.5195 0 -147.029 64.46 -147.029 143.92c0 79.0898 65.3301 145.56 147.04 145.56h168.75v69.7998
c0 54.2803 -32.21 95.3398 -82.0195 95.3398zM185.381 56.0117l168.75 -0.000976562v177.75h-168.75c-46.96 0 -88.0596 -41.3203 -88.0596 -89.8398c0 -48.3496 40.8896 -87.9092 88.0596 -87.9092z" />
    <glyph glyph-name="acircumflex" unicode="&#xe2;" horiz-adv-x="472" 
d="M226.16 659.12l-69.6904 -74.0811c-5.71973 -6.26953 -13.8496 -9.48926 -21.8994 -9.48926c-6.65039 0 -13.2402 2.19043 -18.3604 6.6709c-5.48047 4.75977 -8.37012 11.6602 -8.37012 18.5205c0 5.46973 1.83984 10.9199 5.66016 15.2295l82.0195 91.5801
c8.54004 10.5596 23.7402 19.4697 41.4307 19.4697c14.0801 0 27.8496 -8.28027 36.0801 -18.1104l84.75 -90.8701c4.83984 -5.70996 7.37012 -12.0498 7.37012 -18.1797c0 -6 -2.42969 -11.79 -7.5 -16.5898c-5.32031 -5.0498 -12.3301 -7.76953 -19.4902 -7.76953
c-7.84961 0 -15.8799 3.25977 -22.0801 10.2998l-68.71 73.2598c-3.41992 3.7002 -6.62988 5.31055 -10.5801 5.32031c-3.95996 0.0195312 -7.17969 -1.57031 -10.6299 -5.26074zM272.14 454.619l-174.562 -0.0273438c-19.5 0 -30.5 11.6299 -30.5 27.3799
c0 14.5195 10.6504 27.0098 28.8604 27.0098h179.5c80.6104 0 138.65 -63.7002 138.65 -146.15v-320.61c0 -24.2803 -18.6104 -42.2207 -43.7002 -42.2207h-184.99c-81.5195 -0 -147.029 64.46 -147.029 143.92c0 79.0898 65.3301 145.56 147.04 145.56h168.75v69.7998
c0 54.2803 -32.21 95.3398 -82.0195 95.3398zM185.398 56.002l168.75 -0.000976562v177.75h-168.75c-46.96 0 -88.0596 -41.3203 -88.0596 -89.8398c0 -48.3496 40.8896 -87.9092 88.0596 -87.9092z" />
    <glyph glyph-name="acircumflexdotbelow" unicode="&#x1ead;" horiz-adv-x="472" 
d="M226.16 659.12l-69.7012 -74.0811c-5.71973 -6.26953 -13.8594 -9.48926 -21.9092 -9.48926c-6.65039 0 -13.2402 2.19043 -18.3604 6.6709c-5.48047 4.75977 -8.37012 11.6602 -8.37012 18.5205c0 5.46973 1.83984 10.9199 5.66016 15.2295l82.0303 91.5801
c8.54004 10.5596 23.7402 19.4697 41.4307 19.4697c14.0801 0 27.8496 -8.28027 36.0801 -18.1104l84.7598 -90.8701c4.83984 -5.70996 7.37012 -12.0498 7.37012 -18.1797c0 -6 -2.42969 -11.79 -7.5 -16.5898c-5.32031 -5.0498 -12.3301 -7.76953 -19.4902 -7.76953
c-7.84961 0 -15.8799 3.25977 -22.0801 10.2998l-68.71 73.2598c-3.41992 3.7002 -6.62988 5.31055 -10.5801 5.32031c-3.95996 0.0195312 -7.17969 -1.57031 -10.6299 -5.26074zM272.129 454.619l-174.562 -0.0273438c-19.5 0 -30.5 11.6299 -30.5 27.3799
c0 14.5195 10.6504 27.0098 28.8604 27.0098h179.5c80.6104 0 138.65 -63.7002 138.65 -146.15v-320.61c0 -24.2803 -18.6104 -42.2207 -43.7002 -42.2207h-184.99c-81.5195 -0 -147.029 64.46 -147.029 143.92c0 79.0898 65.3301 145.56 147.04 145.56h168.75v69.7998
c0 54.2803 -32.21 95.3398 -82.0195 95.3398zM185.388 56.002l168.75 -0.000976562v177.75h-168.75c-46.96 0 -88.0596 -41.3203 -88.0596 -89.8398c0 -48.3496 40.8896 -87.9092 88.0596 -87.9092zM197.308 -112.019l-0.00976562 27c0 16 10.4297 28 28.3799 28
c17.1602 0 29.4297 -11 29.4297 -28v-27c0 -15 -11.8701 -27 -29.4199 -27c-18.3604 0 -28.3799 12 -28.3799 27z" />
    <glyph glyph-name="adieresis" unicode="&#xe4;" horiz-adv-x="472" 
d="M284.05 660.76l0.000976562 27.291c0 16.25 10.8896 27.9404 28.3799 27.9404c17.2998 0 29.1299 -11.8203 29.1299 -27.9404v-27.29c0 -15.46 -11.4297 -27.2002 -29.1299 -27.2002c-17.9004 0 -28.3809 11.5996 -28.3809 27.1992zM131.801 660.751l0.00976562 27.2998
c0 16.3701 11.3398 27.9404 28.3799 27.9404c17.5996 0 29.4199 -11.8203 29.4199 -27.9404v-27.29c0 -15.46 -11.4297 -27.2002 -29.4297 -27.2002c-17.4502 0 -28.3799 11.4805 -28.3799 27.1904zM272.141 454.621l-174.562 -0.0273438
c-19.5 0 -30.5 11.6299 -30.5 27.3799c0 14.5195 10.6504 27.0098 28.8604 27.0098h179.5c80.6104 0 138.65 -63.7002 138.65 -146.15v-320.61c0 -24.2803 -18.6104 -42.2207 -43.7002 -42.2207h-184.99c-81.5195 0 -147.029 64.46 -147.029 143.92
c0 79.0898 65.3301 145.56 147.04 145.56h168.75v69.7998c0 54.2803 -32.21 95.3398 -82.0195 95.3398zM185.399 56.0039l168.75 -0.000976562v177.75h-168.75c-46.96 0 -88.0596 -41.3203 -88.0596 -89.8398c0 -48.3496 40.8896 -87.9092 88.0596 -87.9092z" />
    <glyph glyph-name="adieresismacron" unicode="&#x1df;" horiz-adv-x="472" 
d="M135.35 807.36l202.57 0.00976562c15.6201 0 27.1904 -10.6699 27.1904 -29.1299c0 -17.1602 -10.96 -28.6797 -27.1904 -28.6797h-202.57c-16.0703 0 -27.9404 11.6299 -27.9404 28.6699c0 18.3604 12.46 29.1299 27.9404 29.1299zM131.8 660.75l0.00976562 27.2998
c0 16.3701 11.3398 27.9404 28.3799 27.9404c17.5996 0 29.4199 -11.8203 29.4199 -27.9404v-27.29c0 -15.46 -11.4297 -27.2002 -29.4297 -27.2002c-17.4502 0 -28.3799 11.4805 -28.3799 27.1904zM284.06 660.76l0.000976562 27.291
c0 16.25 10.8896 27.9404 28.3799 27.9404c17.2998 0 29.1299 -11.8203 29.1299 -27.9404v-27.29c0 -15.46 -11.4297 -27.2002 -29.1299 -27.2002c-17.9004 0 -28.3809 11.5996 -28.3809 27.1992zM272.141 454.61l-174.562 -0.0273438c-19.5 0 -30.5 11.6299 -30.5 27.3799
c0 14.5195 10.6504 27.0098 28.8604 27.0098h179.5c80.6104 0 138.65 -63.7002 138.65 -146.15v-320.61c0 -24.2803 -18.6104 -42.2207 -43.7002 -42.2207h-184.99c-81.5195 0 -147.029 64.46 -147.029 143.92c0 79.0898 65.3301 145.56 147.04 145.56h168.75v69.7998
c0 54.2803 -32.21 95.3398 -82.0195 95.3398zM185.399 55.9932l168.75 -0.000976562v177.75h-168.75c-46.96 0 -88.0596 -41.3203 -88.0596 -89.8398c0 -48.3496 40.8896 -87.9092 88.0596 -87.9092z" />
    <glyph glyph-name="adotbelow" unicode="&#x1ea1;" horiz-adv-x="472" 
d="M272.13 454.61l-174.562 -0.0273438c-19.5 0 -30.5 11.6299 -30.5 27.3799c0 14.5195 10.6504 27.0098 28.8604 27.0098h179.5c80.6104 0 138.65 -63.7002 138.65 -146.15v-320.61c0 -24.2803 -18.6104 -42.2207 -43.7002 -42.2207h-184.99
c-81.5195 0 -147.029 64.46 -147.029 143.92c0 79.0898 65.3301 145.56 147.04 145.56h168.75v69.7998c0 54.2803 -32.21 95.3398 -82.0195 95.3398zM185.389 55.9932l168.75 -0.000976562v177.75h-168.75c-46.96 0 -88.0596 -41.3203 -88.0596 -89.8398
c0 -48.3496 40.8896 -87.9092 88.0596 -87.9092zM197.309 -112.027l-0.00976562 27c0 16 10.4297 28 28.3799 28c17.1602 0 29.4297 -11 29.4297 -28v-27c0 -15 -11.8701 -27 -29.4199 -27c-18.3604 0 -28.3799 12 -28.3799 27z" />
    <glyph glyph-name="agrave" unicode="&#xe0;" horiz-adv-x="472" 
d="M298.37 596.77l-148.432 68.8506c-10.5703 4.87012 -17.7803 14.2002 -17.7803 24.7803c0 3.75977 0.910156 7.67969 2.90039 11.6094c4.50977 9.83008 13.9199 16.0801 24.7002 16.0801c4.26953 0 8.75977 -0.980469 13.2402 -3.11035l150.7 -71.6904
c11.96 -5.69043 17.3301 -15.6406 17.3301 -25.0205c0 -3.95996 -0.959961 -7.82031 -2.78027 -11.21c-5.05957 -9.63965 -13.6299 -14.1992 -23.3896 -14.1992c-5.26953 0 -10.8896 1.33008 -16.4893 3.91016zM272.129 454.601l-174.562 -0.0273438
c-19.5 0 -30.5 11.6299 -30.5 27.3799c0 14.5195 10.6504 27.0098 28.8604 27.0098h179.5c80.6104 0 138.65 -63.7002 138.65 -146.15v-320.61c0 -24.2803 -18.6104 -42.2207 -43.7002 -42.2207h-184.99c-81.5195 0 -147.029 64.46 -147.029 143.92
c0 79.0898 65.3301 145.56 147.04 145.56h168.75v69.7998c0 54.2803 -32.21 95.3398 -82.0195 95.3398zM185.388 55.9834l168.75 -0.000976562v177.75h-168.75c-46.96 0 -88.0596 -41.3203 -88.0596 -89.8398c0 -48.3496 40.8896 -87.9092 88.0596 -87.9092z" />
    <glyph glyph-name="amacron" unicode="&#x101;" horiz-adv-x="472" 
d="M137.16 739.49l202.57 -0.00976562c15.6201 0 27.1904 -10.6602 27.1904 -29.1201c0 -17.1602 -10.96 -28.6797 -27.1904 -28.6797h-202.57c-16.0703 0 -27.9404 11.6299 -27.9404 28.6797c0 18.3604 12.46 29.1299 27.9404 29.1299zM272.131 454.601
l-174.562 -0.0273438c-19.5 0 -30.5 11.6299 -30.5 27.3799c0 14.5195 10.6504 27.0098 28.8604 27.0098h179.5c80.6104 0 138.65 -63.7002 138.65 -146.15v-320.61c0 -24.2803 -18.6104 -42.2207 -43.7002 -42.2207h-184.99c-81.5195 0 -147.029 64.46 -147.029 143.92
c0 79.0898 65.3301 145.56 147.04 145.56h168.75v69.7998c0 54.2803 -32.21 95.3398 -82.0195 95.3398zM185.39 55.9834l168.75 -0.000976562v177.75h-168.75c-46.96 0 -88.0596 -41.3203 -88.0596 -89.8398c0 -48.3496 40.8896 -87.9092 88.0596 -87.9092z" />
    <glyph glyph-name="aogonek" unicode="&#x105;" horiz-adv-x="472" 
d="M95.9502 508.99l179.471 -0.0205078c80.6104 0 138.65 -63.7002 138.65 -146.15v-320.61c0 -24.2803 -18.6104 -42.2207 -43.7002 -42.2207h-38.5303c-16.75 -24.7305 -25.54 -49.4502 -25.54 -69.6104c0 -5.12012 0.570312 -9.9502 1.7207 -14.4102
c3.16016 -11.8096 15.3105 -21.5293 28.5107 -21.5293c9.13965 0 18.79 4.66992 26.2998 16.54c4.99023 7.19043 8.7998 11.1504 17.1201 11.1504c0.929688 0 1.91992 -0.0498047 2.97949 -0.149414c8.80957 -0.839844 15.3291 -6.57031 15.3291 -14.8604
c0 -1.62012 -0.25 -3.33984 -0.780273 -5.13965c-11.0303 -29.3096 -37.3105 -43.0996 -62.9609 -43.0996c-30.3604 0 -59.8408 19.3203 -62.1006 55.1006c-0.25 2.71973 -0.370117 5.41016 -0.370117 8.07031c0 32.54 18.0596 60.3604 32.7598 77.9307h-119.41
c-81.5195 0 -147.029 64.46 -147.029 143.92c0 79.0898 65.3301 145.56 147.04 145.56h168.75v69.7998c0 54.2803 -32.21 95.3398 -82.0195 95.3398h-174.55c-19.5 0 -30.5 11.6299 -30.5 27.3799c0 14.5195 10.6504 27.0098 28.8604 27.0098zM354.131 56v177.749h-168.75
c-46.96 0 -88.0596 -41.3203 -88.0596 -89.8398c0 -48.3496 40.8896 -87.9092 88.0596 -87.9092h168.75z" />
    <glyph glyph-name="aring" unicode="&#xe5;" horiz-adv-x="472" 
d="M236.51 736.05c55.3604 0 101.32 -45.96 101.32 -99.3301c0 -54.4004 -45.9199 -99.6602 -101.32 -99.6602c-55.7803 0 -100.99 45.21 -100.99 99.6602c0 53.4102 45.2598 99.3301 100.99 99.3301zM236.84 690.18c-28.7002 0 -51.7988 -24.3408 -51.7988 -53.4609
c0 -30.0098 22.8496 -53.4697 51.8096 -53.4697c28.3398 0 51.7998 23.5898 51.7998 53.46c0 28.9902 -23.7305 53.4707 -51.8105 53.4707zM95.9619 508.988l179.488 -0.0273438c80.6104 0 138.65 -63.7002 138.65 -146.15v-320.61
c0 -24.2803 -18.6104 -42.2207 -43.7002 -42.2207h-184.99c-81.5195 0 -147.029 64.46 -147.029 143.92c0 79.0898 65.3301 145.56 147.04 145.56h168.75v69.7998c0 54.2803 -32.21 95.3398 -82.0195 95.3398h-174.55c-19.5 0 -30.5 11.6299 -30.5 27.3799
c0 14.5195 10.6504 27.0098 28.8604 27.0098zM354.16 55.9912v177.749h-168.75c-46.96 0 -88.0596 -41.3203 -88.0596 -89.8398c0 -48.3496 40.8896 -87.9092 88.0596 -87.9092h168.75z" />
    <glyph glyph-name="atilde" unicode="&#xe3;" horiz-adv-x="472" 
d="M176.65 696.27c36.1699 1.62988 54.5596 -13.2197 71.1396 -26.8398c16.7598 -13.7998 32.3799 -28.3398 57.21 -26.3594c14.4004 1.15039 32.46 16.2207 45.9902 28.3203c4.25 4.49023 9.87988 6.39062 15.6104 6.39062c7.90039 0 16 -3.59961 20.9902 -8.95996
c4.36035 -4.67969 6.64062 -10.9492 6.64062 -17.3389c0 -6.36035 -2.25977 -12.8408 -6.96973 -17.9912c-16.8096 -15.9805 -54.0996 -44.25 -81.0898 -46.0703c-36.1104 -2.58008 -55.6602 15.1602 -76.4199 31.6201c-14.1699 11.4902 -28.9004 23.4902 -47.1602 23.4902
c-2.19043 0 -4.43066 -0.169922 -6.73047 -0.540039c-17.0703 -2.62988 -35.4502 -14.7295 -52.5801 -29.5996c-5.51953 -4.37988 -11.2598 -6.13965 -16.6602 -6.13965c-7.71973 0 -14.7598 3.58984 -19.4902 8.26953c-5.62988 5.55957 -7.95996 11.4893 -7.95996 17.249
c0 7.96973 4.48047 15.6094 10.8604 21.4893c26.6299 23.54 56.8496 41.8096 86.6191 43.0098zM272.12 454.64l-174.562 -0.0273438c-19.5 0 -30.5 11.6299 -30.5 27.3799c0 14.5195 10.6504 27.0098 28.8604 27.0098h179.5c80.6104 0 138.65 -63.7002 138.65 -146.15
v-320.61c0 -24.2803 -18.6104 -42.2207 -43.7002 -42.2207h-184.99c-81.5195 0 -147.029 64.46 -147.029 143.92c0 79.0898 65.3301 145.56 147.04 145.56h168.75v69.7998c0 54.2803 -32.21 95.3398 -82.0195 95.3398zM185.379 56.0225l168.75 -0.000976562v177.75h-168.75
c-46.96 0 -88.0596 -41.3203 -88.0596 -89.8398c0 -48.3496 40.8896 -87.9092 88.0596 -87.9092z" />
    <glyph glyph-name="ae" unicode="&#xe6;" horiz-adv-x="780" 
d="M95.9502 508.99l179.498 -0.0302734c55.25 0 99.2305 -32.7197 117.171 -80.5195c30.46 52.1797 86.5996 80.5195 151.46 80.5195c124.04 0 194.76 -68.9297 194.76 -194.26v-47.1396c0 -23.5303 -18.79 -41.2607 -44 -41.2607h-278.9v-28.2197
c5.26953 -101.27 35.7197 -144.029 125.54 -144.029h151.73c18.71 0 29.5303 -12.0596 29.5303 -27.3691c0 -15.0801 -10.9902 -26.71 -27.8906 -26.71h-154.03c-67.0801 0 -106.63 19.4697 -129.28 60.5293l-8.12988 -38.9297
c-4.42969 -13.0996 -17.3594 -21.5898 -33.0195 -21.5898h-184.99c-81.5195 0 -147.029 64.46 -147.029 143.92c0 79.0898 65.3301 145.56 147.04 145.56h168.75v69.7998c0 54.2803 -32.21 95.3398 -82.0195 95.3398h-174.55c-19.5 0 -30.5 11.6299 -30.5 27.3799
c0 14.5195 10.6504 27.0098 28.8604 27.0098zM678.479 275.95l0.00976562 42.9004c-1.03027 88.8896 -45.9902 135.739 -134.4 135.739c-76.3496 0 -124.14 -49.2598 -129.409 -125.569v-53.0703h263.8zM353.868 56.001v177.749h-168.45
c-46.96 0 -88.0596 -41.3203 -88.0596 -89.8398c0 -48.3496 40.8896 -87.9092 88.0596 -87.9092h168.45z" />
    <glyph glyph-name="b" unicode="b" horiz-adv-x="497" 
d="M66.7305 44.1504l-0.000976562 627.211c0 16.46 13.3604 28.6299 29.8203 28.6299c17.21 0 30.1201 -12.2998 30.1201 -28.6299v-162.38h161.03c84.9805 0 159.58 -62.7305 159.58 -167.45v-152.7c0 -73.6299 -41.7695 -188.83 -161.51 -188.83h-173.41
c-24.8701 0 -45.6299 20.7598 -45.6299 44.1494zM126.67 454.602l0.000976562 -397.63h159.1c56.3398 0 101.57 54.71 101.57 134.75v149.8c0 67.5 -47.4404 113.08 -99.6406 113.08h-161.03z" />
    <glyph glyph-name="bdotbelow" unicode="&#x1e05;" horiz-adv-x="497" 
d="M66.7305 44.1504l-0.000976562 627.211c0 16.46 13.3604 28.6299 29.8203 28.6299c17.21 0 30.1201 -12.2998 30.1201 -28.6299v-162.38h161.03c84.9805 0 159.58 -62.7305 159.58 -167.45v-152.7c0 -73.6299 -41.7695 -188.83 -161.51 -188.83h-173.41
c-24.8701 0 -45.6299 20.7598 -45.6299 44.1494zM126.67 454.602l0.000976562 -397.63h159.1c56.3398 0 101.57 54.71 101.57 134.75v149.8c0 67.5 -47.4404 113.08 -99.6406 113.08h-161.03zM228.101 -112.009l-0.00976562 27c0 16 10.4297 28 28.3799 28
c17.1602 0 29.4297 -11 29.4297 -28v-27c0 -15 -11.8701 -27 -29.4199 -27c-18.3604 0 -28.3799 12 -28.3799 27z" />
    <glyph glyph-name="c" unicode="c" horiz-adv-x="429" 
d="M247.12 508.99l112.39 0.0078125c17.54 0 28.1904 -12.4902 28.1904 -27.0098c0 -15.75 -10.9902 -27.3799 -28.1904 -27.3799h-112.39c-96.54 0 -137.73 -50.75 -137.73 -149.89v-94.2803c0 -107.05 46.3203 -156.359 137.721 -156.359h112.39
c17.3799 0 28.2002 -12.0596 28.2002 -27.3691c0 -15.0801 -10.9902 -26.71 -28.1904 -26.71h-112.39c-131.67 -0 -197.07 68.5498 -197.07 211.1v93.6104c0 132.69 64.8301 204.28 197.07 204.28z" />
    <glyph glyph-name="cacute" unicode="&#x107;" horiz-adv-x="429" 
d="M127.98 639.98l150.688 71.7012c4.4502 2.12012 8.87988 3.08984 13.0898 3.08984c10.7402 0 20.0898 -6.30957 24.8594 -16.0596c1.98047 -4.05957 2.94043 -8.00977 2.94043 -11.7793c0 -10.7002 -7.71973 -19.96 -21.6494 -26.3604l-144.6 -67.1104
c-5.38965 -2.48047 -10.9395 -3.77051 -16.209 -3.77051c-9.7998 0 -18.6396 4.46973 -23.6797 14.0596c-1.96973 3.63965 -2.9502 7.55957 -2.9502 11.4795c0 9.59961 5.87988 19.2197 17.5098 24.75zM247.119 509.002l112.39 0.0078125
c17.54 0 28.1904 -12.4902 28.1904 -27.0098c0 -15.75 -10.9902 -27.3799 -28.1904 -27.3799h-112.39c-96.54 0 -137.73 -50.75 -137.73 -149.89v-94.2803c0 -107.05 46.3203 -156.359 137.721 -156.359h112.39c17.3799 0 28.2002 -12.0596 28.2002 -27.3691
c0 -15.0801 -10.9902 -26.71 -28.1904 -26.71h-112.39c-131.67 0 -197.07 68.5498 -197.07 211.1v93.6104c0 132.69 64.8301 204.28 197.07 204.28z" />
    <glyph glyph-name="ccaron" unicode="&#x10d;" horiz-adv-x="429" 
d="M204.53 586.85l-82.0488 91.5889c-3.82031 4.30957 -5.66016 9.75977 -5.66016 15.2295c0 6.86035 2.88965 13.7607 8.37012 18.5205c5.12012 4.48047 11.71 6.6709 18.3604 6.6709c8.0498 0 16.1895 -3.21973 21.9092 -9.48926l69.7002 -74.0898
c3.4502 -3.69043 6.66992 -5.28027 10.6299 -5.26074c3.95996 0.00976562 7.16992 1.62012 10.5898 5.32031l68.71 73.2598c6.2002 7.04004 14.2305 10.2998 22.0801 10.2998c7.16016 0 14.1699 -2.71973 19.4902 -7.76953c5.07031 -4.7998 7.5 -10.5898 7.5 -16.5898
c0 -6.12988 -2.53027 -12.4697 -7.37012 -18.1797l-84.75 -90.8701c-8.23047 -9.83008 -22 -18.1104 -36.0801 -18.1104c-17.6904 0 -32.8906 8.91016 -41.4307 19.4697zM247.092 509.009l112.39 0.0078125c17.54 0 28.1904 -12.4902 28.1904 -27.0098
c0 -15.75 -10.9902 -27.3799 -28.1904 -27.3799h-112.39c-96.54 0 -137.73 -50.75 -137.73 -149.89v-94.2803c0 -107.05 46.3203 -156.359 137.721 -156.359h112.39c17.3799 0 28.2002 -12.0596 28.2002 -27.3691c0 -15.0801 -10.9902 -26.71 -28.1904 -26.71h-112.39
c-131.67 0 -197.07 68.5498 -197.07 211.1v93.6104c0 132.69 64.8301 204.28 197.07 204.28z" />
    <glyph glyph-name="ccedilla" unicode="&#xe7;" horiz-adv-x="429" 
d="M247.12 508.99l112.208 0.00683594c17.54 0 28.1904 -12.4902 28.1904 -27.0098c0 -15.75 -10.9902 -27.3799 -28.1904 -27.3799h-112.39c-96.54 0 -137.73 -50.75 -137.73 -149.89v-94.2803c0 -107.05 46.3203 -156.359 137.721 -156.359h112.39
c17.3799 0 28.2002 -12.0596 28.2002 -27.3691c0 -15.0801 -10.9902 -26.71 -28.1904 -26.71h-112.39c-12.21 0 -23.7197 0.719727 -34.5293 2.16992v-40.1797c52.3301 0 68.46 -18 68.46 -67c0 -56 -25.8896 -75 -80.3994 -75h-32.1104c-12.8398 0 -19.5801 7 -19.5801 18
c0 10 6.92969 18 17.4199 18h32.8604c28.7803 0 31.8398 15 31.8398 38c0 21 -4.55957 35 -25.2598 35c-25.8799 1 -33.9395 12 -33.9395 32v48.9502c-81.2803 23.0498 -121.65 89.0498 -121.65 201.16v93.6104c0 132.69 64.8301 204.28 197.07 204.28z" />
    <glyph glyph-name="cdotaccent" unicode="&#x10b;" horiz-adv-x="429" 
d="M217 657.69l-0.0195312 27.3008c0 16.1299 10.4297 27.9395 28.3896 27.9395c17.1602 0 29.4297 -11.71 29.4297 -27.9404v-27.29c0 -15.5703 -11.8701 -27.2002 -29.4199 -27.2002c-18.3604 0 -28.3799 11.71 -28.3799 27.1904zM247.101 509.001l112.39 0.0078125
c17.54 0 28.1904 -12.4902 28.1904 -27.0098c0 -15.75 -10.9902 -27.3799 -28.1904 -27.3799h-112.39c-96.54 0 -137.73 -50.75 -137.73 -149.89v-94.2803c0 -107.05 46.3203 -156.359 137.721 -156.359h112.39c17.3799 0 28.2002 -12.0596 28.2002 -27.3691
c0 -15.0801 -10.9902 -26.71 -28.1904 -26.71h-112.39c-131.67 0 -197.07 68.5498 -197.07 211.1v93.6104c0 132.69 64.8301 204.28 197.07 204.28z" />
    <glyph glyph-name="d" unicode="d" horiz-adv-x="497" 
d="M430.61 671.36l-0.0302734 -627.232c0 -23.3896 -20.7598 -44.1494 -45.6299 -44.1494h-173.7c-119.79 0 -161.21 115.23 -161.21 188.841v152.7c0 104.72 74.5996 167.45 159.29 167.45h161.33v162.38c0 16.2002 12.4502 28.6406 29.8301 28.6406
c15.8701 0 30.1201 -11.9199 30.1201 -28.6299zM370.64 56.958l-0.00976562 397.63h-161.33c-51.9004 0 -99.3408 -45.5801 -99.3408 -113.08v-149.8c0 -80.1104 45.0303 -134.75 101.28 -134.75h159.4z" />
    <glyph glyph-name="eth" unicode="&#xf0;" horiz-adv-x="535" 
d="M100.89 700.14l144.278 -0.0117188c70.6201 0 127.53 -16.2695 168.181 -50.0391l41.3203 39.0098c5.05957 4.07031 10.6592 5.87988 16.0488 5.87988c7.33008 0 14.25 -3.34961 18.8604 -8.89941c3.7002 -5.01953 5.56055 -10.0693 5.56055 -15.0195
c0 -6.65039 -3.37012 -13.1104 -10.1699 -19.0508l-39.9297 -37.9902c29.0498 -37.3203 43.8701 -87.7402 43.8701 -154.431v-230.07c0 -162.3 -76.2002 -230.52 -222.9 -230.52c-146.18 0 -218.93 82.3203 -218.93 196.801v41.0303c0 118.44 74.4004 176.351 212.92 176.9
h165.6v51.1299c0 47.0996 -13.5498 83.0596 -36.9395 104.8l-68.71 -67.8398c-4.75977 -3.87988 -10.1602 -5.82031 -15.5098 -5.82031c-7.30957 0 -14.5293 3.62012 -19.9395 10.8799c-2.9502 4.07031 -4.4502 8.90039 -4.4502 13.7705
c0 6.86035 2.98047 13.79 9.10059 18.7705l70.6699 68.7305c-27.71 23.2197 -67.0898 35.0801 -114 35.0801h-146.91c-16.8701 0 -29.9805 14.2695 -29.9805 28.46c0 14.3496 12.1904 28.4492 31.96 28.4492zM425.608 231.488l-0.0107422 125.4h-163.54
c-101.04 0 -151.35 -41.4805 -151.35 -120.08v-41.0303c0 -84.2598 46.9805 -139.64 155.32 -139.64c107.5 0 159.58 43.3799 159.58 175.35z" />
    <glyph glyph-name="dcaron" unicode="&#x10f;" horiz-adv-x="632" 
d="M504.54 609.97l-0.0107422 59.7803c0 15.8896 11.8096 30.4395 30.6699 30.4395c17.4697 0 31.6602 -14.7598 31.6602 -30.4395v-67.8301c0 -40.3398 -34.7197 -67.6396 -64.0596 -74.9893c-17.4004 -1.33984 -30.5107 9.28027 -31.9609 24.5605
c-0.219727 1.30957 -0.339844 2.61914 -0.339844 3.91895c0 7.2002 3.61035 14.0801 13.8105 19.1602c10.79 6.2998 20.2305 19.3896 20.2305 35.3994zM430.589 671.39l-0.0302734 -627.232c0 -23.3896 -20.7598 -44.1494 -45.6299 -44.1494h-173.7
c-119.79 0 -161.21 115.23 -161.21 188.841v152.7c0 104.72 74.5996 167.45 159.29 167.45h161.33v162.38c0 16.2002 12.4502 28.6406 29.8301 28.6406c15.8701 0 30.1201 -11.9199 30.1201 -28.6299zM370.618 56.9873l-0.00976562 397.63h-161.33
c-51.9004 0 -99.3408 -45.5801 -99.3408 -113.08v-149.8c0 -80.1104 45.0303 -134.75 101.28 -134.75h159.4z" />
    <glyph glyph-name="dcircumflexbelow" unicode="&#x1e13;" horiz-adv-x="497" 
d="M431.47 671.36l-0.0205078 -627.232c0 -23.3896 -20.7598 -44.1494 -45.6299 -44.1494h-173.71c-119.79 0 -161.21 115.23 -161.21 188.841v152.7c0 104.72 74.5996 167.45 159.29 167.45h161.33v162.38c0 16.2002 12.4502 28.6406 29.8301 28.6406
c15.8701 0 30.1201 -11.9199 30.1201 -28.6299zM370.649 56.958l-0.00976562 397.63h-161.33c-51.9004 0 -99.3408 -45.5801 -99.3408 -113.08v-149.8c0 -80.1104 45.0303 -134.75 101.28 -134.75h159.4zM230.88 -104.012l-69.6699 -73.9902
c-5.83984 -6.15039 -14.2002 -9.49023 -22.4102 -9.49023c-6.48047 0 -12.8701 2.08008 -17.8604 6.49023c-5.49023 4.4502 -8.37988 11.3799 -8.37988 18.3701c0 5.58008 1.83984 11.2002 5.66016 15.6406l82.0195 91c8.54004 11 23.7402 20 41.4307 20
c14.0801 0 27.8496 -9 36.0801 -18l84.75 -91c4.83984 -5.55957 7.37012 -11.8799 7.37012 -18.0703c0 -6.05957 -2.42969 -11.9893 -7.5 -16.9395c-5.33984 -4.79004 -12.3799 -7.52051 -19.5703 -7.52051c-7.82031 0 -15.8203 3.21973 -21.9902 10.5098l-68.71 73
c-3.41992 3 -6.62988 5 -10.5898 5s-7.17969 -2 -10.6299 -5z" />
    <glyph glyph-name="dcroat" unicode="&#x111;" horiz-adv-x="523" 
d="M430.61 620.69l64.751 -0.0214844c12.4199 0 20.5596 -7.74023 20.5596 -22.4902c0 -13.8203 -7.90039 -22.04 -20.5605 -22.04h-64.7695v-532c0 -23.3896 -20.7598 -44.1494 -45.6299 -44.1494h-173.7c-119.79 0 -161.22 115.23 -161.22 188.841v152.7
c0 104.72 74.5996 167.45 159.29 167.45h161.33v67.1699h-91.1104c-12.6201 0 -21.3105 8.4502 -21.3105 22.04c0 14.5195 8.91992 22.4893 21.3096 22.4893h91.1104v50.6699c0 16.2002 12.4502 28.6406 29.8301 28.6406c15.8701 0 30.1201 -11.9199 30.1201 -28.6299
v-50.6699zM370.642 56.959l-0.00976562 397.63h-161.33c-51.9004 0 -99.3408 -45.5801 -99.3408 -113.08v-149.8c0 -80.1104 45.0303 -134.75 101.28 -134.75h159.4z" />
    <glyph glyph-name="ddotbelow" unicode="&#x1e0d;" horiz-adv-x="497" 
d="M430.61 671.36l-0.0302734 -627.232c0 -23.3896 -20.7598 -44.1494 -45.6299 -44.1494h-173.7c-119.79 0 -161.21 115.23 -161.21 188.841v152.7c0 104.72 74.5996 167.45 159.29 167.45h161.33v162.38c0 16.2002 12.4502 28.6406 29.8301 28.6406
c15.8701 0 30.1201 -11.9199 30.1201 -28.6299zM370.64 56.958l-0.00976562 397.63h-161.33c-51.9004 0 -99.3408 -45.5801 -99.3408 -113.08v-149.8c0 -80.1104 45.0303 -134.75 101.28 -134.75h159.4zM211.39 -112.012l-0.00976562 27c0 16 10.4297 28 28.3799 28
c17.1602 0 29.4297 -11 29.4297 -28v-27c0 -15 -11.8701 -27 -29.4199 -27c-18.3604 0 -28.3799 12 -28.3799 27z" />
    <glyph glyph-name="dlinebelow" unicode="&#x1e0f;" horiz-adv-x="497" 
d="M430.61 671.36l-0.0302734 -627.232c0 -23.3896 -20.7598 -44.1494 -45.6299 -44.1494h-173.7c-119.79 0 -161.21 115.23 -161.21 188.841v152.7c0 104.72 74.5996 167.45 159.29 167.45h161.33v162.38c0 16.2002 12.4502 28.6406 29.8301 28.6406
c15.8701 0 30.1201 -11.9199 30.1201 -28.6299zM370.64 56.958l-0.00976562 397.63h-161.33c-51.9004 0 -99.3408 -45.5801 -99.3408 -113.08v-149.8c0 -80.1104 45.0303 -134.75 101.28 -134.75h159.4zM139.38 -85.0117h202.57c15.6201 0 27.1904 -11 27.1904 -29
s-10.96 -29 -27.1904 -29h-202.57c-16.0703 0 -27.9404 12 -27.9404 29c0 18 12.46 29 27.9404 29z" />
    <glyph glyph-name="e" unicode="e" horiz-adv-x="476" 
d="M50 236.94l0.00976562 77.79c0 123.06 83.9404 194.26 189.65 194.26c124.04 0 194.76 -68.9199 194.76 -194.25v-47.1396c0 -23.5303 -18.7998 -41.2607 -44.0098 -41.2607h-279.79c1.2002 -121.62 28.6699 -172.25 126.42 -172.25h151.73
c18.71 0 29.5303 -12.0596 29.5303 -27.3691c0 -15.0801 -10.9902 -26.71 -27.8906 -26.71h-154.03c-147.35 0 -186.38 78.4697 -186.38 236.93zM374 275.971v43.5c-1.16992 88.4502 -46.1299 135.13 -134.34 135.13c-79.5098 0 -128.09 -53.5596 -129.71 -134.92v-43.71
h264.05z" />
    <glyph glyph-name="eacute" unicode="&#xe9;" horiz-adv-x="476" 
d="M151.32 641.97l150.688 71.7012c4.4502 2.12012 8.87988 3.08984 13.0898 3.08984c10.7402 0 20.0898 -6.30957 24.8594 -16.0596c1.98047 -4.05957 2.94043 -8.00977 2.94043 -11.7793c0 -10.7002 -7.71973 -19.96 -21.6494 -26.3604l-144.6 -67.1104
c-5.38965 -2.48047 -10.9395 -3.77051 -16.209 -3.77051c-9.7998 0 -18.6396 4.46973 -23.6797 14.0596c-1.96973 3.63965 -2.9502 7.55957 -2.9502 11.4795c0 9.59961 5.87988 19.2197 17.5098 24.75zM50.0488 236.951l0.00976562 77.79
c0 123.06 83.9404 194.26 189.65 194.26c124.04 0 194.76 -68.9199 194.76 -194.25v-47.1396c0 -23.5303 -18.7998 -41.2607 -44.0098 -41.2607h-279.79c1.2002 -121.62 28.6699 -172.25 126.42 -172.25h151.73c18.71 0 29.5303 -12.0596 29.5303 -27.3691
c0 -15.0801 -10.9902 -26.71 -27.8906 -26.71h-154.03c-147.35 0 -186.38 78.4697 -186.38 236.93zM374.049 275.981v43.5c-1.16992 88.4502 -46.1299 135.13 -134.34 135.13c-79.5098 0 -128.09 -53.5596 -129.71 -134.92v-43.71h264.05z" />
    <glyph glyph-name="ecaron" unicode="&#x11b;" horiz-adv-x="476" 
d="M197.17 585.52l-82.0488 91.5986c-3.82031 4.30957 -5.66016 9.75977 -5.66016 15.2295c0 6.86035 2.88965 13.7607 8.37012 18.5205c5.12012 4.48047 11.71 6.6709 18.3604 6.6709c8.0498 0 16.1895 -3.21973 21.9092 -9.48926l69.7002 -74.0898
c3.4502 -3.69043 6.66992 -5.28027 10.6299 -5.27051s7.16992 1.62012 10.5898 5.32031l68.71 73.2598c6.2002 7.04004 14.2305 10.2998 22.0801 10.2998c7.16016 0 14.1699 -2.71973 19.4902 -7.76953c5.07031 -4.7998 7.5 -10.5898 7.5 -16.5898
c0 -6.12988 -2.53027 -12.4697 -7.37012 -18.1797l-84.75 -90.8701c-8.23047 -9.83008 -22 -18.1104 -36.0801 -18.1104c-17.6904 0 -32.8906 8.91016 -41.4307 19.4697zM50.0215 236.968l0.00976562 77.79c0 123.06 83.9404 194.26 189.65 194.26
c124.04 0 194.76 -68.9199 194.76 -194.25v-47.1396c0 -23.5303 -18.7998 -41.2607 -44.0098 -41.2607h-279.79c1.2002 -121.62 28.6699 -172.25 126.42 -172.25h151.73c18.71 0 29.5303 -12.0596 29.5303 -27.3691c0 -15.0801 -10.9902 -26.71 -27.8906 -26.71h-154.03
c-147.35 0 -186.38 78.4697 -186.38 236.93zM374.021 275.998v43.5c-1.16992 88.4502 -46.1299 135.13 -134.34 135.13c-79.5098 0 -128.09 -53.5596 -129.71 -134.92v-43.71h264.05z" />
    <glyph glyph-name="uni0229" unicode="&#x229;" horiz-adv-x="476" 
d="M50 236.94v77.8398c0 123.06 83.9404 194.26 189.65 194.26c124.05 0 194.77 -68.9297 194.77 -194.26v-47.1396c0 -23.5303 -18.7998 -41.2607 -44.0098 -41.2607h-279.78c1.2002 -121.62 28.6699 -172.25 126.42 -172.25h151.73
c18.71 0 29.5303 -12.0596 29.5303 -27.3691c0 -15.0801 -10.9902 -26.71 -27.8906 -26.71h-154.53v-36.0596c52.1602 0 68.46 -18 68.46 -68c0 -55 -25.8896 -75 -80.3994 -75h-32.1104c-12.8398 0 -19.5801 8 -19.5801 18c0 11 6.92969 19 17.4199 19h32.8604
c28.5098 0 31.54 14 31.54 38c0 22 -3.20996 35 -31.1299 35c-18.8604 1 -27.96 13 -27.96 32v40.0898c-113.55 14.1299 -144.99 91.0498 -144.99 233.859zM373.99 276.021v43.5c-1.16992 88.4502 -46.1299 135.13 -134.34 135.13
c-79.5098 0 -128.09 -53.5596 -129.71 -134.92v-43.71h264.05z" />
    <glyph glyph-name="ecircumflex" unicode="&#xea;" horiz-adv-x="476" 
d="M227.82 657.79l-69.6709 -74.0811c-5.71973 -6.26953 -13.8594 -9.48926 -21.9092 -9.48926c-6.65039 0 -13.2402 2.19043 -18.3604 6.6709c-5.48047 4.75977 -8.37012 11.6602 -8.37012 18.5205c0 5.46973 1.83984 10.9199 5.66016 15.2295l82.0195 91.5801
c8.54004 10.5596 23.7402 19.4697 41.4307 19.4697c14.0801 0 27.8496 -8.28027 36.0801 -18.1104l84.75 -90.8701c4.83984 -5.70996 7.37012 -12.0498 7.37012 -18.1797c0 -6 -2.42969 -11.79 -7.5 -16.5898c-5.32031 -5.0498 -12.3301 -7.76953 -19.4902 -7.76953
c-7.84961 0 -15.8799 3.25977 -22.0801 10.2998l-68.71 73.2598c-3.41992 3.7002 -6.62988 5.31055 -10.5898 5.33008c-3.95996 0.00976562 -7.17969 -1.58008 -10.6299 -5.27051zM50.0693 236.949l0.00976562 77.79c0 123.06 83.9404 194.26 189.65 194.26
c124.04 0 194.76 -68.9199 194.76 -194.25v-47.1396c0 -23.5303 -18.7998 -41.2607 -44.0098 -41.2607h-279.79c1.2002 -121.62 28.6699 -172.25 126.42 -172.25h151.73c18.71 0 29.5303 -12.0596 29.5303 -27.3691c0 -15.0801 -10.9902 -26.71 -27.8906 -26.71h-154.03
c-147.35 0 -186.38 78.4697 -186.38 236.93zM374.069 275.979v43.5c-1.16992 88.4502 -46.1299 135.13 -134.34 135.13c-79.5098 0 -128.09 -53.5596 -129.71 -134.92v-43.71h264.05z" />
    <glyph glyph-name="ecircumflexdotbelow" unicode="&#x1ec7;" horiz-adv-x="476" 
d="M227.82 657.79l-69.6709 -74.0811c-5.71973 -6.26953 -13.8594 -9.48926 -21.9092 -9.48926c-6.65039 0 -13.2402 2.19043 -18.3604 6.6709c-5.48047 4.75977 -8.37012 11.6602 -8.37012 18.5205c0 5.46973 1.83984 10.9199 5.66016 15.2295l82.0195 91.5801
c8.54004 10.5596 23.7402 19.4697 41.4307 19.4697c14.0801 0 27.8496 -8.28027 36.0801 -18.1104l84.75 -90.8701c4.83984 -5.70996 7.37012 -12.0498 7.37012 -18.1797c0 -6 -2.42969 -11.79 -7.5 -16.5898c-5.32031 -5.0498 -12.3301 -7.76953 -19.4902 -7.76953
c-7.84961 0 -15.8799 3.25977 -22.0801 10.2998l-68.71 73.2598c-3.41992 3.7002 -6.62988 5.31055 -10.5898 5.33008c-3.95996 0.00976562 -7.17969 -1.58008 -10.6299 -5.27051zM50.0693 236.949l0.00976562 77.79c0 123.06 83.9404 194.26 189.65 194.26
c124.04 0 194.76 -68.9199 194.76 -194.25v-47.1396c0 -23.5303 -18.7998 -41.2607 -44.0098 -41.2607h-279.79c1.2002 -121.62 28.6699 -172.25 126.42 -172.25h151.73c18.71 0 29.5303 -12.0596 29.5303 -27.3691c0 -15.0801 -10.9902 -26.71 -27.8906 -26.71h-154.03
c-147.35 0 -186.38 78.4697 -186.38 236.93zM374.069 275.979v43.5c-1.16992 88.4502 -46.1299 135.13 -134.34 135.13c-79.5098 0 -128.09 -53.5596 -129.71 -134.92v-43.71h264.05zM213.379 -112.001l-0.00976562 27c0 16 10.4297 28 28.3799 28
c17.1602 0 29.4297 -11 29.4297 -28v-27c0 -15 -11.8701 -27 -29.4199 -27c-18.3604 0 -28.3799 12 -28.3799 27z" />
    <glyph glyph-name="edieresis" unicode="&#xeb;" horiz-adv-x="476" 
d="M285.72 659.43l0.000976562 27.291c0 16.25 10.8896 27.9404 28.3799 27.9404c17.2998 0 29.1299 -11.8203 29.1299 -27.9404v-27.2998c0 -15.4502 -11.4297 -27.1904 -29.1299 -27.1904c-17.9004 0 -28.3809 11.5996 -28.3809 27.1992zM133.471 659.421v27.2998
c0 16.3701 11.3398 27.9404 28.3799 27.9404c17.5996 0 29.4297 -11.8203 29.4297 -27.9404v-27.29c0 -15.46 -11.4297 -27.2002 -29.4297 -27.2002c-17.4502 0 -28.3799 11.4805 -28.3799 27.1904zM50.0508 236.951l0.00976562 77.79
c0 123.06 83.9404 194.26 189.65 194.26c124.04 0 194.76 -68.9199 194.76 -194.25v-47.1396c0 -23.5303 -18.7998 -41.2607 -44.0098 -41.2607h-279.79c1.2002 -121.62 28.6699 -172.25 126.42 -172.25h151.73c18.71 0 29.5303 -12.0596 29.5303 -27.3691
c0 -15.0801 -10.9902 -26.71 -27.8906 -26.71h-154.03c-147.35 0 -186.38 78.4697 -186.38 236.93zM374.051 275.981v43.5c-1.16992 88.4502 -46.1299 135.13 -134.34 135.13c-79.5098 0 -128.09 -53.5596 -129.71 -134.92v-43.71h264.05z" />
    <glyph glyph-name="edotaccent" unicode="&#x117;" horiz-adv-x="476" 
d="M209.44 659.68l-0.00976562 27.3008c0 16.1299 10.4297 27.9395 28.3799 27.9395c17.1602 0 29.4297 -11.71 29.4297 -27.9404v-27.29c0 -15.5703 -11.8701 -27.2002 -29.4199 -27.2002c-18.3604 0 -28.3799 11.71 -28.3799 27.1904zM50.041 236.95l0.00976562 77.79
c0 123.06 83.9404 194.26 189.65 194.26c124.04 0 194.76 -68.9199 194.76 -194.25v-47.1396c0 -23.5303 -18.7998 -41.2607 -44.0098 -41.2607h-279.79c1.2002 -121.62 28.6699 -172.25 126.42 -172.25h151.73c18.71 0 29.5303 -12.0596 29.5303 -27.3691
c0 -15.0801 -10.9902 -26.71 -27.8906 -26.71h-154.03c-147.35 0 -186.38 78.4697 -186.38 236.93zM374.041 275.98v43.5c-1.16992 88.4502 -46.1299 135.13 -134.34 135.13c-79.5098 0 -128.09 -53.5596 -129.71 -134.92v-43.71h264.05z" />
    <glyph glyph-name="edotbelow" unicode="&#x1eb9;" horiz-adv-x="476" 
d="M50 236.94l0.00976562 77.79c0 123.06 83.9404 194.26 189.65 194.26c124.04 0 194.76 -68.9199 194.76 -194.25v-47.1396c0 -23.5303 -18.7998 -41.2607 -44.0098 -41.2607h-279.79c1.2002 -121.62 28.6699 -172.25 126.42 -172.25h151.73
c18.71 0 29.5303 -12.0596 29.5303 -27.3691c0 -15.0801 -10.9902 -26.71 -27.8906 -26.71h-154.03c-147.35 0 -186.38 78.4697 -186.38 236.93zM374 275.971v43.5c-1.16992 88.4502 -46.1299 135.13 -134.34 135.13c-79.5098 0 -128.09 -53.5596 -129.71 -134.92v-43.71
h264.05zM213.31 -112.01l-0.00976562 27c0 16 10.4297 28 28.3799 28c17.1602 0 29.4297 -11 29.4297 -28v-27c0 -15 -11.8701 -27 -29.4199 -27c-18.3604 0 -28.3799 12 -28.3799 27z" />
    <glyph glyph-name="egrave" unicode="&#xe8;" horiz-adv-x="476" 
d="M300.04 595.44l-148.432 68.8506c-10.5703 4.87012 -17.7803 14.2002 -17.7803 24.7803c0 3.75977 0.910156 7.67969 2.91016 11.6094c4.50977 9.83008 13.9199 16.0801 24.7002 16.0801c4.26953 0 8.75977 -0.980469 13.2402 -3.11035l150.69 -71.6904
c11.96 -5.69043 17.3301 -15.6406 17.3301 -25.0205c0 -3.95996 -0.959961 -7.82031 -2.78027 -11.21c-5.05957 -9.63965 -13.6299 -14.1992 -23.3896 -14.1992c-5.26953 0 -10.8896 1.33008 -16.4893 3.91016zM50.0488 236.931l0.00976562 77.79
c0 123.06 83.9404 194.26 189.65 194.26c124.04 0 194.76 -68.9199 194.76 -194.25v-47.1396c0 -23.5303 -18.7998 -41.2607 -44.0098 -41.2607h-279.79c1.2002 -121.62 28.6699 -172.25 126.42 -172.25h151.73c18.71 0 29.5303 -12.0596 29.5303 -27.3691
c0 -15.0801 -10.9902 -26.71 -27.8906 -26.71h-154.03c-147.35 0 -186.38 78.4697 -186.38 236.93zM374.049 275.961v43.5c-1.16992 88.4502 -46.1299 135.13 -134.34 135.13c-79.5098 0 -128.09 -53.5596 -129.71 -134.92v-43.71h264.05z" />
    <glyph glyph-name="emacron" unicode="&#x113;" horiz-adv-x="476" 
d="M138.83 738.16l202.57 -0.00976562c15.6201 0 27.1904 -10.6602 27.1904 -29.1201c0 -17.1602 -10.96 -28.6797 -27.1904 -28.6797h-202.57c-16.0703 0 -27.9404 11.6299 -27.9404 28.6797c0 18.3604 12.46 29.1299 27.9404 29.1299zM50.0508 236.931l0.00976562 77.79
c0 123.06 83.9404 194.26 189.65 194.26c124.04 0 194.76 -68.9199 194.76 -194.25v-47.1396c0 -23.5303 -18.7998 -41.2607 -44.0098 -41.2607h-279.79c1.2002 -121.62 28.6699 -172.25 126.42 -172.25h151.73c18.71 0 29.5303 -12.0596 29.5303 -27.3691
c0 -15.0801 -10.9902 -26.71 -27.8906 -26.71h-154.03c-147.35 0 -186.38 78.4697 -186.38 236.93zM374.051 275.961v43.5c-1.16992 88.4502 -46.1299 135.13 -134.34 135.13c-79.5098 0 -128.09 -53.5596 -129.71 -134.92v-43.71h264.05z" />
    <glyph glyph-name="eogonek" unicode="&#x119;" horiz-adv-x="476" 
d="M50 236.94l0.0107422 77.7891c0 123.06 83.9404 194.26 189.65 194.26c124.04 0 194.76 -68.9199 194.76 -194.25v-47.1396c0 -23.5303 -18.7998 -41.2607 -44.0098 -41.2607h-279.79c1.2002 -121.62 28.6699 -172.25 126.42 -172.25h151.73
c18.71 0 29.5303 -12.0596 29.5303 -27.3691c0 -15.0801 -10.9902 -26.71 -27.8906 -26.71h-48.8701c-18.3096 -25.9697 -28.5996 -51.9297 -28.5996 -73.0898c0 -4.91992 0.55957 -9.58008 1.69922 -13.9199c3.16016 -12.4199 15.3301 -22.04 28.54 -22.04
c9.12988 0 18.7598 4.59961 26.2598 16.04c4.87988 7.91016 8.62988 11.1904 16.5703 11.1904c1.09961 0 2.2793 -0.0595703 3.54883 -0.179688c8.7998 -0.839844 15.3193 -6.57031 15.3193 -14.8604c0 -1.62012 -0.25 -3.33984 -0.780273 -5.13965
c-11 -29.21 -37.1396 -43.0098 -62.6992 -43.0098c-30.4502 0 -60.0898 19.5801 -62.3594 56c-0.269531 2.75977 -0.399414 5.49023 -0.399414 8.19043c0 34.5195 20.6797 64.1191 36.0195 80.8193h-78.2803c-147.35 0 -186.38 78.4697 -186.38 236.93zM374.001 275.97v43.5
c-1.16992 88.4502 -46.1299 135.13 -134.34 135.13c-79.5098 0 -128.09 -53.5596 -129.71 -134.92v-43.71h264.05z" />
    <glyph glyph-name="etilde" unicode="&#x1ebd;" horiz-adv-x="476" 
d="M178.32 694.94c36.1699 1.62988 54.5693 -13.2197 71.1494 -26.8398c16.7598 -13.7998 32.3799 -28.3398 57.21 -26.3594c14.4004 1.15039 32.46 16.2207 45.9902 28.3203c4.25 4.49023 9.87988 6.39062 15.6104 6.39062c7.90039 0 16 -3.59961 20.9902 -8.95996
c4.36035 -4.67969 6.64062 -10.9492 6.64062 -17.3389c0 -6.36035 -2.25977 -12.8408 -6.96973 -17.9912c-16.8096 -15.9805 -54.0996 -44.25 -81.0898 -46.0703c-36.1104 -2.58008 -55.6602 15.1602 -76.4297 31.6201c-14.1699 11.4902 -28.9004 23.4902 -47.1602 23.4902
c-2.19043 0 -4.43066 -0.169922 -6.73047 -0.540039c-17.0703 -2.62988 -35.4502 -14.7295 -52.5801 -29.5996c-5.51953 -4.37988 -11.2598 -6.13965 -16.6602 -6.13965c-7.71973 0 -14.7598 3.58984 -19.4902 8.26953c-5.62988 5.55957 -7.95996 11.4893 -7.95996 17.249
c0 7.96973 4.48047 15.6094 10.8604 21.4893c26.6299 23.54 56.8496 41.8096 86.6191 43.0098zM50.04 236.961l0.00976562 77.79c0 123.06 83.9404 194.26 189.65 194.26c124.04 0 194.76 -68.9199 194.76 -194.25v-47.1396c0 -23.5303 -18.7998 -41.2607 -44.0098 -41.2607
h-279.79c1.2002 -121.62 28.6699 -172.25 126.42 -172.25h151.73c18.71 0 29.5303 -12.0596 29.5303 -27.3691c0 -15.0801 -10.9902 -26.71 -27.8906 -26.71h-154.03c-147.35 0 -186.38 78.4697 -186.38 236.93zM374.04 275.991v43.5
c-1.16992 88.4502 -46.1299 135.13 -134.34 135.13c-79.5098 0 -128.09 -53.5596 -129.71 -134.92v-43.71h264.05z" />
    <glyph glyph-name="f" unicode="f" horiz-adv-x="334" 
d="M51.5596 508.91l46.3398 -0.00195312c10.0303 130.08 76.2803 185.2 178.7 201.74c21.3701 3.03027 33.6396 -11.04 33.6396 -26.6904c0 -14.8799 -9.69043 -24.1895 -21.9902 -26.5195c-87.7598 -13.7305 -124.41 -67.6602 -130.41 -148.53h125.18
c16.2402 0 28.1904 -11.3301 28.1904 -27.3701c0 -14.9297 -11.7803 -26.6992 -28.1904 -26.6992h-125.18v-425.53c0 -18.0498 -14.5098 -29.3096 -30.4102 -29.3096c-17.2402 0 -29.5303 11.9004 -29.5303 28.71v426.12h-46.3398
c-16.8896 0 -28.1895 11.9102 -28.1895 26.7002c0 15.9004 11.4805 27.3809 28.1904 27.3809z" />
    <glyph glyph-name="g" unicode="g" horiz-adv-x="497" 
d="M211.27 509l175.632 0.0107422c26.0195 0 43.6992 -18.7402 43.6992 -42.5205v-462.7c0 -152.79 -41.5303 -229.79 -186.38 -229.79h-152.4c-18.71 0 -29.5303 12 -29.5303 27s11.1797 27 27.8896 27h153.07c96.7998 0 124.96 49 126.5 172.02h-160.41
c-84.5898 0 -159.29 62.0498 -159.29 166.859v152.4c0 73.5703 41.3701 189.721 161.22 189.721zM370.661 56.4512l0.00976562 395.29h-159.4c-56.25 0 -101.28 -54.6396 -101.28 -135.05v-149.8c0 -67.2002 47.4404 -110.44 99.3408 -110.44h161.33z" />
    <glyph glyph-name="gbreve" unicode="&#x11f;" horiz-adv-x="497" 
d="M279.68 600.29l-61.2988 -0.0078125c-57.8799 0 -103.18 45.29 -103.18 101.68c0 13.5098 10.3301 26.8193 27.2598 26.8193c15.71 0 28.2998 -13.1104 28.2998 -26.8105c0 -29.8604 22.9502 -52.3906 51.1201 -52.3906h55.1396
c27.5098 0 49.4795 22.9297 50.2793 50.7598c0 17.2598 11.7402 28.4502 27.5498 28.4502c15.8799 0 28 -13.2197 28 -26.8096c0 -56.54 -47.4297 -101.69 -103.17 -101.69zM211.271 508.992l175.632 0.0107422c26.0195 0 43.6992 -18.7402 43.6992 -42.5205v-462.7
c0 -152.79 -41.5303 -229.79 -186.38 -229.79h-152.4c-18.71 0 -29.5303 12 -29.5303 27s11.1797 27 27.8896 27h153.07c96.7998 0 124.96 49 126.5 172.02h-160.41c-84.5898 0 -159.29 62.0498 -159.29 166.859v152.4c0 73.5703 41.3701 189.721 161.22 189.721z
M370.662 56.4434l0.00976562 395.29h-159.4c-56.25 0 -101.28 -54.6396 -101.28 -135.05v-149.8c0 -67.2002 47.4404 -110.44 99.3408 -110.44h161.33z" />
    <glyph glyph-name="gcaron" unicode="&#x1e7;" horiz-adv-x="497" 
d="M207.85 583.53l-82.0488 91.5889c-3.82031 4.30957 -5.66016 9.75977 -5.66016 15.2295c0 6.86035 2.88965 13.7607 8.37012 18.5205c5.12012 4.48047 11.71 6.6709 18.3604 6.6709c8.0498 0 16.1895 -3.21973 21.9092 -9.48926l69.7002 -74.0898
c3.4502 -3.69043 6.66992 -5.28027 10.6299 -5.26074c3.95996 0.00976562 7.16992 1.62012 10.5898 5.32031l68.71 73.2598c6.2002 7.04004 14.2305 10.2998 22.0801 10.2998c7.16016 0 14.1699 -2.71973 19.4902 -7.76953c5.07031 -4.7998 7.5 -10.5898 7.5 -16.5898
c0 -6.12988 -2.53027 -12.4697 -7.37012 -18.1797l-84.75 -90.8701c-8.23047 -9.83008 -22 -18.1104 -36.0801 -18.1104c-17.6904 0 -32.8906 8.91016 -41.4307 19.4697zM211.241 509.009l175.632 0.0107422c26.0195 0 43.6992 -18.7402 43.6992 -42.5205v-462.7
c0 -152.79 -41.5303 -229.79 -186.38 -229.79h-152.4c-18.71 0 -29.5303 12 -29.5303 27s11.1797 27 27.8896 27h153.07c96.7998 0 124.96 49 126.5 172.02h-160.41c-84.5898 0 -159.29 62.0498 -159.29 166.859v152.4c0 73.5703 41.3701 189.721 161.22 189.721z
M370.633 56.46l0.00976562 395.29h-159.4c-56.25 0 -101.28 -54.6396 -101.28 -135.05v-149.8c0 -67.2002 47.4404 -110.44 99.3408 -110.44h161.33z" />
    <glyph glyph-name="gcommaaccent" unicode="&#x123;" horiz-adv-x="497" 
d="M286.11 642.93l-0.00976562 -57.3896c0 -14.6299 -9.91016 -25.5996 -25.5898 -25.5996c-14.6396 0 -26.5195 12.2998 -26.5195 25.5996v63.71c0 34.9502 29.7695 59.6006 56.3896 66.9502c14.5996 1.33984 25.5693 -7.29004 27.0195 -19.9199
c0.240234 -1.20996 0.370117 -2.41992 0.370117 -3.62012c0 -6.07031 -3.24023 -11.9004 -11.8701 -16.3506c-10.2803 -6.00977 -19.79 -18.3496 -19.79 -33.3799zM211.261 509.03l175.632 0.0107422c26.0195 0 43.6992 -18.7402 43.6992 -42.5205v-462.7
c0 -152.79 -41.5303 -229.79 -186.38 -229.79h-152.4c-18.71 0 -29.5303 12 -29.5303 27s11.1797 27 27.8896 27h153.07c96.7998 0 124.96 49 126.5 172.02h-160.41c-84.5898 0 -159.29 62.0498 -159.29 166.859v152.4c0 73.5703 41.3701 189.721 161.22 189.721z
M370.652 56.4814l0.00976562 395.29h-159.4c-56.25 0 -101.28 -54.6396 -101.28 -135.05v-149.8c0 -67.2002 47.4404 -110.44 99.3408 -110.44h161.33z" />
    <glyph glyph-name="gdotaccent" unicode="&#x121;" horiz-adv-x="497" 
d="M234.11 657.69l-0.00976562 27.3008c0 16.1299 10.4297 27.9395 28.3799 27.9395c17.1602 0 29.4297 -11.71 29.4297 -27.9404v-27.29c0 -15.5703 -11.8701 -27.2002 -29.4199 -27.2002c-18.3604 0 -28.3799 11.71 -28.3799 27.1904zM211.251 509.001l175.632 0.0107422
c26.0195 0 43.6992 -18.7402 43.6992 -42.5205v-462.7c0 -152.79 -41.5303 -229.79 -186.38 -229.79h-152.4c-18.71 0 -29.5303 12 -29.5303 27s11.1797 27 27.8896 27h153.07c96.7998 0 124.96 49 126.5 172.02h-160.41c-84.5898 0 -159.29 62.0498 -159.29 166.859v152.4
c0 73.5703 41.3701 189.721 161.22 189.721zM370.643 56.4521l0.00976562 395.29h-159.4c-56.25 0 -101.28 -54.6396 -101.28 -135.05v-149.8c0 -67.2002 47.4404 -110.44 99.3408 -110.44h161.33z" />
    <glyph glyph-name="h" unicode="h" horiz-adv-x="515" 
d="M73.1396 27.6904l0.00195312 643.659c0 16.0498 11.9697 28.6299 29.8193 28.6299c17.21 0 30.1201 -12.2998 30.1201 -28.6299v-162.36h162.96c84.9805 0 159.58 -62.7305 159.58 -167.45v-313.86c0 -16.6104 -13.54 -27.6699 -31.0801 -27.6699
c-17.3799 0 -28.8604 11.4805 -28.8604 27.6709v312.23c0 69.0596 -47.6504 114.71 -99.6406 114.71h-162.96v-426.93c0 -16.4805 -13.0898 -27.6709 -30.1201 -27.6709c-18.3398 0 -29.8203 11.4805 -29.8203 27.6709z" />
    <glyph glyph-name="hbar" unicode="&#x127;" horiz-adv-x="592" 
d="M163.64 509l162.972 -0.0302734c84.9805 0 159.58 -62.7305 159.58 -167.45v-313.86c0 -16.6104 -13.54 -27.6699 -31.0801 -27.6699c-17.3799 0 -28.8604 11.4805 -28.8604 27.6709v312.23c0 69.0596 -47.6504 114.71 -99.6406 114.71h-162.96v-426.93
c0 -16.4805 -13.0898 -27.6709 -30.1201 -27.6709c-18.3398 0 -29.8203 11.4805 -29.8203 27.6709v550.37h-59.0996c-15.2305 0.469727 -24.5801 6.54004 -24.5801 23.8096c0 10.9297 9.44043 20.5498 24.0303 20.5498h59.6396v48.9502
c0 16.0498 11.9697 28.6299 29.8193 28.6299c17.21 0 30.1201 -12.2998 30.1201 -28.6299v-48.9502h148.69c14.6104 0 23.04 -9.04004 23.04 -22.2002c0 -13.54 -8.19043 -22.1299 -23.04 -22.1299h-148.69v-69.0703z" />
    <glyph glyph-name="hdotbelow" unicode="&#x1e25;" horiz-adv-x="515" 
d="M73.1396 27.6904l0.00195312 643.659c0 16.0498 11.9697 28.6299 29.8193 28.6299c17.21 0 30.1201 -12.2998 30.1201 -28.6299v-162.36h162.96c84.9805 0 159.58 -62.7305 159.58 -167.45v-313.86c0 -16.6104 -13.54 -27.6699 -31.0801 -27.6699
c-17.3799 0 -28.8604 11.4805 -28.8604 27.6709v312.23c0 69.0596 -47.6504 114.71 -99.6406 114.71h-162.96v-426.93c0 -16.4805 -13.0898 -27.6709 -30.1201 -27.6709c-18.3398 0 -29.8203 11.4805 -29.8203 27.6709zM235.481 -112.011l-0.00976562 27
c0 16 10.4297 28 28.3799 28c17.1602 0 29.4297 -11 29.4297 -28v-27c0 -15 -11.8701 -27 -29.4199 -27c-18.3604 0 -28.3799 12 -28.3799 27z" />
    <glyph glyph-name="i" unicode="i" horiz-adv-x="200" 
d="M75 647.07v19.3691c0 15.9102 10.8203 28.6406 29.1602 28.6406c17.21 0 30.1201 -12.2998 30.1201 -28.6299v-19.3799c0 -16.0303 -12.2402 -27.6699 -30.1201 -27.6699c-18.3398 0 -29.1602 12.0596 -29.1602 27.6699zM75 27.6592v452.31
c0 16.5703 10.8203 29.3008 29.1602 29.3008c17.21 0 30.1201 -12.3096 30.1201 -29.3096v-452.3c0 -16.4805 -12.4199 -27.6709 -30.1201 -27.6709c-18.1602 0 -29.1602 11.6299 -29.1602 27.6699z" />
    <glyph glyph-name="dotlessi" unicode="&#x131;" horiz-adv-x="200" 
d="M75 27.6699v452.31c0 16.5703 10.8203 29.3008 29.1602 29.3008c17.21 0 30.1201 -12.3096 30.1201 -29.3096v-452.3c0 -16.4805 -12.4199 -27.6709 -30.1201 -27.6709c-18.1602 -0 -29.1602 11.6299 -29.1602 27.6699z" />
    <glyph glyph-name="iacute" unicode="&#xed;" horiz-adv-x="200" 
d="M13.9404 639.98l150.699 71.71c4.4502 2.12012 8.87988 3.08984 13.0898 3.08984c10.7402 0 20.0898 -6.30957 24.8594 -16.0596c1.98047 -4.05957 2.94043 -8.00977 2.94043 -11.7793c0 -10.7002 -7.71973 -19.96 -21.6494 -26.3604l-144.6 -67.1104
c-5.38965 -2.48047 -10.9395 -3.77051 -16.2295 -3.77051c-9.83008 0 -18.7598 4.46973 -24.0498 14.0596c-1.63965 3.41992 -2.45996 7.08984 -2.45996 10.7803c0 9.83008 5.80957 19.7803 17.3994 25.4404zM75.0801 27.6904v452.31
c0 16.5703 10.8203 29.3008 29.1602 29.3008c17.21 0 30.1201 -12.3096 30.1201 -29.3096v-452.3c0 -16.4805 -12.4199 -27.6709 -30.1201 -27.6709c-18.1602 0 -29.1602 11.6299 -29.1602 27.6699z" />
    <glyph glyph-name="icaron" unicode="&#x1d0;" horiz-adv-x="200" 
d="M59.7998 583.53l-81.8193 91.5889c-3.91016 4.21973 -5.74023 9.54004 -5.74023 14.9004c0 6.96973 3.09961 14.0195 8.75 18.8496c4.98047 4.48047 11.4609 6.6709 18.0508 6.6709c7.98047 0 16.1201 -3.21973 21.9502 -9.48926l69.4502 -74.0898
c3.4502 -3.69043 6.66992 -5.28027 10.6299 -5.26074c3.95996 0.00976562 7.16992 1.62012 10.5898 5.32031l68.71 73.2598c6.2002 7.04004 14.2305 10.2998 22.0801 10.2998c7.16016 0 14.1699 -2.71973 19.4902 -7.76953c5.07031 -4.7998 7.5 -10.5898 7.5 -16.5898
c0 -6.12988 -2.53027 -12.4697 -7.37012 -18.1797l-84.75 -90.8701c-8.23047 -9.83008 -22.0107 -18.1104 -36.0908 -18.1104c-17.6904 0 -32.8906 8.91016 -41.4307 19.4697zM75.0508 27.6787v452.31c0 16.5703 10.8203 29.3008 29.1602 29.3008
c17.21 0 30.1201 -12.3096 30.1201 -29.3096v-452.3c0 -16.4805 -12.4199 -27.6709 -30.1201 -27.6709c-18.1602 0 -29.1602 11.6299 -29.1602 27.6699z" />
    <glyph glyph-name="icircumflex" unicode="&#xee;" horiz-adv-x="200" 
d="M90.4502 655.8l-69.4307 -74.0811c-5.83008 -6.26953 -13.9697 -9.48926 -21.9502 -9.48926c-6.58984 0 -13.0703 2.19043 -18.0508 6.6709c-5.65039 4.83008 -8.75 11.8799 -8.75 18.8496c0 5.36035 1.83008 10.6807 5.74023 14.9004l81.7998 91.5801
c8.54004 10.5596 23.7402 19.4697 41.4307 19.4697c14.0801 0 27.8604 -8.28027 36.0908 -18.1104l84.75 -90.8701c4.83984 -5.70996 7.37012 -12.0498 7.37012 -18.1797c0 -6 -2.42969 -11.79 -7.5 -16.5898c-5.32031 -5.0498 -12.3301 -7.76953 -19.4902 -7.76953
c-7.84961 0 -15.8799 3.25977 -22.0801 10.2998l-68.71 73.2598c-3.41992 3.7002 -6.62988 5.31055 -10.5898 5.33008c-3.95996 0.00976562 -7.17969 -1.58008 -10.6299 -5.27051zM75.0996 27.6689v452.31c0 16.5703 10.8203 29.3008 29.1602 29.3008
c17.21 0 30.1201 -12.3096 30.1201 -29.3096v-452.3c0 -16.4805 -12.4199 -27.6709 -30.1201 -27.6709c-18.1602 0 -29.1602 11.6299 -29.1602 27.6699z" />
    <glyph glyph-name="idieresis" unicode="&#xef;" horiz-adv-x="200" 
d="M148.34 657.44l0.000976562 27.3008c0 16.25 10.8896 27.9404 28.3799 27.9404c17.2998 0 29.1299 -11.8203 29.1299 -27.9404v-27.2998c0 -15.4502 -11.4297 -27.1904 -29.1299 -27.1904c-17.9004 0 -28.3809 11.5898 -28.3809 27.1895zM-3.99902 657.441
l-0.00976562 27.2998c0 16.3701 11.5703 27.9404 28.4707 27.9404c17.5996 0 29.4297 -11.8203 29.4297 -27.9404v-27.29c0 -15.46 -11.4297 -27.2002 -29.4199 -27.2002c-17.4902 0 -28.4707 11.4805 -28.4707 27.1904zM75.0615 27.6914v452.31
c0 16.5703 10.8203 29.3008 29.1602 29.3008c17.21 0 30.1201 -12.3096 30.1201 -29.3096v-452.3c0 -16.4805 -12.4199 -27.6709 -30.1201 -27.6709c-18.1602 0 -29.1602 11.6299 -29.1602 27.6699z" />
    <glyph glyph-name="idieresisacute" unicode="&#x1e2f;" horiz-adv-x="200" 
d="M29.5801 693.6l150.688 71.6904c4.4502 2.12012 8.87988 3.08984 13.0898 3.08984c10.7402 0 20.0898 -6.30957 24.8594 -16.0596c1.98047 -4.05957 2.94043 -8.00977 2.94043 -11.7793c0 -10.7002 -7.71973 -19.96 -21.6494 -26.3604l-144.6 -67.1104
c-5.38965 -2.48047 -10.9395 -3.77051 -16.209 -3.77051c-9.7998 0 -18.6396 4.46973 -23.6797 14.0596c-1.96973 3.63965 -2.9502 7.55957 -2.9502 11.4795c0 9.61035 5.87988 19.2305 17.5098 24.7607zM-4.00098 573.33v27.2998
c0 16.3701 11.5703 27.9404 28.4707 27.9404c17.5996 0 29.4297 -11.8203 29.4297 -27.9404v-27.29c0 -15.46 -11.4297 -27.2002 -29.4297 -27.2002c-17.4902 0 -28.4707 11.4805 -28.4707 27.1904zM148.339 573.34l0.0107422 27.291
c0 16.25 10.8896 27.9404 28.3799 27.9404c17.2998 0 29.1201 -11.8203 29.1201 -27.9404v-27.29c0 -15.46 -11.4297 -27.2002 -29.1299 -27.2002c-17.9004 0 -28.3809 11.5996 -28.3809 27.1992zM75.0801 27.6709v452.31c0 16.5703 10.8203 29.3008 29.1602 29.3008
c17.21 0 30.1201 -12.3096 30.1201 -29.3096v-452.3c0 -16.4805 -12.4199 -27.6709 -30.1201 -27.6709c-18.1602 0 -29.1602 11.6299 -29.1602 27.6699z" />
    <glyph glyph-name="idotbelow" unicode="&#x1ecb;" horiz-adv-x="200" 
d="M75 647.07v19.3691c0 15.9102 10.8203 28.6406 29.1602 28.6406c17.21 0 30.1201 -12.2998 30.1201 -28.6299v-19.3799c0 -16.0303 -12.2402 -27.6699 -30.1201 -27.6699c-18.3398 0 -29.1602 12.0596 -29.1602 27.6699zM75 27.6592v452.31
c0 16.5703 10.8203 29.3008 29.1602 29.3008c17.21 0 30.1201 -12.3096 30.1201 -29.3096v-452.3c0 -16.4805 -12.4199 -27.6709 -30.1201 -27.6709c-18.1602 0 -29.1602 11.6299 -29.1602 27.6699zM74.5996 -112.001l-0.00976562 27c0 16 10.4297 28 28.3799 28
c17.1602 0 29.4297 -11 29.4297 -28v-27c0 -15 -11.8701 -27 -29.4199 -27c-18.3604 0 -28.3799 12 -28.3799 27z" />
    <glyph glyph-name="igrave" unicode="&#xec;" horiz-adv-x="200" 
d="M162.66 593.45l-148.422 68.8506c-10.6299 4.94043 -17.8096 14.4707 -17.8096 25.2402c0 3.62012 0.80957 7.37988 2.56934 11.1494c4.76953 9.83008 14.25 16.0801 25.0498 16.0801c4.28027 0 8.77051 -0.980469 13.251 -3.11035l150.69 -71.6904
c11.96 -5.69043 17.3301 -15.6406 17.3301 -25.0205c0 -3.95996 -0.959961 -7.82031 -2.78027 -11.21c-5.05957 -9.63965 -13.6299 -14.1992 -23.3896 -14.1992c-5.26953 0 -10.8896 1.33008 -16.4893 3.91016zM75.0781 27.6611v452.31
c0 16.5703 10.8203 29.3008 29.1602 29.3008c17.21 0 30.1201 -12.3096 30.1201 -29.3096v-452.3c0 -16.4805 -12.4199 -27.6709 -30.1201 -27.6709c-18.1602 0 -29.1602 11.6299 -29.1602 27.6699z" />
    </font>
</defs>
</svg>
